<svg width="421" height="183" viewBox="0 0 421 183" fill="none" xmlns="http://www.w3.org/2000/svg">
<path d="M0 10C0 4.47716 4.47715 0 10 0H411C416.523 0 421 4.47715 421 10V173C421 178.523 416.523 183 411 183H10C4.47716 183 0 178.523 0 173V10Z" fill="black"/>
<path d="M162.955 74.6644H172V75.4821H170.927C170.45 75.4821 170.058 75.5332 169.751 75.6354C169.445 75.7035 169.155 75.8738 168.883 76.1464C168.644 76.3849 168.406 76.7426 168.167 77.2196C167.963 77.6966 167.707 78.3098 167.401 79.0593L161.013 95.1572V107.882H164.283V108.751H152.274V107.882H155.493V96.3326L147.47 75.5332H144.761V74.6644H156.975V75.5332H153.756L160.553 93.2152L165.51 81.1035C165.612 80.8991 165.731 80.6095 165.867 80.2347C166.004 79.8259 166.14 79.4171 166.276 79.0082C166.413 78.5653 166.532 78.1565 166.634 77.7817C166.736 77.3729 166.787 77.0492 166.787 76.8108C166.787 76.2316 166.515 75.8738 165.97 75.7376C165.459 75.5672 164.897 75.4821 164.283 75.4821C164.045 75.4821 163.823 75.4991 163.619 75.5332C163.414 75.5332 163.227 75.5332 163.057 75.5332H162.955V74.6644Z" fill="#D3D3D3"/>
<path d="M154.039 97.4568V108.751H128.844V107.882H132.064V75.5332H128.844V74.6644H141.416V75.5332H137.839V107.882H143.818C145.385 107.882 146.748 107.814 147.906 107.678C149.098 107.507 150.086 107.081 150.87 106.4C151.654 105.719 152.233 104.68 152.608 103.283C153.016 101.886 153.221 99.9439 153.221 97.4568H154.039Z" fill="#D3D3D3"/>
<path d="M112.737 107.729H117.694C119.261 107.729 120.709 107.695 122.038 107.627C123.4 107.524 124.576 107.201 125.564 106.656C126.552 106.076 127.335 105.174 127.915 103.947C128.494 102.721 128.783 100.966 128.783 98.6833H129.652V108.751H103.998V107.882H106.553V75.5332H103.998V74.6644H129.601L129.652 83.0455H128.783C128.511 81.1716 128.017 79.7407 127.301 78.7527C126.62 77.7306 125.768 76.9981 124.746 76.5552C123.758 76.0783 122.617 75.8227 121.322 75.7887C120.062 75.7205 118.699 75.6865 117.234 75.6865H112.737V90.7622H114.065C115.122 90.7622 116.041 90.7281 116.825 90.66C117.643 90.5919 118.324 90.3704 118.869 89.9956C119.414 89.6209 119.823 89.0417 120.096 88.2581C120.368 87.4404 120.522 86.3161 120.556 84.8852H121.373V97.7635H120.556C120.522 96.4688 120.385 95.4467 120.147 94.6972C119.942 93.9136 119.636 93.3344 119.227 92.9597C118.818 92.5508 118.324 92.2953 117.745 92.1931C117.166 92.0568 116.501 91.9887 115.752 91.9887H112.737V107.729Z" fill="#D3D3D3"/>
<path d="M75.3516 107.882C76.3736 107.882 77.1743 107.865 77.7535 107.831C78.3326 107.763 78.7415 107.593 78.98 107.32C79.2525 107.013 79.4058 106.57 79.4399 105.991C79.508 105.378 79.5421 104.509 79.5421 103.385V76.1975L78.8778 75.5332H75.3516V74.6644H85.6235L100.444 98.99V79.7748C100.444 78.6846 100.41 77.8499 100.342 77.2707C100.307 76.6915 100.188 76.2827 99.9838 76.0442C99.7794 75.7716 99.4727 75.6183 99.0639 75.5843C98.6891 75.5502 98.1611 75.5332 97.4797 75.5332H96.3554V74.6644H105.605V75.5332H104.43C103.748 75.5332 103.203 75.5502 102.795 75.5843C102.386 75.6183 102.079 75.7716 101.875 76.0442C101.67 76.2827 101.534 76.6915 101.466 77.2707C101.432 77.8499 101.415 78.6846 101.415 79.7748V109.006H98.8595L80.5131 78.6505V102.516C80.5131 103.879 80.5301 104.935 80.5642 105.685C80.5983 106.4 80.7345 106.928 80.973 107.269C81.2456 107.575 81.6714 107.763 82.2506 107.831C82.8298 107.865 83.6645 107.882 84.7547 107.882V108.751H75.3516V107.882Z" fill="#D3D3D3"/>
<path d="M69.1965 74C71.1385 74 72.9101 74.5281 74.5113 75.5842C76.1467 76.6063 77.5435 77.9691 78.7019 79.6726C79.8943 81.342 80.8142 83.2499 81.4615 85.3962C82.1088 87.5085 82.4325 89.6379 82.4325 91.7843C82.4325 93.9647 82.1088 96.1111 81.4615 98.2234C80.8142 100.302 79.8943 102.175 78.7019 103.845C77.5435 105.48 76.1467 106.809 74.5113 107.831C72.9101 108.853 71.1385 109.364 69.1965 109.364C67.2205 109.364 65.4148 108.853 63.7795 107.831C62.1441 106.775 60.7473 105.395 59.5889 103.692C58.4306 101.988 57.5277 100.063 56.8804 97.9168C56.2331 95.7704 55.9094 93.5899 55.9094 91.3754C55.9094 89.2631 56.2501 87.1678 56.9315 85.0896C57.647 83.0114 58.6009 81.1546 59.7933 79.5192C61.0198 77.8839 62.4337 76.5552 64.035 75.5331C65.6363 74.511 67.3568 74 69.1965 74ZM69.2987 74.8177C68.2085 74.8177 67.2716 75.1073 66.488 75.6864C65.7044 76.2315 65.04 76.9811 64.4949 77.935C63.9498 78.8549 63.5069 79.911 63.1662 81.1035C62.8596 82.2618 62.6041 83.4713 62.3997 84.7319C62.2293 85.9584 62.1101 87.1849 62.0419 88.4114C61.9738 89.6038 61.9397 90.677 61.9397 91.6309C61.9397 92.619 61.9568 93.7262 61.9908 94.9527C62.059 96.1451 62.1782 97.3716 62.3486 98.6322C62.5189 99.8587 62.7574 101.068 63.064 102.261C63.3706 103.453 63.7795 104.526 64.2905 105.48C64.8356 106.4 65.5 107.15 66.2836 107.729C67.0672 108.274 68.0211 108.546 69.1454 108.546C70.2697 108.546 71.2236 108.257 72.0072 107.678C72.7908 107.098 73.4382 106.349 73.9492 105.429C74.4602 104.475 74.852 103.402 75.1246 102.21C75.3971 100.983 75.6016 99.7565 75.7378 98.53C75.8741 97.2694 75.9593 96.0429 75.9934 94.8505C76.0274 93.624 76.0445 92.5338 76.0445 91.5798C76.0445 90.7281 76.0104 89.723 75.9423 88.5647C75.9082 87.4063 75.806 86.2139 75.6356 84.9874C75.4653 83.7609 75.2268 82.5344 74.9202 81.3079C74.6476 80.0814 74.2558 78.9912 73.7448 78.0372C73.2337 77.0833 72.6205 76.3167 71.905 75.7375C71.1896 75.1243 70.3208 74.8177 69.2987 74.8177Z" fill="#D3D3D3"/>
<path d="M68.1944 97.4568V108.751H43V107.882H46.2196V75.5332H43V74.6644H55.5716V75.5332H51.9943V107.882H57.9735C59.5407 107.882 60.9035 107.814 62.0619 107.678C63.2543 107.507 64.2423 107.081 65.0259 106.4C65.8095 105.719 66.3887 104.68 66.7634 103.283C67.1723 101.886 67.3767 99.9439 67.3767 97.4568H68.1944Z" fill="#D3D3D3"/>
</svg>
