<svg width="457" height="158" viewBox="0 0 457 158" fill="none" xmlns="http://www.w3.org/2000/svg">
<path d="M0 10C0 4.47715 4.47715 0 10 0H447C452.523 0 457 4.47715 457 10V148C457 153.523 452.523 158 447 158H9.99999C4.47714 158 0 153.523 0 148V10Z" fill="black"/>
<path d="M283.955 58.6644H293V59.4821H291.927C291.45 59.4821 291.058 59.5332 290.751 59.6354C290.445 59.7035 290.155 59.8738 289.883 60.1464C289.644 60.3849 289.406 60.7426 289.167 61.2196C288.963 61.6966 288.707 62.3098 288.401 63.0593L282.013 79.1572V91.8821H285.283V92.7509H273.274V91.8821H276.493V80.3326L268.47 59.5332H265.761V58.6644H277.975V59.5332H274.756L281.553 77.2152L286.51 65.1035C286.612 64.8991 286.731 64.6095 286.867 64.2347C287.004 63.8259 287.14 63.4171 287.276 63.0082C287.413 62.5653 287.532 62.1565 287.634 61.7817C287.736 61.3729 287.787 61.0492 287.787 60.8108C287.787 60.2316 287.515 59.8738 286.97 59.7376C286.459 59.5672 285.897 59.4821 285.283 59.4821C285.045 59.4821 284.823 59.4991 284.619 59.5332C284.414 59.5332 284.227 59.5332 284.057 59.5332H283.955V58.6644Z" fill="#D3D3D3"/>
<path d="M275.038 81.4568V92.7509H249.844V91.8821H253.064V59.5332H249.844V58.6644H262.416V59.5332H258.838V91.8821H264.818C266.385 91.8821 267.748 91.814 268.906 91.6777C270.098 91.5073 271.086 91.0815 271.87 90.4001C272.654 89.7187 273.233 88.6796 273.608 87.2827C274.016 85.8859 274.221 83.9439 274.221 81.4568H275.038Z" fill="#D3D3D3"/>
<path d="M233.737 91.7288H238.694C240.261 91.7288 241.709 91.6947 243.038 91.6266C244.4 91.5244 245.576 91.2007 246.564 90.6556C247.552 90.0764 248.335 89.1736 248.915 87.9471C249.494 86.7206 249.783 84.966 249.783 82.6833H250.652V92.7509H224.998V91.8821H227.553V59.5332H224.998V58.6644H250.601L250.652 67.0455H249.783C249.511 65.1716 249.017 63.7407 248.301 62.7527C247.62 61.7306 246.768 60.9981 245.746 60.5552C244.758 60.0783 243.617 59.8227 242.322 59.7887C241.062 59.7205 239.699 59.6865 238.234 59.6865H233.737V74.7622H235.065C236.122 74.7622 237.041 74.7281 237.825 74.66C238.643 74.5919 239.324 74.3704 239.869 73.9956C240.414 73.6209 240.823 73.0417 241.096 72.2581C241.368 71.4404 241.522 70.3161 241.556 68.8852H242.373V81.7635H241.556C241.522 80.4688 241.385 79.4467 241.147 78.6972C240.942 77.9136 240.636 77.3344 240.227 76.9597C239.818 76.5508 239.324 76.2953 238.745 76.1931C238.166 76.0568 237.501 75.9887 236.752 75.9887H233.737V91.7288Z" fill="#D3D3D3"/>
<path d="M196.352 91.8821C197.374 91.8821 198.174 91.8651 198.753 91.831C199.333 91.7629 199.741 91.5925 199.98 91.32C200.253 91.0133 200.406 90.5704 200.44 89.9912C200.508 89.378 200.542 88.5092 200.542 87.3849V60.1975L199.878 59.5332H196.352V58.6644H206.624L221.444 82.99V63.7748C221.444 62.6846 221.41 61.8499 221.342 61.2707C221.307 60.6915 221.188 60.2827 220.984 60.0442C220.779 59.7716 220.473 59.6183 220.064 59.5843C219.689 59.5502 219.161 59.5332 218.48 59.5332H217.355V58.6644H226.605V59.5332H225.43C224.748 59.5332 224.203 59.5502 223.795 59.5843C223.386 59.6183 223.079 59.7716 222.875 60.0442C222.67 60.2827 222.534 60.6915 222.466 61.2707C222.432 61.8499 222.415 62.6846 222.415 63.7748V93.0064H219.859L201.513 62.6505V86.5162C201.513 87.8789 201.53 88.9351 201.564 89.6846C201.598 90.4001 201.735 90.9282 201.973 91.2688C202.246 91.5755 202.671 91.7629 203.251 91.831C203.83 91.8651 204.665 91.8821 205.755 91.8821V92.7509H196.352V91.8821Z" fill="#D3D3D3"/>
<path d="M190.197 58C192.138 58 193.91 58.5281 195.511 59.5842C197.147 60.6063 198.544 61.9691 199.702 63.6726C200.894 65.342 201.814 67.2499 202.462 69.3962C203.109 71.5085 203.432 73.6379 203.432 75.7843C203.432 77.9647 203.109 80.1111 202.462 82.2234C201.814 84.3016 200.894 86.1754 199.702 87.8448C198.544 89.4802 197.147 90.8089 195.511 91.831C193.91 92.8531 192.138 93.3641 190.197 93.3641C188.22 93.3641 186.415 92.8531 184.779 91.831C183.144 90.7748 181.747 89.395 180.589 87.6915C179.431 85.9881 178.528 84.0631 177.88 81.9168C177.233 79.7704 176.909 77.5899 176.909 75.3754C176.909 73.2631 177.25 71.1678 177.932 69.0896C178.647 67.0114 179.601 65.1546 180.793 63.5192C182.02 61.8839 183.434 60.5552 185.035 59.5331C186.636 58.511 188.357 58 190.197 58ZM190.299 58.8177C189.208 58.8177 188.272 59.1073 187.488 59.6864C186.704 60.2315 186.04 60.9811 185.495 61.935C184.95 62.8549 184.507 63.911 184.166 65.1035C183.86 66.2618 183.604 67.4713 183.4 68.7319C183.229 69.9584 183.11 71.1849 183.042 72.4114C182.974 73.6038 182.94 74.677 182.94 75.6309C182.94 76.619 182.957 77.7262 182.991 78.9527C183.059 80.1451 183.178 81.3716 183.349 82.6322C183.519 83.8587 183.757 85.0682 184.064 86.2606C184.371 87.453 184.779 88.5262 185.291 89.4802C185.836 90.4 186.5 91.1496 187.284 91.7288C188.067 92.2739 189.021 92.5464 190.145 92.5464C191.27 92.5464 192.224 92.2568 193.007 91.6777C193.791 91.0985 194.438 90.3489 194.949 89.4291C195.46 88.4751 195.852 87.4019 196.125 86.2095C196.397 84.983 196.602 83.7565 196.738 82.53C196.874 81.2694 196.959 80.0429 196.993 78.8505C197.027 77.624 197.044 76.5338 197.044 75.5798C197.044 74.7281 197.01 73.723 196.942 72.5647C196.908 71.4063 196.806 70.2139 196.636 68.9874C196.465 67.7609 196.227 66.5344 195.92 65.3079C195.648 64.0814 195.256 62.9912 194.745 62.0372C194.234 61.0833 193.62 60.3167 192.905 59.7375C192.19 59.1243 191.321 58.8177 190.299 58.8177Z" fill="#D3D3D3"/>
<path d="M189.194 81.4568V92.7509H164V91.8821H167.22V59.5332H164V58.6644H176.572V59.5332H172.994V91.8821H178.974C180.541 91.8821 181.903 91.814 183.062 91.6777C184.254 91.5073 185.242 91.0815 186.026 90.4001C186.809 89.7187 187.389 88.6796 187.763 87.2827C188.172 85.8859 188.377 83.9439 188.377 81.4568H189.194Z" fill="#D3D3D3"/>
</svg>
