<svg width="18" height="18" viewBox="0 0 18 18" fill="none" xmlns="http://www.w3.org/2000/svg">
<g clip-path="url(#clip0_336_23)">
<path fill-rule="evenodd" clip-rule="evenodd" d="M9.1875 2.12567C8.8422 2.06699 8.3715 2.06254 7.52235 2.06254C6.08483 2.06254 5.06306 2.06373 4.28839 2.16741C3.52947 2.26898 3.0934 2.4595 2.77643 2.77647C2.45902 3.09387 2.26877 3.52861 2.16732 4.28318C2.06369 5.05392 2.0625 6.06993 2.0625 7.50008V10.5001C2.0625 11.9302 2.06369 12.9461 2.16732 13.7169C2.26877 14.4715 2.45902 14.9062 2.77643 15.2236C3.09383 15.5411 3.52857 15.7313 4.28314 15.8327C5.05388 15.9364 6.06989 15.9376 7.5 15.9376H10.5C11.9301 15.9376 12.9461 15.9364 13.7169 15.8327C14.4714 15.7313 14.9062 15.5411 15.2236 15.2236C15.541 14.9062 15.7313 14.4715 15.8327 13.7169C15.9363 12.9461 15.9375 11.9302 15.9375 10.5001V10.1722C15.9375 9.02018 15.9294 8.4741 15.8072 8.06258H13.4597C12.6101 8.06258 11.9158 8.06258 11.3677 7.98885C10.7947 7.91183 10.298 7.7451 9.90143 7.34862C9.5049 6.95209 9.33818 6.45534 9.26115 5.88238C9.1875 5.33423 9.1875 4.63993 9.1875 3.79031V2.12567ZM10.3125 2.70713V3.75004C10.3125 4.64982 10.3137 5.26808 10.3761 5.73247C10.4364 6.18069 10.5443 6.40047 10.697 6.55312C10.8496 6.70578 11.0693 6.81365 11.5176 6.87391C11.982 6.93635 12.6002 6.93754 13.5 6.93754H15.0146C14.7923 6.72188 14.5074 6.46348 14.1375 6.13056L11.1684 3.45838C10.8044 3.13075 10.5335 2.88891 10.3125 2.70713ZM7.63163 0.937519C8.67008 0.937241 9.34095 0.937069 9.95843 1.17402C10.5759 1.41097 11.0724 1.85802 11.8405 2.54967C11.867 2.57355 11.8938 2.59771 11.921 2.62218L14.8901 5.29434C14.9217 5.32279 14.9529 5.35088 14.9837 5.37862C15.8715 6.17711 16.4456 6.69344 16.7543 7.38677C17.0631 8.08005 17.0629 8.85218 17.0625 10.0462C17.0625 10.0877 17.0625 10.1297 17.0625 10.1722V10.5424C17.0625 11.9207 17.0625 13.0124 16.9477 13.8668C16.8294 14.7461 16.5803 15.4578 16.0191 16.0191C15.4578 16.5804 14.7461 16.8295 13.8668 16.9477C13.0124 17.0626 11.9207 17.0626 10.5423 17.0626H7.45769C6.07937 17.0626 4.98764 17.0626 4.13324 16.9477C3.25392 16.8295 2.54221 16.5804 1.98093 16.0191C1.41966 15.4578 1.17057 14.7461 1.05236 13.8668C0.937478 13.0124 0.937485 11.9207 0.9375 10.5424V7.45773C0.937485 6.07941 0.937478 4.98768 1.05236 4.13328C1.17057 3.25396 1.41966 2.54225 1.98093 1.98097C2.54264 1.41927 3.25674 1.17045 4.13915 1.05235C4.99712 0.937519 6.09428 0.937526 7.48014 0.937541H7.52235C7.55918 0.937541 7.59563 0.937534 7.63163 0.937519Z" fill="white"/>
<path fill-rule="evenodd" clip-rule="evenodd" d="M7.69747 9.97333C7.9884 10.0824 8.13577 10.4067 8.02665 10.6975L6.90169 13.6975C6.79261 13.9884 6.46837 14.1358 6.17749 14.0267C5.88661 13.9177 5.73923 13.5934 5.84831 13.3025L6.97331 10.3025C7.08239 10.0117 7.40662 9.86428 7.69747 9.97333ZM5.64775 10.1023C5.86741 10.3219 5.86741 10.6781 5.64775 10.8978L5.29549 11.25L5.64775 11.6023C5.86741 11.8219 5.86741 12.1781 5.64775 12.3978C5.42808 12.6175 5.07192 12.6175 4.85225 12.3978L4.10225 11.6478C3.88258 11.4281 3.88258 11.0719 4.10225 10.8523L4.85225 10.1023C5.07192 9.88258 5.42808 9.88258 5.64775 10.1023ZM8.22727 11.6023C8.44695 11.3826 8.80305 11.3826 9.02272 11.6023L9.77272 12.3523C9.9924 12.5719 9.9924 12.9281 9.77272 13.1478L9.02272 13.8978C8.80305 14.1175 8.44695 14.1175 8.22727 13.8978C8.0076 13.6781 8.0076 13.3219 8.22727 13.1023L8.57947 12.75L8.22727 12.3978C8.0076 12.1781 8.0076 11.8219 8.22727 11.6023Z" fill="white"/>
</g>
<defs>
<clipPath id="clip0_336_23">
<rect width="18" height="18" fill="white"/>
</clipPath>
</defs>
</svg>
