<svg width="12" height="12" viewBox="0 0 12 12" fill="none" xmlns="http://www.w3.org/2000/svg">
<g clip-path="url(#clip0_275_67)">
<path fill-rule="evenodd" clip-rule="evenodd" d="M6 0C9.3138 0 12 2.75396 12 6.15176C12 8.86916 10.2828 11.1744 7.9002 11.9886C7.596 12.0492 7.488 11.8571 7.488 11.6933C7.488 11.4905 7.4952 10.8281 7.4952 10.0049C7.4952 9.43128 7.3032 9.05691 7.0878 8.86611C8.424 8.71371 9.828 8.19346 9.828 5.83066C9.828 5.15866 9.5952 4.61029 9.21 4.17949C9.2724 4.02409 9.4782 3.39837 9.1512 2.55117C9.1512 2.55117 8.6484 2.38633 7.503 3.18193C7.0236 3.04573 6.51 2.9772 6 2.9748C5.49 2.9772 4.977 3.04573 4.4982 3.18193C3.3516 2.38633 2.8476 2.55117 2.8476 2.55117C2.5218 3.39837 2.7276 4.02409 2.7894 4.17949C2.406 4.61029 2.1714 5.15866 2.1714 5.83066C2.1714 8.18746 3.5724 8.71569 4.905 8.87109C4.7334 9.02469 4.578 9.29566 4.524 9.69346C4.182 9.85066 3.3132 10.1227 2.778 9.18252C2.778 9.18252 2.4606 8.59144 1.8582 8.54824C1.8582 8.54824 1.2732 8.54047 1.8174 8.92207C1.8174 8.92207 2.2104 9.11107 2.4834 9.82207C2.4834 9.82207 2.8356 10.92 4.5048 10.548C4.5078 11.0622 4.5132 11.5469 4.5132 11.6933C4.5132 11.8559 4.4028 12.0462 4.1034 11.9892C1.719 11.1762 0 8.86976 0 6.15176C0 2.75396 2.6868 0 6 0Z" fill="#6E65A7"/>
</g>
<defs>
<clipPath id="clip0_275_67">
<rect width="12" height="12" fill="white"/>
</clipPath>
</defs>
</svg>
