<svg width="24" height="26" viewBox="0 0 24 26" fill="none" xmlns="http://www.w3.org/2000/svg">
<path d="M14.9848 8.63208H1.91437C1.60077 8.63208 1.35437 8.95629 1.35437 9.36892V16.9731C1.35437 17.3858 1.60077 17.71 1.91437 17.71H3.59437V21.7479L6.58478 17.71H14.9848C15.2984 17.71 15.5448 17.3858 15.5448 16.9731V9.36892C15.5448 8.95629 15.2872 8.63208 14.9848 8.63208Z" stroke="white" stroke-miterlimit="10" stroke-linecap="round" stroke-linejoin="round"/>
<path d="M15.5512 13.1268H15.5448" stroke="white" stroke-miterlimit="10" stroke-linecap="round" stroke-linejoin="round"/>
<path d="M8.4552 5.64065V4.78591C8.4552 4.37328 8.7016 4.04907 9.0152 4.04907H22.0856C22.388 4.04907 22.6456 4.37328 22.6456 4.78591V12.6406C22.6456 12.9059 22.4888 13.127 22.2872 13.127H20.4056" stroke="white" stroke-miterlimit="10" stroke-linecap="round" stroke-linejoin="round"/>
<path d="M8.4552 8.63222V8.58801" stroke="white" stroke-miterlimit="10" stroke-linecap="round" stroke-linejoin="round"/>
<path d="M20.4056 13.1268V17.15L17.4152 13.1268" stroke="white" stroke-miterlimit="10" stroke-linecap="round" stroke-linejoin="round"/>
</svg>
