<svg width="12" height="12" viewBox="0 0 12 12" fill="none" xmlns="http://www.w3.org/2000/svg">
<g clip-path="url(#clip0_275_65)">
<path d="M2.19844 2.68594C2.08828 2.71172 2.15859 2.70703 2.06719 2.71875C1.67578 2.80312 1.96641 2.87812 2.19844 2.68594ZM9.08203 2.84297C9.11016 2.82422 9.20859 2.72813 8.90156 2.63438C8.92031 2.73047 8.83828 2.72109 8.83828 2.775C9.06563 2.98125 9.15938 3.33984 9.45 3.41484C9.50625 3.15703 9.19219 3.03047 9.08203 2.84297ZM1.98984 2.61094C2.025 2.81953 2.18203 2.39062 2.18437 2.23828C2.12344 2.27344 2.0625 2.30859 1.99922 2.33672C2.14688 2.41172 2.01797 2.49141 1.85859 2.61094C1.53516 3.01406 2.16094 2.29688 1.98984 2.61094ZM6 0C2.68594 0 0 2.68594 0 6C0 9.31172 2.68594 12 6 12C9.31406 12 12 9.31172 12 6C12 2.68594 9.31406 0 6 0ZM6.15937 2.01094L6.1875 2.02031C6.075 2.16562 6.77344 2.58984 6.27188 2.625C5.80313 2.75859 6.46875 2.50312 6.10547 2.54766C6.29766 2.28047 5.95312 2.27578 6.15937 2.01094ZM3.31406 2.39531C3.14531 2.25469 2.61562 2.5875 2.80078 2.50781C3.26016 2.32734 2.83125 2.52656 2.93906 2.74219C2.84063 2.94609 2.90625 2.54062 2.6625 2.78203C2.48672 2.82187 2.05547 3.22031 2.10938 3.09844C2.09531 3.28828 1.59609 3.51328 1.52812 3.82969C1.36406 4.26797 1.48828 3.81328 1.45781 3.64219C1.22344 3.34453 0.796875 4.14609 0.923438 4.4625C1.13672 4.0875 1.12031 4.42266 0.965625 4.58906C1.12266 4.87734 0.822656 5.25234 1.12031 5.46562C1.25156 5.49609 1.51406 5.025 1.39922 5.51484C1.47891 5.09063 1.61953 5.61563 1.84688 5.49844C1.86094 5.72109 1.99922 5.61797 2.02969 5.8875C2.40937 5.85938 2.75625 6.50156 2.30391 6.62344C2.37188 6.60469 2.50547 6.72422 2.66016 6.63281C2.92266 6.84141 3.61406 6.86719 3.63281 7.38281C3.15703 7.61016 3.51562 8.23359 3.10312 8.45625C2.62969 8.38594 2.94141 9.03984 2.74219 8.96484C2.82188 9.43594 2.26406 8.90391 2.47969 9.16406C2.87578 9.40781 2.30625 9.35859 2.48438 9.53672C2.28516 9.49453 2.60859 9.90703 2.6625 10.0594C2.94844 10.5234 2.41641 9.95625 2.25938 9.80156C2.10938 9.50156 1.75547 8.92734 1.65703 8.45625C1.60078 7.77187 1.07109 7.3125 0.949219 6.64453C0.827344 6.27187 1.28437 5.67422 1.03828 5.46562C0.825 5.29922 0.911719 4.72969 0.785156 4.42969C1.10156 3.05859 2.10703 1.90313 3.31406 1.21875C3.18984 1.31016 4.02422 0.982031 3.92813 1.06172C3.90234 1.12031 4.41563 0.839063 4.725 0.796875C4.69219 0.801562 3.92109 1.07812 4.13437 1.04063C3.80391 1.20234 4.10156 1.11094 4.26562 1.02891C3.9375 1.27031 3.68438 1.20234 3.31172 1.41563C2.93672 1.51406 3.01406 1.90313 2.74687 2.09766C2.90391 2.12578 3.29766 1.69219 3.52734 1.53984C4.05469 1.28437 3.26016 2.00391 3.76172 1.69453C3.59297 1.85156 3.62812 2.10234 3.525 2.17266C3.47344 2.15859 3.72891 2.29453 3.31406 2.39531ZM4.13437 1.31719C4.08047 1.38984 4.00547 1.54688 3.96094 1.45078C3.9 1.48125 3.87656 1.6125 3.76172 1.50703C3.82969 1.45781 3.9 1.34062 3.76641 1.41328C3.82734 1.34766 4.37109 1.1625 4.34062 1.09219C4.43672 1.03125 4.42734 1.00078 4.31719 1.03828C4.26094 1.01953 4.45078 0.860156 4.70391 0.839062C4.73906 0.839062 4.75313 0.8625 4.68984 0.855469C4.30781 0.972656 4.47188 0.939844 4.72969 0.855469C4.63125 0.911719 4.56328 0.928125 4.54688 0.953906C4.80469 0.860156 4.53281 1.02187 4.59141 1.01016C4.51875 1.04766 4.60312 1.05938 4.4625 1.11328C4.48828 1.09219 4.23281 1.26562 4.38516 1.21406C4.2375 1.35469 4.17188 1.35703 4.13437 1.31719ZM4.35938 1.65234C4.36406 1.42734 4.6875 1.28437 4.64766 1.27266C5.04609 1.08516 4.50938 1.27969 4.82344 1.11094C4.94063 1.09922 5.18906 0.724219 5.53359 0.700781C5.91328 0.585938 5.7375 0.707812 6.01875 0.6L5.9625 0.646875C5.91328 0.653906 5.97422 0.740625 5.79609 0.871875C5.77734 1.07578 5.45625 0.982031 5.61563 1.2C5.5125 1.05234 5.35781 1.19531 5.55234 1.20937C5.34375 1.36875 4.85859 1.39688 4.62656 1.66172C4.47656 1.87734 4.33828 1.80938 4.35938 1.65234ZM6.02578 2.40234C5.86641 2.78672 5.71172 2.34609 5.99297 2.27578C6.06328 2.31328 6.09141 2.325 6.02578 2.40234ZM5.42578 1.63359C5.37891 1.46016 5.41641 1.55156 5.69531 1.46953C5.8875 1.60781 5.52422 1.69922 5.42578 1.63359ZM9.78984 8.5125C9.56953 8.13281 10.057 7.78125 10.2211 7.4625C10.2 7.83516 10.1531 8.20312 9.78984 8.5125ZM10.6195 4.17422C10.3805 4.19297 10.1648 4.24922 9.94922 4.11328C9.45234 3.56953 10.0406 4.72734 10.2047 4.25391C10.7953 4.47891 10.1953 5.44922 9.82266 5.34844C9.61406 4.89844 9.35625 4.40391 8.90156 4.18359C9.25078 4.57031 9.42422 5.04609 9.79922 5.39531C9.825 5.88281 10.3195 5.21719 10.2891 5.59453C10.3359 6.24375 9.55547 6.63281 9.69141 7.28437C9.98203 7.87734 9.13125 7.98516 9.22734 8.51719C8.88516 8.89922 8.51953 9.41484 7.90547 9.33281C7.90547 9.00938 7.74141 8.73516 7.70391 8.40234C7.37109 7.98047 8.05547 7.52812 7.63125 7.0875C7.14141 6.97734 7.73203 6.30234 7.22812 6.36563C6.92578 6.06328 6.48281 6.35625 6.04922 6.35859C5.50547 6.41016 4.94531 5.69063 5.18672 5.18203C4.99453 4.65234 5.79609 4.49766 5.81719 4.03125C6.20156 3.71016 6.74766 3.75 7.26797 3.675C7.23047 4.04766 7.62422 4.05 7.92188 4.17422C8.08828 3.77109 8.60625 4.23984 8.96016 3.98438C9.08203 3.38906 8.61563 3.74766 8.34844 3.55781C8.025 3.08438 9.03984 3.31406 8.93438 3.06563C8.54063 3.06328 8.76328 2.58047 8.48438 2.85C8.73516 2.89453 8.43984 3.09141 8.44687 2.86641C8.06719 2.75625 8.43281 3.29766 8.24063 3.34922C7.94766 3.22734 8.08594 3.4875 8.11641 3.52734C7.98984 3.80156 7.83516 3.12422 7.47656 3.14297C7.12031 2.81719 7.33594 3.29062 7.64531 3.36797C7.57969 3.38672 7.68281 3.65625 7.60078 3.54141C7.34531 3.18984 6.86016 2.95547 6.57187 3.38672C6.54141 3.78984 5.72109 3.90469 5.85234 3.43359C5.66016 2.94609 6.44766 3.41953 6.375 3.03047C5.86875 2.69531 6.51328 2.80312 6.68438 2.48906C7.07344 2.50078 6.70078 2.17031 6.88359 2.07422C6.86484 2.43281 7.18125 2.36484 7.43203 2.29688C7.37109 2.09063 7.58203 2.09766 7.45312 1.92656C8.03438 1.69453 7.01016 2.03437 7.21641 1.52578C6.96562 1.35234 7.11094 1.90781 7.21641 1.96641C7.22344 2.1375 7.07812 2.34844 6.87891 1.98984C6.58828 2.17969 6.61875 1.79766 6.6 1.8375C6.56719 1.68984 6.82031 1.68281 6.82266 1.425C6.80156 1.26094 6.80625 1.17422 6.92344 1.16484C6.93281 1.18828 7.40391 1.19531 7.57031 1.38984C7.11562 1.29844 7.50234 1.46484 7.70625 1.55859C7.48828 1.3875 7.79297 1.55859 7.61484 1.36406C7.68516 1.37813 7.42031 1.09687 7.69219 1.34297C7.54453 1.16719 7.98047 1.21875 7.72266 1.0875C8.1 1.19297 7.87734 1.09688 7.65469 1.00078C7.04063 0.635156 8.73984 1.49531 8.04609 1.11328C8.48906 1.20938 7.09922 0.771094 7.73203 0.963281C7.49062 0.857812 7.725 0.916406 7.94297 0.984375C7.55156 0.8625 6.96563 0.635156 6.98906 0.625781C7.125 0.635156 7.25859 0.665625 7.3875 0.703125C7.78828 0.822656 7.27266 0.675 7.38281 0.677344C8.76094 1.03125 9.96797 1.95469 10.7016 3.16172C10.8727 3.34219 11.3391 4.53516 11.0953 4.00547C11.2055 4.42734 11.2219 4.88203 11.2805 5.31328C11.1586 5.17734 11.0227 4.67578 10.9055 4.39688C10.8562 4.50469 10.8 4.24453 10.6195 4.17422Z" fill="#6E65A7"/>
</g>
<defs>
<clipPath id="clip0_275_65">
<rect width="12" height="12" fill="white"/>
</clipPath>
</defs>
</svg>
