<svg width="421" height="183" viewBox="0 0 421 183" fill="none" xmlns="http://www.w3.org/2000/svg">
<path d="M0 10C0 4.47716 4.47715 0 10 0H411C416.523 0 421 4.47715 421 10V173C421 178.523 416.523 183 411 183H10C4.47716 183 0 178.523 0 173V10Z" fill="#FBC98E"/>
<path d="M63.22 92.1499L55.39 113H51.43L43.57 92.1499H47.23L53.41 109.49L59.62 92.1499H63.22ZM64.9401 104.66C64.9401 103 65.2801 101.53 65.9601 100.25C66.6601 98.9699 67.6001 97.9799 68.7801 97.2799C69.9801 96.5599 71.3001 96.1999 72.7401 96.1999C74.0401 96.1999 75.1701 96.4599 76.1301 96.9799C77.1101 97.4799 77.8901 98.1099 78.4701 98.8699V96.4699H81.9201V113H78.4701V110.54C77.8901 111.32 77.1001 111.97 76.1001 112.49C75.1001 113.01 73.9601 113.27 72.6801 113.27C71.2601 113.27 69.9601 112.91 68.7801 112.19C67.6001 111.45 66.6601 110.43 65.9601 109.13C65.2801 107.81 64.9401 106.32 64.9401 104.66ZM78.4701 104.72C78.4701 103.58 78.2301 102.59 77.7501 101.75C77.2901 100.91 76.6801 100.27 75.9201 99.8299C75.1601 99.3899 74.3401 99.1699 73.4601 99.1699C72.5801 99.1699 71.7601 99.3899 71.0001 99.8299C70.2401 100.25 69.6201 100.88 69.1401 101.72C68.6801 102.54 68.4501 103.52 68.4501 104.66C68.4501 105.8 68.6801 106.8 69.1401 107.66C69.6201 108.52 70.2401 109.18 71.0001 109.64C71.7801 110.08 72.6001 110.3 73.4601 110.3C74.3401 110.3 75.1601 110.08 75.9201 109.64C76.6801 109.2 77.2901 108.56 77.7501 107.72C78.2301 106.86 78.4701 105.86 78.4701 104.72ZM89.8321 98.8699C90.3321 98.0299 90.9921 97.3799 91.8121 96.9199C92.6521 96.4399 93.6421 96.1999 94.7821 96.1999V99.7399H93.9121C92.5721 99.7399 91.5521 100.08 90.8521 100.76C90.1721 101.44 89.8321 102.62 89.8321 104.3V113H86.4121V96.4699H89.8321V98.8699ZM99.6658 94.2799C99.0458 94.2799 98.5258 94.0699 98.1058 93.6499C97.6858 93.2299 97.4758 92.7099 97.4758 92.0899C97.4758 91.4699 97.6858 90.9499 98.1058 90.5299C98.5258 90.1099 99.0458 89.8999 99.6658 89.8999C100.266 89.8999 100.776 90.1099 101.196 90.5299C101.616 90.9499 101.826 91.4699 101.826 92.0899C101.826 92.7099 101.616 93.2299 101.196 93.6499C100.776 94.0699 100.266 94.2799 99.6658 94.2799ZM101.346 96.4699V113H97.9258V96.4699H101.346ZM113.006 113.27C111.446 113.27 110.036 112.92 108.776 112.22C107.516 111.5 106.526 110.5 105.806 109.22C105.086 107.92 104.726 106.42 104.726 104.72C104.726 103.04 105.096 101.55 105.836 100.25C106.576 98.9499 107.586 97.9499 108.866 97.2499C110.146 96.5499 111.576 96.1999 113.156 96.1999C114.736 96.1999 116.166 96.5499 117.446 97.2499C118.726 97.9499 119.736 98.9499 120.476 100.25C121.216 101.55 121.586 103.04 121.586 104.72C121.586 106.4 121.206 107.89 120.446 109.19C119.686 110.49 118.646 111.5 117.326 112.22C116.026 112.92 114.586 113.27 113.006 113.27ZM113.006 110.3C113.886 110.3 114.706 110.09 115.466 109.67C116.246 109.25 116.876 108.62 117.356 107.78C117.836 106.94 118.076 105.92 118.076 104.72C118.076 103.52 117.846 102.51 117.386 101.69C116.926 100.85 116.316 100.22 115.556 99.7999C114.796 99.3799 113.976 99.1699 113.096 99.1699C112.216 99.1699 111.396 99.3799 110.636 99.7999C109.896 100.22 109.306 100.85 108.866 101.69C108.426 102.51 108.206 103.52 108.206 104.72C108.206 106.5 108.656 107.88 109.556 108.86C110.476 109.82 111.626 110.3 113.006 110.3ZM130.967 113.27C129.667 113.27 128.497 113.04 127.457 112.58C126.437 112.1 125.627 111.46 125.027 110.66C124.427 109.84 124.107 108.93 124.067 107.93H127.607C127.667 108.63 127.997 109.22 128.597 109.7C129.217 110.16 129.987 110.39 130.907 110.39C131.867 110.39 132.607 110.21 133.127 109.85C133.667 109.47 133.937 108.99 133.937 108.41C133.937 107.79 133.637 107.33 133.037 107.03C132.457 106.73 131.527 106.4 130.247 106.04C129.007 105.7 127.997 105.37 127.217 105.05C126.437 104.73 125.757 104.24 125.177 103.58C124.617 102.92 124.337 102.05 124.337 100.97C124.337 100.09 124.597 99.2899 125.117 98.5699C125.637 97.8299 126.377 97.2499 127.337 96.8299C128.317 96.4099 129.437 96.1999 130.697 96.1999C132.577 96.1999 134.087 96.6799 135.227 97.6399C136.387 98.5799 137.007 99.8699 137.087 101.51H133.667C133.607 100.77 133.307 100.18 132.767 99.7399C132.227 99.2999 131.497 99.0799 130.577 99.0799C129.677 99.0799 128.987 99.2499 128.507 99.5899C128.027 99.9299 127.787 100.38 127.787 100.94C127.787 101.38 127.947 101.75 128.267 102.05C128.587 102.35 128.977 102.59 129.437 102.77C129.897 102.93 130.577 103.14 131.477 103.4C132.677 103.72 133.657 104.05 134.417 104.39C135.197 104.71 135.867 105.19 136.427 105.83C136.987 106.47 137.277 107.32 137.297 108.38C137.297 109.32 137.037 110.16 136.517 110.9C135.997 111.64 135.257 112.22 134.297 112.64C133.357 113.06 132.247 113.27 130.967 113.27Z" fill="#362E2E"/>
<g clip-path="url(#clip0_225_342)">
<path d="M189.354 91.1016L172.663 84.0369L155 91.5123V99.8737L156.409 100.47V112.215L172.352 118.963L188.591 112.09V100.333L190 99.7363V91.3749L189.354 91.1016ZM171.441 116.28L158.526 110.813V100.826L171.441 106.292V116.28ZM171.441 104.569L158.526 99.1019V99.0683L157.116 98.4716V93.8755L171.441 99.9389V104.569H171.441ZM172.234 98.5512L158.017 92.5332L172.663 86.335L186.879 92.3524L172.234 98.5512ZM186.474 110.688L173.028 116.379V106.292L186.474 100.6V110.688ZM187.884 98.2804L173.028 104.569V99.9389L187.884 93.6513V98.2804Z" fill="#C77009"/>
</g>
<defs>
<clipPath id="clip0_225_342">
<rect width="35" height="35" fill="white" transform="translate(155 84)"/>
</clipPath>
</defs>
</svg>
