<svg width="455" height="167" viewBox="0 0 455 167" fill="none" xmlns="http://www.w3.org/2000/svg">
<path d="M0 10C0 4.47716 4.47715 0 10 0H445C450.523 0 455 4.47715 455 10V157C455 162.523 450.523 167 445 167H10C4.47715 167 0 162.523 0 157V10Z" fill="#F5D6BA"/>
<path d="M87.7891 93.793C82.6719 93.793 80.1133 90.2773 80.1133 83.2461C80.1133 76.0195 82.6719 72.4062 87.7891 72.4062C92.9062 72.4062 95.4648 76.0195 95.4648 83.2461C95.4648 90.2773 92.9062 93.793 87.7891 93.793ZM87.7891 91.0977C90.8164 91.0977 92.3301 88.4805 92.3301 83.2461C92.3301 77.8164 90.8164 75.1016 87.7891 75.1016C84.7617 75.1016 83.248 77.8164 83.248 83.2461C83.248 88.4805 84.7617 91.0977 87.7891 91.0977ZM108.18 93.793C105.826 93.793 104.122 93.3047 103.067 92.3281C102.022 91.3516 101.5 89.7891 101.5 87.6406V85.0039H104.605V87.4941C104.605 88.7246 104.903 89.6182 105.499 90.1748C106.104 90.7314 107.096 91.0098 108.473 91.0098C108.961 91.0098 109.479 90.9854 110.025 90.9365C110.572 90.8779 111.197 90.8047 111.9 90.7168L112.252 93.4414C111.568 93.5586 110.899 93.6465 110.245 93.7051C109.601 93.7637 108.912 93.793 108.18 93.793ZM101.5 86.1758V73.2852H104.605V86.1758H101.5ZM97.6035 80.6973V77.9727H111.666V80.6973H97.6035ZM121.891 86.8203L120.982 81.957H122.184C122.359 79.1055 123.785 77.6797 126.461 77.6797C128.062 77.6797 129.225 78.1387 129.947 79.0566C130.67 79.9746 131.031 81.459 131.031 83.5098H127.955C127.955 82.377 127.784 81.5615 127.442 81.0635C127.11 80.5654 126.568 80.3164 125.816 80.3164C124.498 80.3164 123.512 80.8828 122.857 82.0156C122.213 83.1387 121.891 84.7402 121.891 86.8203ZM115.328 93.5V90.7754H125.699V93.5H115.328ZM118.785 93.5V77.9727H121.305L121.891 82.4258V93.5H118.785ZM115.914 80.6973V77.9727H121.1L121.393 80.6973H115.914ZM140.523 93.793C138.375 93.793 136.705 93.0898 135.514 91.6836C134.322 90.2773 133.727 88.2949 133.727 85.7363C133.727 83.168 134.322 81.1855 135.514 79.7891C136.705 78.3828 138.375 77.6797 140.523 77.6797C142.682 77.6797 144.352 78.3828 145.533 79.7891C146.725 81.1855 147.32 83.168 147.32 85.7363C147.32 88.2949 146.725 90.2773 145.533 91.6836C144.352 93.0898 142.682 93.793 140.523 93.793ZM140.523 91.0098C141.666 91.0098 142.545 90.5508 143.16 89.6328C143.785 88.7148 144.098 87.416 144.098 85.7363C144.098 84.0469 143.785 82.748 143.16 81.8398C142.545 80.9219 141.666 80.4629 140.523 80.4629C139.381 80.4629 138.497 80.9219 137.872 81.8398C137.257 82.748 136.949 84.0469 136.949 85.7363C136.949 87.416 137.257 88.7148 137.872 89.6328C138.497 90.5508 139.381 91.0098 140.523 91.0098ZM156.9 93.793C155.729 93.793 154.723 93.7588 153.883 93.6904C153.053 93.6221 152.291 93.5098 151.598 93.3535L151.949 90.541C152.975 90.6973 153.878 90.8145 154.659 90.8926C155.45 90.9707 156.197 91.0098 156.9 91.0098C158.473 91.0098 159.61 90.8584 160.313 90.5557C161.026 90.2432 161.383 89.75 161.383 89.0762C161.383 88.6074 161.256 88.2607 161.002 88.0361C160.758 87.8018 160.377 87.6211 159.859 87.4941L156.285 86.5859C154.752 86.1953 153.624 85.7119 152.901 85.1357C152.188 84.5596 151.832 83.6855 151.832 82.5137C151.832 80.8145 152.481 79.584 153.78 78.8223C155.089 78.0605 157.193 77.6797 160.094 77.6797C160.846 77.6797 161.544 77.7041 162.188 77.7529C162.843 77.792 163.512 77.8652 164.195 77.9727L163.873 80.668C163.082 80.5898 162.384 80.5361 161.778 80.5068C161.173 80.4775 160.582 80.4629 160.006 80.4629C158.268 80.4629 157.008 80.6143 156.227 80.917C155.445 81.21 155.055 81.6934 155.055 82.3672C155.055 82.8164 155.216 83.1436 155.538 83.3486C155.86 83.5439 156.354 83.7246 157.018 83.8906L159.889 84.5938C161.52 84.9844 162.711 85.5068 163.463 86.1611C164.225 86.8154 164.605 87.7676 164.605 89.0176C164.605 90.6875 163.995 91.9033 162.774 92.665C161.554 93.417 159.596 93.793 156.9 93.793ZM186.93 100.238V77.9727H189.742L190.035 81.2539V100.238H186.93ZM194.444 93.793C193.253 93.793 192.291 93.5195 191.559 92.9727C190.836 92.4258 190.426 91.6641 190.328 90.6875H188.98L190.035 86.2637C190.035 87.8652 190.348 89.0811 190.973 89.9111C191.607 90.7412 192.535 91.1562 193.756 91.1562C195.006 91.1562 195.953 90.7119 196.598 89.8232C197.242 88.9346 197.564 87.6211 197.564 85.8828C197.564 84.0469 197.242 82.6602 196.598 81.7227C195.953 80.7852 195.006 80.3164 193.756 80.3164C192.535 80.3164 191.607 80.7314 190.973 81.5615C190.348 82.3916 190.035 83.6074 190.035 85.209L188.98 80.7852H190.182C190.318 79.8086 190.758 79.0469 191.5 78.5C192.252 77.9531 193.233 77.6797 194.444 77.6797C196.485 77.6797 198.028 78.373 199.073 79.7598C200.118 81.1465 200.641 83.1875 200.641 85.8828C200.641 88.4805 200.118 90.4482 199.073 91.7861C198.028 93.124 196.485 93.793 194.444 93.793ZM209.781 86.8203L208.873 81.957H210.074C210.25 79.1055 211.676 77.6797 214.352 77.6797C215.953 77.6797 217.115 78.1387 217.838 79.0566C218.561 79.9746 218.922 81.459 218.922 83.5098H215.846C215.846 82.377 215.675 81.5615 215.333 81.0635C215.001 80.5654 214.459 80.3164 213.707 80.3164C212.389 80.3164 211.402 80.8828 210.748 82.0156C210.104 83.1387 209.781 84.7402 209.781 86.8203ZM203.219 93.5V90.7754H213.59V93.5H203.219ZM206.676 93.5V77.9727H209.195L209.781 82.4258V93.5H206.676ZM203.805 80.6973V77.9727H208.99L209.283 80.6973H203.805ZM228.414 93.793C226.266 93.793 224.596 93.0898 223.404 91.6836C222.213 90.2773 221.617 88.2949 221.617 85.7363C221.617 83.168 222.213 81.1855 223.404 79.7891C224.596 78.3828 226.266 77.6797 228.414 77.6797C230.572 77.6797 232.242 78.3828 233.424 79.7891C234.615 81.1855 235.211 83.168 235.211 85.7363C235.211 88.2949 234.615 90.2773 233.424 91.6836C232.242 93.0898 230.572 93.793 228.414 93.793ZM228.414 91.0098C229.557 91.0098 230.436 90.5508 231.051 89.6328C231.676 88.7148 231.988 87.416 231.988 85.7363C231.988 84.0469 231.676 82.748 231.051 81.8398C230.436 80.9219 229.557 80.4629 228.414 80.4629C227.271 80.4629 226.388 80.9219 225.763 81.8398C225.147 82.748 224.84 84.0469 224.84 85.7363C224.84 87.416 225.147 88.7148 225.763 89.6328C226.388 90.5508 227.271 91.0098 228.414 91.0098ZM238.302 100.531L238.155 97.748L240.587 97.4551C241.612 97.3281 242.486 97.0498 243.209 96.6201C243.941 96.1904 244.566 95.5508 245.084 94.7012C245.602 93.8613 246.056 92.7578 246.446 91.3906L250.313 77.9727H253.536L249.054 92.123C248.468 93.9785 247.809 95.4727 247.076 96.6055C246.354 97.7383 245.494 98.5879 244.498 99.1543C243.512 99.7207 242.325 100.082 240.938 100.238L238.302 100.531ZM244.19 93.5L238.009 77.9727H241.231L246.3 91.1562H246.769V93.5H244.19ZM264.918 93.793C262.271 93.793 260.226 93.0996 258.78 91.7129C257.345 90.3164 256.627 88.3145 256.627 85.707C256.627 83.168 257.237 81.1953 258.458 79.7891C259.679 78.3828 261.402 77.6797 263.629 77.6797C265.729 77.6797 267.35 78.3145 268.492 79.584C269.645 80.8535 270.221 82.6992 270.221 85.1211C270.221 85.834 270.191 86.498 270.133 87.1133H259.234V84.7402H267.408C267.408 83.3438 267.076 82.2744 266.412 81.5322C265.748 80.7803 264.83 80.4043 263.658 80.4043C262.34 80.4043 261.314 80.8535 260.582 81.752C259.859 82.6504 259.498 83.9199 259.498 85.5605C259.498 87.3574 259.996 88.7246 260.992 89.6621C261.998 90.5996 263.424 91.0684 265.27 91.0684C265.914 91.0684 266.549 91.0342 267.174 90.9658C267.799 90.8877 268.434 90.7852 269.078 90.6582L269.459 93.3828C268.541 93.5586 267.701 93.6709 266.939 93.7197C266.178 93.7686 265.504 93.793 264.918 93.793ZM282.643 93.793C279.996 93.793 277.95 93.0996 276.505 91.7129C275.069 90.3164 274.352 88.3145 274.352 85.707C274.352 83.168 275.03 81.1953 276.388 79.7891C277.755 78.3828 279.703 77.6797 282.232 77.6797C283.746 77.6797 285.04 77.9629 286.114 78.5293C287.198 79.0859 287.97 79.877 288.429 80.9023L286.041 82.7041C285.602 81.9912 285.04 81.4395 284.356 81.0488C283.673 80.6582 282.926 80.4629 282.115 80.4629C280.65 80.4629 279.513 80.9072 278.702 81.7959C277.892 82.6748 277.486 83.9297 277.486 85.5605C277.486 87.3281 277.96 88.6807 278.907 89.6182C279.864 90.5459 281.227 91.0098 282.994 91.0098C283.717 91.0098 284.439 90.9756 285.162 90.9072C285.885 90.8389 286.588 90.7461 287.271 90.6289L287.623 93.3535C286.822 93.5293 285.992 93.6465 285.133 93.7051C284.283 93.7637 283.453 93.793 282.643 93.793ZM301.539 93.793C299.186 93.793 297.481 93.3047 296.427 92.3281C295.382 91.3516 294.859 89.7891 294.859 87.6406V85.0039H297.965V87.4941C297.965 88.7246 298.263 89.6182 298.858 90.1748C299.464 90.7314 300.455 91.0098 301.832 91.0098C302.32 91.0098 302.838 90.9854 303.385 90.9365C303.932 90.8779 304.557 90.8047 305.26 90.7168L305.611 93.4414C304.928 93.5586 304.259 93.6465 303.604 93.7051C302.96 93.7637 302.271 93.793 301.539 93.793ZM294.859 86.1758V73.2852H297.965V86.1758H294.859ZM290.963 80.6973V77.9727H305.025V80.6973H290.963ZM316.305 93.793C314.156 93.793 312.486 93.0898 311.295 91.6836C310.104 90.2773 309.508 88.2949 309.508 85.7363C309.508 83.168 310.104 81.1855 311.295 79.7891C312.486 78.3828 314.156 77.6797 316.305 77.6797C318.463 77.6797 320.133 78.3828 321.314 79.7891C322.506 81.1855 323.102 83.168 323.102 85.7363C323.102 88.2949 322.506 90.2773 321.314 91.6836C320.133 93.0898 318.463 93.793 316.305 93.793ZM316.305 91.0098C317.447 91.0098 318.326 90.5508 318.941 89.6328C319.566 88.7148 319.879 87.416 319.879 85.7363C319.879 84.0469 319.566 82.748 318.941 81.8398C318.326 80.9219 317.447 80.4629 316.305 80.4629C315.162 80.4629 314.278 80.9219 313.653 81.8398C313.038 82.748 312.73 84.0469 312.73 85.7363C312.73 87.416 313.038 88.7148 313.653 89.6328C314.278 90.5508 315.162 91.0098 316.305 91.0098ZM332.682 93.793C331.51 93.793 330.504 93.7588 329.664 93.6904C328.834 93.6221 328.072 93.5098 327.379 93.3535L327.73 90.541C328.756 90.6973 329.659 90.8145 330.44 90.8926C331.231 90.9707 331.979 91.0098 332.682 91.0098C334.254 91.0098 335.392 90.8584 336.095 90.5557C336.808 90.2432 337.164 89.75 337.164 89.0762C337.164 88.6074 337.037 88.2607 336.783 88.0361C336.539 87.8018 336.158 87.6211 335.641 87.4941L332.066 86.5859C330.533 86.1953 329.405 85.7119 328.683 85.1357C327.97 84.5596 327.613 83.6855 327.613 82.5137C327.613 80.8145 328.263 79.584 329.562 78.8223C330.87 78.0605 332.975 77.6797 335.875 77.6797C336.627 77.6797 337.325 77.7041 337.97 77.7529C338.624 77.792 339.293 77.8652 339.977 77.9727L339.654 80.668C338.863 80.5898 338.165 80.5361 337.56 80.5068C336.954 80.4775 336.363 80.4629 335.787 80.4629C334.049 80.4629 332.789 80.6143 332.008 80.917C331.227 81.21 330.836 81.6934 330.836 82.3672C330.836 82.8164 330.997 83.1436 331.319 83.3486C331.642 83.5439 332.135 83.7246 332.799 83.8906L335.67 84.5938C337.301 84.9844 338.492 85.5068 339.244 86.1611C340.006 86.8154 340.387 87.7676 340.387 89.0176C340.387 90.6875 339.776 91.9033 338.556 92.665C337.335 93.417 335.377 93.793 332.682 93.793Z" fill="#362E2E"/>
<g clip-path="url(#clip0_424_137)">
<path d="M387.354 73.1016L370.663 66.0369L353 73.5123V81.8737L354.409 82.4705V94.2155L370.352 100.963L386.591 94.09V82.3326L388 81.7363V73.3749L387.354 73.1016ZM369.441 98.2795L356.526 92.8134V82.826L369.441 88.2921V98.2795ZM369.441 86.5686L356.526 81.1019V81.0683L355.116 80.4716V75.8755L369.441 81.9389V86.5686H369.441ZM370.234 80.5512L356.017 74.5332L370.663 68.335L384.879 74.3524L370.234 80.5512ZM384.474 92.6878L371.028 98.3787V88.2921L384.474 82.6002V92.6878ZM385.884 80.2804L371.028 86.5686V81.9389L385.884 75.6513V80.2804Z" fill="#C77009"/>
</g>
<defs>
<clipPath id="clip0_424_137">
<rect width="35" height="35" fill="white" transform="translate(353 66)"/>
</clipPath>
</defs>
</svg>
