<svg width="421" height="183" viewBox="0 0 421 183" fill="none" xmlns="http://www.w3.org/2000/svg">
<rect width="421" height="183" rx="10" fill="#A9C0E0"/>
<path d="M52.6406 106.984C52.2969 106.984 52.0469 106.922 51.8906 106.797C51.7344 106.672 51.6562 106.458 51.6562 106.156V101.984C51.375 101.786 50.8542 101.615 50.0938 101.469C49.3438 101.312 48.6198 101.214 47.9219 101.172C47.7135 101.526 47.5365 102.068 47.3906 102.797L47.2969 103.281C47.1302 104.135 46.9792 104.828 46.8438 105.359C46.7083 105.891 46.5417 106.318 46.3438 106.641C45.5208 106.641 45.0521 106.427 44.9375 106C45.1354 105.719 45.401 104.719 45.7344 103C46.0156 101.531 46.3646 99.5781 46.7812 97.1406C47.2604 94.3073 47.6979 91.9271 48.0938 90C48.4896 88.0625 48.9062 86.4323 49.3438 85.1094C49.8229 83.6302 50.2917 82.8906 50.75 82.8906C51.1979 82.8906 51.5417 82.9844 51.7812 83.1719C51.7812 83.9635 51.9896 86.0208 52.4062 89.3438C52.8229 92.6667 53.0312 94.8542 53.0312 95.9062C53.0312 96.9062 53.1458 98.5208 53.375 100.75C53.5938 103.042 53.7031 104.76 53.7031 105.906C53.7031 106.625 53.349 106.984 52.6406 106.984ZM50.9688 100.109C51.1562 100.109 51.375 100.078 51.625 100.016C51.5938 99.5573 51.4844 98.3958 51.2969 96.5312C50.8073 91.5938 50.5625 88.6458 50.5625 87.6875C50.5625 87.5312 50.5677 87.4375 50.5781 87.4062C50.3698 87.6146 50.0781 88.5781 49.7031 90.2969C49.3281 92.0156 48.9792 93.8646 48.6562 95.8438C48.3333 97.8125 48.1562 99.1146 48.125 99.75C49.0312 99.9896 49.9792 100.109 50.9688 100.109ZM61.9531 86.0312C62.5156 85.8021 63.1771 85.6875 63.9375 85.6875C64.2604 85.6875 64.5052 85.7656 64.6719 85.9219C64.8385 86.0677 64.9219 86.2604 64.9219 86.5C64.9219 86.7188 64.8542 86.9115 64.7188 87.0781C64.5833 87.2448 64.4219 87.3333 64.2344 87.3438H62.7344C62.3177 87.3438 61.9479 87.6146 61.625 88.1562C61.3021 88.6875 61.0677 89.3802 60.9219 90.2344C60.651 91.8177 60.5156 93.099 60.5156 94.0781V94.2344C60.5156 95.0781 60.4948 96.1042 60.4531 97.3125C60.401 98.8438 60.375 99.875 60.375 100.406C60.375 101.135 60.4115 101.797 60.4844 102.391C60.5365 102.786 60.599 103.135 60.6719 103.438C60.7552 103.729 60.875 104.021 61.0312 104.312C61.1771 104.625 61.3542 104.88 61.5625 105.078C61.7708 105.276 62.0312 105.438 62.3438 105.562C62.6458 105.698 63 105.766 63.4062 105.766C63.6667 105.766 63.8958 105.672 64.0938 105.484C64.3646 105.484 64.5938 105.547 64.7812 105.672C64.9688 105.786 65.0625 105.958 65.0625 106.188C65.0625 107.031 64.474 107.453 63.2969 107.453C62.8385 107.453 62.3438 107.38 61.8125 107.234C61.2812 107.099 60.8802 106.948 60.6094 106.781C59.1927 105.865 58.4844 103.359 58.4844 99.2656V98.4062C58.474 98.125 58.4688 97.7865 58.4688 97.3906V96.625C58.4688 95.6042 58.4792 94.8073 58.5 94.2344C58.5208 93.6615 58.5625 92.9635 58.625 92.1406C58.6875 91.3177 58.7865 90.6406 58.9219 90.1094C59.0573 89.5781 59.2656 88.9844 59.5469 88.3281C59.8073 87.724 60.1198 87.25 60.4844 86.9062C60.8594 86.5625 61.349 86.2708 61.9531 86.0312ZM72.8594 105.25L72.8281 104.031L72.875 102.938C72.7917 102.688 72.625 100.333 72.375 95.875C72.125 91.4062 71.9844 88.5781 71.9531 87.3906C70.724 87.3594 69.9271 87.224 69.5625 86.9844C69.3438 86.8385 69.2344 86.6562 69.2344 86.4375C69.2344 86.25 69.3438 86.0885 69.5625 85.9531C69.7812 85.8177 70.0104 85.75 70.25 85.75C70.7292 85.75 71.4531 85.7969 72.4219 85.8906C73.349 85.9948 74.0729 86.0469 74.5938 86.0469C74.6875 86.0469 74.7708 86.0417 74.8438 86.0312H75.1094C75.776 86.0312 76.1094 86.2865 76.1094 86.7969C76.1094 87.0469 76 87.2552 75.7812 87.4219C75.5729 87.5885 75.3281 87.6719 75.0469 87.6719C74.8281 87.6719 74.5521 87.6354 74.2188 87.5625L73.5781 87.4531L73.5469 87.5938L73.5156 87.7812C73.5156 89.8646 73.6927 92.8906 74.0469 96.8594C74.401 100.828 74.5781 103.859 74.5781 105.953C74.5781 106.203 74.4635 106.427 74.2344 106.625C74.0156 106.812 73.7656 106.906 73.4844 106.906L72.8906 106.484L72.8594 105.25ZM86.7188 106.234C86.7188 105.557 86.6042 104.469 86.375 102.969L86.25 102.281L83.0938 101.812C82.9167 102.427 82.7396 103.417 82.5625 104.781C82.4271 105.833 82.224 106.526 81.9531 106.859C81.776 107.068 81.5573 107.172 81.2969 107.172C81.0365 107.172 80.8021 107.089 80.5938 106.922C80.3854 106.755 80.2812 106.552 80.2812 106.312C80.2812 106.281 80.2969 106.229 80.3281 106.156L80.3594 106.031C81.7865 100.521 82.8542 95.1146 83.5625 89.8125C83.6042 89.3542 83.6406 88.9219 83.6719 88.5156C83.724 87.724 83.7917 87.0938 83.875 86.625C83.9583 86.1458 84.0833 85.7865 84.25 85.5469H85.3281C85.6406 85.5469 85.901 85.6198 86.1094 85.7656C86.3177 85.901 86.4219 86.099 86.4219 86.3594C86.4219 87.9844 86.6406 90.3958 87.0781 93.5938C87.5052 96.8333 87.7188 99.1354 87.7188 100.5C87.7188 100.677 87.776 101.005 87.8906 101.484C88.0052 101.964 88.0625 102.292 88.0625 102.469C88.0625 102.698 88.1667 103.333 88.375 104.375C88.5729 105.365 88.6719 106.026 88.6719 106.359V106.391C88.6719 106.859 88.4948 107.161 88.1406 107.297C87.6615 107.297 87.3021 107.219 87.0625 107.062C86.8333 106.906 86.7188 106.63 86.7188 106.234ZM83.2188 100.625C83.5729 100.854 84.5156 101.026 86.0469 101.141C85.9844 100.828 85.9531 100.432 85.9531 99.9531C85.9531 98.9427 85.9115 97.8854 85.8281 96.7812C85.7448 95.6667 85.6146 94.2708 85.4375 92.5938C85.2917 91.3333 85.1771 90.2292 85.0938 89.2812C84.125 94.6458 83.5 98.4271 83.2188 100.625ZM95.4062 88.3594C95.1875 89.0573 95.0781 89.6719 95.0781 90.2031C95.0781 90.8177 95.1667 91.4427 95.3438 92.0781C95.5312 92.7135 95.776 93.2865 96.0781 93.7969C96.8594 95.1823 97.474 96.3125 97.9219 97.1875C98.2135 97.7708 98.4479 98.4583 98.625 99.25C98.8125 100.042 98.9062 100.844 98.9062 101.656C98.9062 102.948 98.6094 104.182 98.0156 105.359C97.7135 105.964 97.2917 106.448 96.75 106.812C96.2083 107.167 95.6042 107.349 94.9375 107.359V107.438C94.5417 107.375 94.2135 107.234 93.9531 107.016C93.6927 106.807 93.5417 106.536 93.5 106.203L93.8594 105.656C94.1719 105.719 94.3698 105.76 94.4531 105.781C94.7448 105.854 94.9896 105.891 95.1875 105.891C95.5833 105.891 95.9323 105.719 96.2344 105.375C96.5365 105.031 96.7656 104.583 96.9219 104.031C97.2031 103.021 97.3438 102.099 97.3438 101.266C97.3438 100.557 97.2188 99.8229 96.9688 99.0625C96.7292 98.2917 96.4062 97.5469 96 96.8281L95.7031 96.3125C95.2656 95.5625 94.9062 94.9115 94.625 94.3594C94.3438 93.7969 94.1042 93.1927 93.9062 92.5469C93.6458 91.7344 93.5156 90.8958 93.5156 90.0312C93.5156 89.0625 93.7344 88.0885 94.1719 87.1094C94.3906 86.599 94.6927 86.1927 95.0781 85.8906C95.474 85.5781 95.9167 85.4219 96.4062 85.4219C96.8021 85.4219 97.1615 85.5469 97.4844 85.7969C97.8177 86.0365 97.9844 86.3333 97.9844 86.6875C97.9844 86.875 97.9062 87.026 97.75 87.1406C97.5938 87.2448 97.4115 87.2969 97.2031 87.2969C96.974 87.2969 96.75 87.2344 96.5312 87.1094C96.2917 87.1198 96.0729 87.2396 95.875 87.4688C95.6771 87.6979 95.5208 87.9948 95.4062 88.3594ZM119.031 99.7656C119.083 101.453 119.109 102.583 119.109 103.156V104.109V104.562C119.099 104.698 119.094 104.844 119.094 105H119.516C119.661 105 119.802 104.995 119.938 104.984C120.073 104.974 120.24 104.969 120.438 104.969C121.312 104.969 121.75 105.234 121.75 105.766C121.75 106.036 121.641 106.271 121.422 106.469C121.214 106.656 120.969 106.75 120.688 106.75H119.281C118.281 106.75 117.661 106.729 117.422 106.688L117.031 106.719C116.271 106.719 115.891 106.479 115.891 106C115.891 105.812 115.953 105.63 116.078 105.453C116.203 105.266 116.328 105.167 116.453 105.156H117.359L117.391 104.953L117.422 104.734C117.422 103.88 117.385 102.745 117.312 101.328C117.24 99.9115 117.203 98.7812 117.203 97.9375C117.203 97.1354 117.234 95.9479 117.297 94.375C117.349 92.625 117.375 91.4375 117.375 90.8125C117.375 89.5521 117.323 88.4062 117.219 87.375H116.609C116.484 87.375 116.365 87.3802 116.25 87.3906C116.135 87.401 116.01 87.4062 115.875 87.4062C115.542 87.4062 115.292 87.3438 115.125 87.2188C114.958 87.0938 114.875 86.8698 114.875 86.5469C114.875 86.0573 115.401 85.8125 116.453 85.8125H120.266C120.724 85.8125 121.052 85.875 121.25 86C121.458 86.1458 121.562 86.3073 121.562 86.4844C121.562 86.6823 121.469 86.8646 121.281 87.0312C121.094 87.1979 120.88 87.2812 120.641 87.2812H119C119.083 88.2188 119.125 89.2083 119.125 90.25C119.125 90.7708 119.099 91.7865 119.047 93.2969C118.984 94.651 118.953 95.6719 118.953 96.3594C118.953 96.9427 118.979 98.0781 119.031 99.7656ZM129.516 105.25L129.484 104.031L129.531 102.938C129.448 102.688 129.281 100.333 129.031 95.875C128.781 91.4062 128.641 88.5781 128.609 87.3906C127.38 87.3594 126.583 87.224 126.219 86.9844C126 86.8385 125.891 86.6562 125.891 86.4375C125.891 86.25 126 86.0885 126.219 85.9531C126.438 85.8177 126.667 85.75 126.906 85.75C127.385 85.75 128.109 85.7969 129.078 85.8906C130.005 85.9948 130.729 86.0469 131.25 86.0469C131.344 86.0469 131.427 86.0417 131.5 86.0312H131.766C132.432 86.0312 132.766 86.2865 132.766 86.7969C132.766 87.0469 132.656 87.2552 132.438 87.4219C132.229 87.5885 131.984 87.6719 131.703 87.6719C131.484 87.6719 131.208 87.6354 130.875 87.5625L130.234 87.4531L130.203 87.5938L130.172 87.7812C130.172 89.8646 130.349 92.8906 130.703 96.8594C131.057 100.828 131.234 103.859 131.234 105.953C131.234 106.203 131.12 106.427 130.891 106.625C130.672 106.812 130.422 106.906 130.141 106.906L129.547 106.484L129.516 105.25ZM143.375 106.234C143.375 105.557 143.26 104.469 143.031 102.969L142.906 102.281L139.75 101.812C139.573 102.427 139.396 103.417 139.219 104.781C139.083 105.833 138.88 106.526 138.609 106.859C138.432 107.068 138.214 107.172 137.953 107.172C137.693 107.172 137.458 107.089 137.25 106.922C137.042 106.755 136.938 106.552 136.938 106.312C136.938 106.281 136.953 106.229 136.984 106.156L137.016 106.031C138.443 100.521 139.51 95.1146 140.219 89.8125C140.26 89.3542 140.297 88.9219 140.328 88.5156C140.38 87.724 140.448 87.0938 140.531 86.625C140.615 86.1458 140.74 85.7865 140.906 85.5469H141.984C142.297 85.5469 142.557 85.6198 142.766 85.7656C142.974 85.901 143.078 86.099 143.078 86.3594C143.078 87.9844 143.297 90.3958 143.734 93.5938C144.161 96.8333 144.375 99.1354 144.375 100.5C144.375 100.677 144.432 101.005 144.547 101.484C144.661 101.964 144.719 102.292 144.719 102.469C144.719 102.698 144.823 103.333 145.031 104.375C145.229 105.365 145.328 106.026 145.328 106.359V106.391C145.328 106.859 145.151 107.161 144.797 107.297C144.318 107.297 143.958 107.219 143.719 107.062C143.49 106.906 143.375 106.63 143.375 106.234ZM139.875 100.625C140.229 100.854 141.172 101.026 142.703 101.141C142.641 100.828 142.609 100.432 142.609 99.9531C142.609 98.9427 142.568 97.8854 142.484 96.7812C142.401 95.6667 142.271 94.2708 142.094 92.5938C141.948 91.3333 141.833 90.2292 141.75 89.2812C140.781 94.6458 140.156 98.4271 139.875 100.625ZM152.172 96.75C152.047 97.0417 151.984 97.4896 151.984 98.0938V98.4844C151.984 99.1823 151.964 100.026 151.922 101.016C151.88 102.005 151.859 102.859 151.859 103.578C151.859 105.047 152.219 105.781 152.938 105.781L153.531 105.75C153.729 105.74 153.974 105.734 154.266 105.734C155.411 105.734 155.984 106.047 155.984 106.672C155.984 106.891 155.885 107.078 155.688 107.234C155.5 107.391 155.276 107.484 155.016 107.516C154.234 107.266 153.281 107.141 152.156 107.141C151.823 107.339 151.458 107.438 151.062 107.438C150.823 107.438 150.609 107.328 150.422 107.109C150.245 106.891 150.156 106.651 150.156 106.391C150.156 104.693 150.224 102.307 150.359 99.2344C150.495 96.1823 150.562 93.8021 150.562 92.0938V91.8594C150.438 90.526 150.375 89.526 150.375 88.8594C150.375 86.8385 150.745 85.8281 151.484 85.8281C151.703 85.8281 151.891 85.9062 152.047 86.0625C152.214 86.2188 152.297 86.4062 152.297 86.625C152.297 86.9271 152.26 87.3333 152.188 87.8438C152.115 88.3542 152.078 88.7604 152.078 89.0625C152.078 89.9167 152.094 91.1979 152.125 92.9062C152.156 94.6042 152.172 95.8854 152.172 96.75ZM164.188 99.7656C164.24 101.453 164.266 102.583 164.266 103.156V104.109V104.562C164.255 104.698 164.25 104.844 164.25 105H164.672C164.818 105 164.958 104.995 165.094 104.984C165.229 104.974 165.396 104.969 165.594 104.969C166.469 104.969 166.906 105.234 166.906 105.766C166.906 106.036 166.797 106.271 166.578 106.469C166.37 106.656 166.125 106.75 165.844 106.75H164.438C163.438 106.75 162.818 106.729 162.578 106.688L162.188 106.719C161.427 106.719 161.047 106.479 161.047 106C161.047 105.812 161.109 105.63 161.234 105.453C161.359 105.266 161.484 105.167 161.609 105.156H162.516L162.547 104.953L162.578 104.734C162.578 103.88 162.542 102.745 162.469 101.328C162.396 99.9115 162.359 98.7812 162.359 97.9375C162.359 97.1354 162.391 95.9479 162.453 94.375C162.505 92.625 162.531 91.4375 162.531 90.8125C162.531 89.5521 162.479 88.4062 162.375 87.375H161.766C161.641 87.375 161.521 87.3802 161.406 87.3906C161.292 87.401 161.167 87.4062 161.031 87.4062C160.698 87.4062 160.448 87.3438 160.281 87.2188C160.115 87.0938 160.031 86.8698 160.031 86.5469C160.031 86.0573 160.557 85.8125 161.609 85.8125H165.422C165.88 85.8125 166.208 85.875 166.406 86C166.615 86.1458 166.719 86.3073 166.719 86.4844C166.719 86.6823 166.625 86.8646 166.438 87.0312C166.25 87.1979 166.036 87.2812 165.797 87.2812H164.156C164.24 88.2188 164.281 89.2083 164.281 90.25C164.281 90.7708 164.255 91.7865 164.203 93.2969C164.141 94.651 164.109 95.6719 164.109 96.3594C164.109 96.9427 164.135 98.0781 164.188 99.7656ZM177.875 106.234C177.875 105.557 177.76 104.469 177.531 102.969L177.406 102.281L174.25 101.812C174.073 102.427 173.896 103.417 173.719 104.781C173.583 105.833 173.38 106.526 173.109 106.859C172.932 107.068 172.714 107.172 172.453 107.172C172.193 107.172 171.958 107.089 171.75 106.922C171.542 106.755 171.438 106.552 171.438 106.312C171.438 106.281 171.453 106.229 171.484 106.156L171.516 106.031C172.943 100.521 174.01 95.1146 174.719 89.8125C174.76 89.3542 174.797 88.9219 174.828 88.5156C174.88 87.724 174.948 87.0938 175.031 86.625C175.115 86.1458 175.24 85.7865 175.406 85.5469H176.484C176.797 85.5469 177.057 85.6198 177.266 85.7656C177.474 85.901 177.578 86.099 177.578 86.3594C177.578 87.9844 177.797 90.3958 178.234 93.5938C178.661 96.8333 178.875 99.1354 178.875 100.5C178.875 100.677 178.932 101.005 179.047 101.484C179.161 101.964 179.219 102.292 179.219 102.469C179.219 102.698 179.323 103.333 179.531 104.375C179.729 105.365 179.828 106.026 179.828 106.359V106.391C179.828 106.859 179.651 107.161 179.297 107.297C178.818 107.297 178.458 107.219 178.219 107.062C177.99 106.906 177.875 106.63 177.875 106.234ZM174.375 100.625C174.729 100.854 175.672 101.026 177.203 101.141C177.141 100.828 177.109 100.432 177.109 99.9531C177.109 98.9427 177.068 97.8854 176.984 96.7812C176.901 95.6667 176.771 94.2708 176.594 92.5938C176.448 91.3333 176.333 90.2292 176.25 89.2812C175.281 94.6458 174.656 98.4271 174.375 100.625ZM191.844 100.344C192.427 102.406 192.797 103.641 192.953 104.047C193.38 99.526 193.594 94.1146 193.594 87.8125C193.594 87.6667 193.589 87.526 193.578 87.3906L193.547 86.9531C193.547 86.3177 193.812 86 194.344 86C194.635 86 194.859 86.1198 195.016 86.3594C195.172 86.599 195.25 86.8958 195.25 87.25V89.6719C195.229 91.5573 195.167 93.7917 195.062 96.375C194.969 98.9583 194.833 101.266 194.656 103.297C194.49 105.318 194.302 106.495 194.094 106.828C193.5 107.005 193.125 107.094 192.969 107.094C192.698 107.094 192.5 107.026 192.375 106.891C192.25 106.745 192.151 106.505 192.078 106.172C192.005 105.87 191.943 105.661 191.891 105.547L191.906 105.484V105.406C191.906 104.917 191.552 103.599 190.844 101.453C190.135 99.3073 189.318 96.9948 188.391 94.5156C187.474 92.0365 186.771 90.2344 186.281 89.1094V105.219C186.281 105.219 186.323 105.292 186.406 105.438C186.542 105.656 186.609 105.833 186.609 105.969C186.609 106.24 186.51 106.474 186.312 106.672C186.125 106.87 185.901 106.969 185.641 106.969C184.943 106.969 184.594 106.318 184.594 105.016L184.562 99.5312L184.531 94.0469C184.531 93.3802 184.562 92.3854 184.625 91.0625C184.688 89.7292 184.719 88.7344 184.719 88.0781C184.719 87.0781 185.109 86.2917 185.891 85.7188V85.9219C185.974 85.8698 186.052 85.8438 186.125 85.8438C186.625 85.8438 187.25 86.7031 188 88.4219C188.583 89.7656 189.125 91.2344 189.625 92.8281C190.135 94.4219 190.719 96.3802 191.375 98.7031L191.844 100.344ZM206.219 106.234C206.219 105.557 206.104 104.469 205.875 102.969L205.75 102.281L202.594 101.812C202.417 102.427 202.24 103.417 202.062 104.781C201.927 105.833 201.724 106.526 201.453 106.859C201.276 107.068 201.057 107.172 200.797 107.172C200.536 107.172 200.302 107.089 200.094 106.922C199.885 106.755 199.781 106.552 199.781 106.312C199.781 106.281 199.797 106.229 199.828 106.156L199.859 106.031C201.286 100.521 202.354 95.1146 203.062 89.8125C203.104 89.3542 203.141 88.9219 203.172 88.5156C203.224 87.724 203.292 87.0938 203.375 86.625C203.458 86.1458 203.583 85.7865 203.75 85.5469H204.828C205.141 85.5469 205.401 85.6198 205.609 85.7656C205.818 85.901 205.922 86.099 205.922 86.3594C205.922 87.9844 206.141 90.3958 206.578 93.5938C207.005 96.8333 207.219 99.1354 207.219 100.5C207.219 100.677 207.276 101.005 207.391 101.484C207.505 101.964 207.562 102.292 207.562 102.469C207.562 102.698 207.667 103.333 207.875 104.375C208.073 105.365 208.172 106.026 208.172 106.359V106.391C208.172 106.859 207.995 107.161 207.641 107.297C207.161 107.297 206.802 107.219 206.562 107.062C206.333 106.906 206.219 106.63 206.219 106.234ZM202.719 100.625C203.073 100.854 204.016 101.026 205.547 101.141C205.484 100.828 205.453 100.432 205.453 99.9531C205.453 98.9427 205.411 97.8854 205.328 96.7812C205.245 95.6667 205.115 94.2708 204.938 92.5938C204.792 91.3333 204.677 90.2292 204.594 89.2812C203.625 94.6458 203 98.4271 202.719 100.625ZM214.906 88.3594C214.688 89.0573 214.578 89.6719 214.578 90.2031C214.578 90.8177 214.667 91.4427 214.844 92.0781C215.031 92.7135 215.276 93.2865 215.578 93.7969C216.359 95.1823 216.974 96.3125 217.422 97.1875C217.714 97.7708 217.948 98.4583 218.125 99.25C218.312 100.042 218.406 100.844 218.406 101.656C218.406 102.948 218.109 104.182 217.516 105.359C217.214 105.964 216.792 106.448 216.25 106.812C215.708 107.167 215.104 107.349 214.438 107.359V107.438C214.042 107.375 213.714 107.234 213.453 107.016C213.193 106.807 213.042 106.536 213 106.203L213.359 105.656C213.672 105.719 213.87 105.76 213.953 105.781C214.245 105.854 214.49 105.891 214.688 105.891C215.083 105.891 215.432 105.719 215.734 105.375C216.036 105.031 216.266 104.583 216.422 104.031C216.703 103.021 216.844 102.099 216.844 101.266C216.844 100.557 216.719 99.8229 216.469 99.0625C216.229 98.2917 215.906 97.5469 215.5 96.8281L215.203 96.3125C214.766 95.5625 214.406 94.9115 214.125 94.3594C213.844 93.7969 213.604 93.1927 213.406 92.5469C213.146 91.7344 213.016 90.8958 213.016 90.0312C213.016 89.0625 213.234 88.0885 213.672 87.1094C213.891 86.599 214.193 86.1927 214.578 85.8906C214.974 85.5781 215.417 85.4219 215.906 85.4219C216.302 85.4219 216.661 85.5469 216.984 85.7969C217.318 86.0365 217.484 86.3333 217.484 86.6875C217.484 86.875 217.406 87.026 217.25 87.1406C217.094 87.2448 216.911 87.2969 216.703 87.2969C216.474 87.2969 216.25 87.2344 216.031 87.1094C215.792 87.1198 215.573 87.2396 215.375 87.4688C215.177 87.6979 215.021 87.9948 214.906 88.3594ZM239.406 86.5938C239.865 86.8021 240.094 87.0365 240.094 87.2969C240.094 87.5156 240.005 87.7135 239.828 87.8906C239.651 88.0573 239.427 88.1927 239.156 88.2969C238.177 87.974 237.37 87.7708 236.734 87.6875C236.766 88.1354 236.781 88.5938 236.781 89.0625C236.781 89.6875 236.76 90.4531 236.719 91.3594C236.667 92.4844 236.641 93.25 236.641 93.6562L236.734 94.1562L237.25 94.125C237.427 94.1146 237.635 94.1094 237.875 94.1094C238.906 94.1094 239.422 94.401 239.422 94.9844C239.422 95.2135 239.323 95.4167 239.125 95.5938C238.938 95.7604 238.698 95.8438 238.406 95.8438C238.094 95.8438 237.792 95.8229 237.5 95.7812H236.688C236.75 96.5938 236.781 97.401 236.781 98.2031C236.781 98.974 236.76 99.9375 236.719 101.094C236.667 102.531 236.641 103.5 236.641 104C236.641 105.198 236.661 105.797 236.703 105.797L237.75 105.75L239.062 105.719C239.875 105.719 240.281 105.979 240.281 106.5C240.281 106.802 240.146 107.031 239.875 107.188C239.615 107.344 239.292 107.422 238.906 107.422H236.203C235.911 107.422 235.651 107.323 235.422 107.125C235.203 106.938 235.089 106.708 235.078 106.438V105.594C235.078 105.365 235.073 105.151 235.062 104.953L235.031 104.281C235.031 103.938 235.005 103.255 234.953 102.234C234.901 101.224 234.875 100.542 234.875 100.188C234.875 99.0104 234.911 97.4531 234.984 95.5156C235.057 93.5781 235.094 92.0208 235.094 90.8438C235.094 90.6146 235.068 90.1615 235.016 89.4844C234.953 88.8906 234.922 88.4427 234.922 88.1406C234.922 86.6302 235.37 85.875 236.266 85.875C236.672 85.875 237.182 85.9427 237.797 86.0781C238.422 86.2031 238.958 86.375 239.406 86.5938ZM248.344 91.8281L248.547 93.0312C248.568 92.8854 248.615 92.6198 248.688 92.2344C248.698 92.1615 248.708 92.099 248.719 92.0469C248.729 91.9948 248.74 91.9479 248.75 91.9062C248.854 91.3333 248.922 90.8958 248.953 90.5938C249.036 89.9062 249.078 89.3438 249.078 88.9062V88.3594C249.068 88.2031 249.062 88.0365 249.062 87.8594C249.062 87.2656 249.161 86.8125 249.359 86.5C249.557 86.1771 249.938 85.9427 250.5 85.7969L251.094 86.5469C250.938 86.7865 250.812 87.0729 250.719 87.4062C250.625 87.7396 250.573 88.0365 250.562 88.2969C250.552 88.4531 250.547 88.7865 250.547 89.2969V89.6719C250.297 90.3385 250.031 91.5208 249.75 93.2188C249.469 94.9167 249.328 96.1458 249.328 96.9062C249.328 97.5312 249.464 98.3385 249.734 99.3281C250.005 100.318 250.401 101.604 250.922 103.188L251.062 103.625C251.448 104.781 251.641 105.625 251.641 106.156C251.641 106.375 251.552 106.562 251.375 106.719C251.208 106.875 251.01 106.953 250.781 106.953C250.604 106.953 250.427 106.854 250.25 106.656C250.083 106.458 249.932 106.182 249.797 105.828C249.495 105.047 249.26 104.234 249.094 103.391C248.875 102.297 248.724 101.5 248.641 101L248.5 100.234C248.448 100.547 248.354 101.344 248.219 102.625C248.083 103.844 247.906 104.818 247.688 105.547C247.698 105.599 247.703 105.724 247.703 105.922C247.703 106.714 247.427 107.109 246.875 107.109C246.615 107.109 246.385 107.042 246.188 106.906C246 106.771 245.906 106.594 245.906 106.375C245.906 105.677 245.995 104.922 246.172 104.109C246.349 103.297 246.615 102.234 246.969 100.922L247.266 99.7969C247.568 98.6406 247.719 97.6042 247.719 96.6875C247.719 96.2917 247.583 95.4219 247.312 94.0781C247.052 92.7344 246.76 91.4323 246.438 90.1719C246.125 88.9115 245.891 88.1719 245.734 87.9531V87.6094C245.536 87.4115 245.438 87.1458 245.438 86.8125C245.438 86.6146 245.531 86.4583 245.719 86.3438C245.917 86.2188 246.141 86.1562 246.391 86.1562C246.62 86.1562 246.833 86.3438 247.031 86.7188C247.208 87.0521 247.37 87.4844 247.516 88.0156C247.661 88.5365 247.823 89.2031 248 90.0156L248.078 90.4062C248.193 90.9792 248.281 91.4531 248.344 91.8281ZM257.391 90.125C257.391 88.8021 257.307 87.8125 257.141 87.1562C257.203 86.8542 257.307 86.5938 257.453 86.375C257.609 86.1458 257.792 86.0312 258 86.0312H259.406C260.01 86.0312 260.536 86.1667 260.984 86.4375C261.432 86.7083 261.771 87.0833 262 87.5625C262.438 88.4792 262.656 89.5208 262.656 90.6875C262.656 91.5312 262.641 92.2031 262.609 92.7031C262.589 93.0573 262.557 93.3438 262.516 93.5625C262.474 93.7708 262.406 94.0469 262.312 94.3906C262.229 94.6719 262.13 94.9062 262.016 95.0938C261.911 95.2708 261.755 95.4844 261.547 95.7344C261.37 95.9531 261.161 96.1406 260.922 96.2969C260.693 96.4531 260.406 96.6094 260.062 96.7656C259.729 96.9219 259.37 97.0625 258.984 97.1875V100.609C258.984 101.193 259.026 102.203 259.109 103.641C259.193 105.078 259.234 106.089 259.234 106.672C259.234 106.922 259.125 107.141 258.906 107.328C258.688 107.516 258.438 107.609 258.156 107.609L257.484 107.219C257.224 106.073 257.094 104.505 257.094 102.516C257.094 101.734 257.115 100.781 257.156 99.6562C257.198 98.5312 257.219 97.5833 257.219 96.8125C257.094 96.5312 257.031 96.2708 257.031 96.0312V95.9219C257.24 95.4844 257.344 94.5677 257.344 93.1719L257.375 91.7031C257.385 91.2448 257.391 90.7188 257.391 90.125ZM260.047 87.9844C259.839 87.8698 259.583 87.8125 259.281 87.8125C259.281 87.7812 259.167 87.7656 258.938 87.7656V89.5781L258.969 92.9375L259 95.8125V95.8594C260.271 95.6823 260.906 93.8802 260.906 90.4531C260.906 90.099 260.896 89.8333 260.875 89.6562C260.865 89.4688 260.833 89.2552 260.781 89.0156C260.719 88.7552 260.63 88.5469 260.516 88.3906C260.411 88.2344 260.255 88.099 260.047 87.9844ZM274.031 107.312C273.896 107.469 273.724 107.547 273.516 107.547C273.068 107.547 272.641 107.031 272.234 106C271.828 105.01 271.495 103.875 271.234 102.594L271.016 101.516C270.422 98.4844 270.031 96.7396 269.844 96.2812H269.453C269.453 96.9062 269.448 97.474 269.438 97.9844C269.427 98.4948 269.422 99.0833 269.422 99.75C269.422 102.573 269.625 104.797 270.031 106.422L269.672 107.281H268.781L268.359 106.812L268.391 104.672C268.391 102.87 268.302 99.9583 268.125 95.9375C267.938 92.0312 267.844 89.1146 267.844 87.1875C267.844 86.1771 268.198 85.6719 268.906 85.6719C269.656 85.6719 270.328 85.8073 270.922 86.0781C271.526 86.3385 272 86.724 272.344 87.2344C272.688 87.7344 272.859 88.3385 272.859 89.0469V91.2969C272.859 91.599 272.802 91.9531 272.688 92.3594C272.573 92.7656 272.453 93.1146 272.328 93.4062L271.719 94.5625L271.219 95.5L271.828 98.5469C272.12 100.141 272.406 101.458 272.688 102.5C272.969 103.531 273.307 104.474 273.703 105.328L273.906 105.734C274.021 105.953 274.104 106.141 274.156 106.297C274.208 106.443 274.234 106.589 274.234 106.734C274.234 106.964 274.167 107.156 274.031 107.312ZM271.047 91.7188C271.193 91.0104 271.266 90.3854 271.266 89.8438C271.266 89.4479 271.25 89.1146 271.219 88.8438C271.188 88.5625 271.125 88.2552 271.031 87.9219C270.927 87.5885 270.75 87.3333 270.5 87.1562C270.26 86.9688 269.953 86.8698 269.578 86.8594L269.531 87.0469C269.49 87.1615 269.469 87.25 269.469 87.3125C269.469 88.375 269.49 89.6354 269.531 91.0938C269.573 92.5625 269.594 93.7656 269.594 94.7031C269.906 94.5365 270.188 94.1719 270.438 93.6094C270.698 93.0469 270.901 92.4167 271.047 91.7188ZM283.438 86.5938C283.896 86.8021 284.125 87.0365 284.125 87.2969C284.125 87.5156 284.036 87.7135 283.859 87.8906C283.682 88.0573 283.458 88.1927 283.188 88.2969C282.208 87.974 281.401 87.7708 280.766 87.6875C280.797 88.1354 280.812 88.5938 280.812 89.0625C280.812 89.6875 280.792 90.4531 280.75 91.3594C280.698 92.4844 280.672 93.25 280.672 93.6562L280.766 94.1562L281.281 94.125C281.458 94.1146 281.667 94.1094 281.906 94.1094C282.938 94.1094 283.453 94.401 283.453 94.9844C283.453 95.2135 283.354 95.4167 283.156 95.5938C282.969 95.7604 282.729 95.8438 282.438 95.8438C282.125 95.8438 281.823 95.8229 281.531 95.7812H280.719C280.781 96.5938 280.812 97.401 280.812 98.2031C280.812 98.974 280.792 99.9375 280.75 101.094C280.698 102.531 280.672 103.5 280.672 104C280.672 105.198 280.693 105.797 280.734 105.797L281.781 105.75L283.094 105.719C283.906 105.719 284.312 105.979 284.312 106.5C284.312 106.802 284.177 107.031 283.906 107.188C283.646 107.344 283.323 107.422 282.938 107.422H280.234C279.943 107.422 279.682 107.323 279.453 107.125C279.234 106.938 279.12 106.708 279.109 106.438V105.594C279.109 105.365 279.104 105.151 279.094 104.953L279.062 104.281C279.062 103.938 279.036 103.255 278.984 102.234C278.932 101.224 278.906 100.542 278.906 100.188C278.906 99.0104 278.943 97.4531 279.016 95.5156C279.089 93.5781 279.125 92.0208 279.125 90.8438C279.125 90.6146 279.099 90.1615 279.047 89.4844C278.984 88.8906 278.953 88.4427 278.953 88.1406C278.953 86.6302 279.401 85.875 280.297 85.875C280.703 85.875 281.214 85.9427 281.828 86.0781C282.453 86.2031 282.99 86.375 283.438 86.5938ZM291.75 88.3594C291.531 89.0573 291.422 89.6719 291.422 90.2031C291.422 90.8177 291.51 91.4427 291.688 92.0781C291.875 92.7135 292.12 93.2865 292.422 93.7969C293.203 95.1823 293.818 96.3125 294.266 97.1875C294.557 97.7708 294.792 98.4583 294.969 99.25C295.156 100.042 295.25 100.844 295.25 101.656C295.25 102.948 294.953 104.182 294.359 105.359C294.057 105.964 293.635 106.448 293.094 106.812C292.552 107.167 291.948 107.349 291.281 107.359V107.438C290.885 107.375 290.557 107.234 290.297 107.016C290.036 106.807 289.885 106.536 289.844 106.203L290.203 105.656C290.516 105.719 290.714 105.76 290.797 105.781C291.089 105.854 291.333 105.891 291.531 105.891C291.927 105.891 292.276 105.719 292.578 105.375C292.88 105.031 293.109 104.583 293.266 104.031C293.547 103.021 293.688 102.099 293.688 101.266C293.688 100.557 293.562 99.8229 293.312 99.0625C293.073 98.2917 292.75 97.5469 292.344 96.8281L292.047 96.3125C291.609 95.5625 291.25 94.9115 290.969 94.3594C290.688 93.7969 290.448 93.1927 290.25 92.5469C289.99 91.7344 289.859 90.8958 289.859 90.0312C289.859 89.0625 290.078 88.0885 290.516 87.1094C290.734 86.599 291.036 86.1927 291.422 85.8906C291.818 85.5781 292.26 85.4219 292.75 85.4219C293.146 85.4219 293.505 85.5469 293.828 85.7969C294.161 86.0365 294.328 86.3333 294.328 86.6875C294.328 86.875 294.25 87.026 294.094 87.1406C293.938 87.2448 293.755 87.2969 293.547 87.2969C293.318 87.2969 293.094 87.2344 292.875 87.1094C292.635 87.1198 292.417 87.2396 292.219 87.4688C292.021 87.6979 291.865 87.9948 291.75 88.3594ZM302.688 88.3594C302.469 89.0573 302.359 89.6719 302.359 90.2031C302.359 90.8177 302.448 91.4427 302.625 92.0781C302.812 92.7135 303.057 93.2865 303.359 93.7969C304.141 95.1823 304.755 96.3125 305.203 97.1875C305.495 97.7708 305.729 98.4583 305.906 99.25C306.094 100.042 306.188 100.844 306.188 101.656C306.188 102.948 305.891 104.182 305.297 105.359C304.995 105.964 304.573 106.448 304.031 106.812C303.49 107.167 302.885 107.349 302.219 107.359V107.438C301.823 107.375 301.495 107.234 301.234 107.016C300.974 106.807 300.823 106.536 300.781 106.203L301.141 105.656C301.453 105.719 301.651 105.76 301.734 105.781C302.026 105.854 302.271 105.891 302.469 105.891C302.865 105.891 303.214 105.719 303.516 105.375C303.818 105.031 304.047 104.583 304.203 104.031C304.484 103.021 304.625 102.099 304.625 101.266C304.625 100.557 304.5 99.8229 304.25 99.0625C304.01 98.2917 303.688 97.5469 303.281 96.8281L302.984 96.3125C302.547 95.5625 302.188 94.9115 301.906 94.3594C301.625 93.7969 301.385 93.1927 301.188 92.5469C300.927 91.7344 300.797 90.8958 300.797 90.0312C300.797 89.0625 301.016 88.0885 301.453 87.1094C301.672 86.599 301.974 86.1927 302.359 85.8906C302.755 85.5781 303.198 85.4219 303.688 85.4219C304.083 85.4219 304.443 85.5469 304.766 85.7969C305.099 86.0365 305.266 86.3333 305.266 86.6875C305.266 86.875 305.188 87.026 305.031 87.1406C304.875 87.2448 304.693 87.2969 304.484 87.2969C304.255 87.2969 304.031 87.2344 303.812 87.1094C303.573 87.1198 303.354 87.2396 303.156 87.4688C302.958 87.6979 302.802 87.9948 302.688 88.3594Z" fill="black"/>
<rect width="18" height="4.66001" transform="matrix(1 0 0 -1 44 120.66)" fill="#009246"/>
<rect width="18" height="4.66001" transform="matrix(1 0 0 -1 62 120.66)" fill="white"/>
<rect width="18" height="4.66001" transform="matrix(1 0 0 -1 80 120.66)" fill="#CE2B37"/>
</svg>
