<svg width="457" height="231" viewBox="0 0 457 231" fill="none" xmlns="http://www.w3.org/2000/svg">
<rect width="457" height="231" rx="10" fill="#A9C0E0"/>
<rect width="26.5905" height="4.59689" transform="matrix(1 0 0 -1 67.3865 155.635)" fill="#009246"/>
<rect width="26.5905" height="4.59689" transform="matrix(1 0 0 -1 93.9771 155.635)" fill="white"/>
<rect width="26.5905" height="4.59689" transform="matrix(1 0 0 -1 120.567 155.635)" fill="#CE2B37"/>
<path d="M81.863 140.846C81.591 140.846 81.353 140.761 81.149 140.591C80.979 140.421 80.894 140.217 80.894 139.979V133.298C80.894 132.89 80.027 132.516 78.293 132.176C76.559 131.836 75.131 131.666 74.009 131.666C73.941 131.666 73.822 131.921 73.652 132.431C73.516 132.941 73.414 133.315 73.346 133.553C72.904 135.321 72.462 137.208 72.02 139.214L71.765 140.336C71.697 140.608 71.527 140.744 71.255 140.744C70.983 140.744 70.728 140.659 70.49 140.489C70.286 140.319 70.184 140.115 70.184 139.877L70.235 139.775V139.724L70.796 137.174C71.204 135.576 71.561 134.012 71.867 132.482C72.207 130.748 72.462 129.626 72.632 129.116C72.904 127.994 73.448 125.189 74.264 120.701L74.57 119.018C75.454 113.782 76.066 110.484 76.406 109.124C76.576 108.308 76.882 107.101 77.324 105.503C77.494 104.823 77.732 104.143 78.038 103.463C78.344 102.885 78.599 102.596 78.803 102.596C79.347 102.596 79.738 102.766 79.976 103.106C80.146 103.412 80.401 105.095 80.741 108.155C81.115 111.215 81.438 114.309 81.71 117.437L82.373 125.903C82.373 127.365 82.475 129.575 82.679 132.533C82.883 135.525 82.985 137.752 82.985 139.214V139.418C82.985 139.792 82.934 140.132 82.832 140.438C82.696 140.71 82.373 140.846 81.863 140.846ZM79.823 131.003C80.503 131.003 80.843 130.833 80.843 130.493C80.843 128.385 80.724 125.512 80.486 121.874C80.248 118.202 79.993 114.972 79.721 112.184C79.653 110.994 79.517 109.685 79.313 108.257L79.109 106.268C79.109 106.302 79.075 106.115 79.007 105.707L78.905 105.095C78.633 105.843 78.361 106.88 78.089 108.206C77.851 109.532 77.596 111.096 77.324 112.898C76.508 117.964 75.811 121.772 75.233 124.322L74.774 126.056C74.264 127.756 74.009 129.048 74.009 129.932V130.238C75.505 130.714 77.222 130.952 79.16 130.952H79.466C79.568 130.986 79.687 131.003 79.823 131.003ZM93.8754 141.203C93.2294 140.999 92.6684 140.71 92.1924 140.336C91.7504 139.962 91.3254 139.401 90.9174 138.653C90.2034 137.293 89.7784 135.338 89.6424 132.788C89.5744 131.632 89.5404 130.612 89.5404 129.728V123.914C89.5404 121.704 89.6084 119.562 89.7444 117.488C89.8464 115.958 89.9994 114.666 90.2034 113.612C90.4074 112.558 90.7304 111.504 91.1724 110.45C91.6484 109.362 92.1754 108.597 92.7534 108.155C92.9914 107.951 93.4504 107.713 94.1304 107.441C94.5724 107.271 94.9974 107.084 95.4054 106.88H97.4454H97.5984C97.6324 106.914 97.6834 106.931 97.7514 106.931L98.0064 106.982L98.2104 107.135C98.3124 107.237 98.3634 107.305 98.3634 107.339C98.3974 107.407 98.4144 107.509 98.4144 107.645L97.7514 108.41H95.6094C94.9634 108.41 94.3684 108.733 93.8244 109.379C93.3144 109.991 92.9234 110.773 92.6514 111.725C92.3794 112.575 92.1584 113.578 91.9884 114.734C91.8184 115.89 91.7164 116.893 91.6824 117.743C91.6144 118.831 91.5804 119.579 91.5804 119.987L91.4784 120.242C91.4784 122.146 91.4444 123.863 91.3764 125.393L91.2744 130.544C91.2744 132.04 91.3764 133.417 91.5804 134.675C91.7504 136.035 92.2434 137.259 93.0594 138.347C93.8414 139.435 95.0484 139.979 96.6804 139.979C97.1904 139.979 97.6154 139.826 97.9554 139.52C98.4654 139.52 98.7204 139.707 98.7204 140.081C98.7204 140.319 98.4994 140.591 98.0574 140.897C97.6494 141.237 97.2244 141.492 96.7824 141.662H95.0994L93.8754 141.203ZM108.01 140.132L107.959 138.245C107.925 137.701 107.908 137.089 107.908 136.409C107.908 136.069 107.925 135.78 107.959 135.542L108.01 134.624C108.01 134.284 107.942 133.876 107.806 133.4C107.806 131.122 107.636 126.889 107.296 120.701C106.956 114.717 106.769 110.654 106.735 108.512C104.627 108.512 103.216 108.461 102.502 108.359C101.822 108.189 101.482 107.917 101.482 107.543C101.652 107.169 101.975 106.982 102.451 106.982C103.471 106.982 104.95 107.05 106.888 107.186C108.656 107.356 110.135 107.441 111.325 107.441H112.396L113.467 107.39C114.079 107.39 114.385 107.611 114.385 108.053C114.385 108.257 114.266 108.427 114.028 108.563C113.824 108.665 113.569 108.716 113.263 108.716C112.583 108.716 111.869 108.682 111.121 108.614L108.928 108.512C108.792 108.512 108.724 108.563 108.724 108.665C108.69 108.767 108.673 109.09 108.673 109.634C108.673 112.932 108.877 117.93 109.285 124.628C109.659 131.564 109.846 136.545 109.846 139.571C109.846 139.809 109.693 140.03 109.387 140.234C109.115 140.438 108.843 140.54 108.571 140.54L108.01 140.132ZM129.832 141.305C129.322 141.305 128.999 141.237 128.863 141.101C128.727 140.999 128.625 140.693 128.557 140.183C128.251 137.701 128.064 136.154 127.996 135.542L127.741 133.502C126.993 133.332 126.143 133.247 125.191 133.247L123.355 133.145C122.539 133.043 121.944 132.992 121.57 132.992C121.366 132.992 121.247 133.077 121.213 133.247C121.213 133.349 121.196 133.4 121.162 133.4L121.06 134.42C121.026 135.032 120.839 136.256 120.499 138.092C120.329 139.01 120.125 139.724 119.887 140.234C119.615 140.812 119.36 141.101 119.122 141.101C118.918 141.101 118.697 141.016 118.459 140.846C118.221 140.642 118.102 140.438 118.102 140.234L118.153 140.081L118.204 139.928C118.816 137.514 119.326 135.117 119.734 132.737L120.346 129.575L120.958 125.699C120.958 125.699 121.145 124.577 121.519 122.333C121.689 121.415 121.995 119.936 122.437 117.896C122.913 115.584 123.202 114.003 123.304 113.153C123.338 113.051 123.406 112.422 123.508 111.266C123.644 109.974 123.763 109.022 123.865 108.41C123.967 107.526 124.069 107.016 124.171 106.88H124.528C124.63 106.914 124.749 106.931 124.885 106.931C125.293 106.931 125.599 106.829 125.803 106.625C126.041 106.625 126.245 106.71 126.415 106.88C126.619 107.016 126.721 107.186 126.721 107.39C126.721 109.022 126.84 110.892 127.078 113C127.214 114.088 127.316 114.989 127.384 115.703C127.758 120.089 128.71 128.317 130.24 140.387V140.54C130.24 140.88 130.104 141.135 129.832 141.305ZM127.486 132.125C127.146 127.229 126.5 120.004 125.548 110.45L122.794 124.067C122.012 127.977 121.621 130.442 121.621 131.462C121.621 131.632 122.267 131.785 123.559 131.921C124.851 132.057 125.99 132.125 126.976 132.125H127.486ZM136.333 141.458C135.959 141.39 135.602 141.237 135.262 140.999C134.922 140.795 134.735 140.54 134.701 140.234L134.956 139.826C135.092 139.826 135.398 139.877 135.874 139.979C136.248 140.115 136.554 140.183 136.792 140.183C137.54 140.183 138.203 139.894 138.781 139.316C139.359 138.704 139.801 137.922 140.107 136.97C140.583 135.202 140.821 133.536 140.821 131.972C140.821 129.626 140.107 127.11 138.679 124.424C137.795 122.86 137.115 121.619 136.639 120.701C136.163 119.783 135.738 118.729 135.364 117.539C134.922 116.145 134.701 114.802 134.701 113.51C134.701 112.286 135.007 110.841 135.619 109.175C135.925 108.393 136.35 107.764 136.894 107.288C137.472 106.778 138.084 106.523 138.73 106.523C139.172 106.523 139.597 106.676 140.005 106.982C140.447 107.288 140.668 107.611 140.668 107.951C140.668 108.223 140.447 108.359 140.005 108.359C139.869 108.359 139.699 108.308 139.495 108.206C139.291 108.104 139.104 108.053 138.934 108.053C138.424 108.053 137.965 108.257 137.557 108.665C137.149 109.073 136.843 109.6 136.639 110.246C136.231 111.504 136.027 112.66 136.027 113.714C136.027 114.36 136.112 115.023 136.282 115.703C136.316 115.907 136.35 116.077 136.384 116.213C136.418 116.349 136.435 116.451 136.435 116.519L136.741 117.539L136.996 118.457L137.404 119.375C137.506 119.613 137.608 119.834 137.71 120.038C137.846 120.208 137.965 120.378 138.067 120.548L138.679 121.619C138.815 121.823 139.104 122.316 139.546 123.098C139.988 123.846 140.396 124.645 140.77 125.495C141.11 126.209 141.365 126.889 141.535 127.535C141.705 128.147 141.858 128.895 141.994 129.779C142.096 130.629 142.147 131.564 142.147 132.584C142.147 134.216 141.926 135.746 141.484 137.174C140.872 138.874 139.988 140.064 138.832 140.744C138.186 141.152 137.438 141.356 136.588 141.356L136.333 141.458ZM140.413 108.206C140.413 108.172 140.396 108.155 140.362 108.155V108.206H140.413ZM160.66 140.642C159.844 140.608 158.807 140.591 157.549 140.591C157.311 140.591 157.09 140.506 156.886 140.336C156.716 140.166 156.631 139.979 156.631 139.775C156.631 139.333 156.92 139.112 157.498 139.112H159.487C159.487 135.202 159.368 130.272 159.13 124.322C158.994 119.562 158.858 115.822 158.722 113.102L158.773 110.501V107.135C158.773 105.435 158.739 104.347 158.671 103.871H156.886C156.546 103.871 156.376 103.633 156.376 103.157C156.376 102.851 156.512 102.613 156.784 102.443C157.022 102.341 157.651 102.29 158.671 102.29H160.099C160.609 102.324 161.255 102.341 162.037 102.341C162.309 102.341 162.53 102.409 162.7 102.545C162.87 102.647 162.955 102.817 162.955 103.055C162.955 103.259 162.904 103.446 162.802 103.616C162.7 103.786 162.547 103.871 162.343 103.871C162.105 103.871 161.901 103.854 161.731 103.82H161.119H160.609C160.269 103.82 160.065 103.854 159.997 103.922L159.895 104.126C159.895 106.778 160.116 112.133 160.558 120.191C160.966 127.637 161.17 132.992 161.17 136.256V137.684C161.136 138.126 161.119 138.585 161.119 139.061H162.955C163.737 139.061 164.128 139.299 164.128 139.775C164.128 139.979 164.043 140.183 163.873 140.387C163.737 140.557 163.584 140.642 163.414 140.642H160.66ZM174.151 140.132L174.1 138.245C174.066 137.701 174.049 137.089 174.049 136.409C174.049 136.069 174.066 135.78 174.1 135.542L174.151 134.624C174.151 134.284 174.083 133.876 173.947 133.4C173.947 131.122 173.777 126.889 173.437 120.701C173.097 114.717 172.91 110.654 172.876 108.512C170.768 108.512 169.357 108.461 168.643 108.359C167.963 108.189 167.623 107.917 167.623 107.543C167.793 107.169 168.116 106.982 168.592 106.982C169.612 106.982 171.091 107.05 173.029 107.186C174.797 107.356 176.276 107.441 177.466 107.441H178.537L179.608 107.39C180.22 107.39 180.526 107.611 180.526 108.053C180.526 108.257 180.407 108.427 180.169 108.563C179.965 108.665 179.71 108.716 179.404 108.716C178.724 108.716 178.01 108.682 177.262 108.614L175.069 108.512C174.933 108.512 174.865 108.563 174.865 108.665C174.831 108.767 174.814 109.09 174.814 109.634C174.814 112.932 175.018 117.93 175.426 124.628C175.8 131.564 175.987 136.545 175.987 139.571C175.987 139.809 175.834 140.03 175.528 140.234C175.256 140.438 174.984 140.54 174.712 140.54L174.151 140.132ZM195.973 141.305C195.463 141.305 195.14 141.237 195.004 141.101C194.868 140.999 194.766 140.693 194.698 140.183C194.392 137.701 194.205 136.154 194.137 135.542L193.882 133.502C193.134 133.332 192.284 133.247 191.332 133.247L189.496 133.145C188.68 133.043 188.085 132.992 187.711 132.992C187.507 132.992 187.388 133.077 187.354 133.247C187.354 133.349 187.337 133.4 187.303 133.4L187.201 134.42C187.167 135.032 186.98 136.256 186.64 138.092C186.47 139.01 186.266 139.724 186.028 140.234C185.756 140.812 185.501 141.101 185.263 141.101C185.059 141.101 184.838 141.016 184.6 140.846C184.362 140.642 184.243 140.438 184.243 140.234L184.294 140.081L184.345 139.928C184.957 137.514 185.467 135.117 185.875 132.737L186.487 129.575L187.099 125.699C187.099 125.699 187.286 124.577 187.66 122.333C187.83 121.415 188.136 119.936 188.578 117.896C189.054 115.584 189.343 114.003 189.445 113.153C189.479 113.051 189.547 112.422 189.649 111.266C189.785 109.974 189.904 109.022 190.006 108.41C190.108 107.526 190.21 107.016 190.312 106.88H190.669C190.771 106.914 190.89 106.931 191.026 106.931C191.434 106.931 191.74 106.829 191.944 106.625C192.182 106.625 192.386 106.71 192.556 106.88C192.76 107.016 192.862 107.186 192.862 107.39C192.862 109.022 192.981 110.892 193.219 113C193.355 114.088 193.457 114.989 193.525 115.703C193.899 120.089 194.851 128.317 196.381 140.387V140.54C196.381 140.88 196.245 141.135 195.973 141.305ZM193.627 132.125C193.287 127.229 192.641 120.004 191.689 110.45L188.935 124.067C188.153 127.977 187.762 130.442 187.762 131.462C187.762 131.632 188.408 131.785 189.7 131.921C190.992 132.057 192.131 132.125 193.117 132.125H193.627ZM202.831 141.509C202.355 141.509 202.066 141.118 201.964 140.336C202.032 140.132 202.066 139.571 202.066 138.653C202.066 135.525 202.117 130.884 202.219 124.73C202.321 118.61 202.372 114.19 202.372 111.47L202.474 109.634L202.627 108.104C202.627 107.866 202.746 107.747 202.984 107.747C203.154 107.747 203.392 107.798 203.698 107.9L203.851 107.951C203.851 108.699 203.834 109.379 203.8 109.991V111.98V117.539C203.834 119.171 203.851 121.024 203.851 123.098C203.817 123.268 203.8 123.642 203.8 124.22L203.749 125.291C203.715 125.971 203.698 126.668 203.698 127.382C203.698 128.164 203.715 128.878 203.749 129.524L203.8 131.717L203.647 132.125L203.698 132.074C203.698 132.176 203.681 132.244 203.647 132.278V132.482C203.647 132.754 203.698 132.992 203.8 133.196L203.647 138.092V138.398C203.647 138.976 203.664 139.316 203.698 139.418C203.698 139.588 203.783 139.673 203.953 139.673L206.605 139.775C207.387 139.775 207.914 139.792 208.186 139.826C208.492 139.826 208.679 139.826 208.747 139.826H208.9C209.07 139.826 209.24 139.928 209.41 140.132C209.58 140.302 209.665 140.489 209.665 140.693C209.665 141.101 209.393 141.322 208.849 141.356C208.271 141.322 206.86 141.305 204.616 141.305L204.718 141.356C204.378 141.356 204.055 141.373 203.749 141.407C203.477 141.475 203.171 141.509 202.831 141.509ZM217.367 140.846C216.585 140.846 216.126 140.676 215.99 140.336C215.82 140.336 215.684 140.353 215.582 140.387H215.174C214.426 140.387 213.95 140.217 213.746 139.877C213.746 139.639 213.882 139.435 214.154 139.265L214.409 139.01H215.888L216.092 138.806L216.194 138.347L216.245 137.735C216.245 135.661 216.194 133.808 216.092 132.176L215.99 130.289L215.888 126.566C215.888 125.24 215.939 123.251 216.041 120.599L216.143 114.683C216.143 112.099 216.058 110.127 215.888 108.767C215.582 108.665 215.072 108.614 214.358 108.614L213.797 108.665C213.593 108.699 213.372 108.716 213.134 108.716C212.488 108.716 212.165 108.427 212.165 107.849C212.165 107.713 212.318 107.577 212.624 107.441C212.93 107.305 213.185 107.237 213.389 107.237C214.681 107.237 215.973 107.305 217.265 107.441C218.047 107.475 218.829 107.628 219.611 107.9C220.223 108.104 220.529 108.393 220.529 108.767C220.529 108.835 220.478 108.971 220.376 109.175L219.203 109.277C218.965 109.073 218.472 108.971 217.724 108.971L217.469 109.124C217.571 109.43 217.622 110.331 217.622 111.827C217.622 114.071 217.605 116.094 217.571 117.896L217.469 123.965C217.469 125.495 217.537 127.348 217.673 129.524C217.775 132.006 217.826 133.876 217.826 135.134V135.797C217.792 136.035 217.775 136.341 217.775 136.715C217.775 137.497 217.826 137.973 217.928 138.143L217.877 138.245C217.877 138.585 218.251 138.755 218.999 138.755C219.305 138.755 219.56 138.738 219.764 138.704H220.529C221.515 138.704 222.008 138.942 222.008 139.418C222.008 139.724 221.906 139.979 221.702 140.183C221.498 140.353 221.226 140.438 220.886 140.438C220.58 140.438 220.308 140.404 220.07 140.336C219.798 140.302 219.509 140.285 219.203 140.285C218.999 140.285 218.693 140.37 218.285 140.54C217.877 140.744 217.571 140.846 217.367 140.846ZM236.763 141.305C236.253 141.305 235.93 141.237 235.794 141.101C235.658 140.999 235.556 140.693 235.488 140.183C235.182 137.701 234.995 136.154 234.927 135.542L234.672 133.502C233.924 133.332 233.074 133.247 232.122 133.247L230.286 133.145C229.47 133.043 228.875 132.992 228.501 132.992C228.297 132.992 228.178 133.077 228.144 133.247C228.144 133.349 228.127 133.4 228.093 133.4L227.991 134.42C227.957 135.032 227.77 136.256 227.43 138.092C227.26 139.01 227.056 139.724 226.818 140.234C226.546 140.812 226.291 141.101 226.053 141.101C225.849 141.101 225.628 141.016 225.39 140.846C225.152 140.642 225.033 140.438 225.033 140.234L225.084 140.081L225.135 139.928C225.747 137.514 226.257 135.117 226.665 132.737L227.277 129.575L227.889 125.699C227.889 125.699 228.076 124.577 228.45 122.333C228.62 121.415 228.926 119.936 229.368 117.896C229.844 115.584 230.133 114.003 230.235 113.153C230.269 113.051 230.337 112.422 230.439 111.266C230.575 109.974 230.694 109.022 230.796 108.41C230.898 107.526 231 107.016 231.102 106.88H231.459C231.561 106.914 231.68 106.931 231.816 106.931C232.224 106.931 232.53 106.829 232.734 106.625C232.972 106.625 233.176 106.71 233.346 106.88C233.55 107.016 233.652 107.186 233.652 107.39C233.652 109.022 233.771 110.892 234.009 113C234.145 114.088 234.247 114.989 234.315 115.703C234.689 120.089 235.641 128.317 237.171 140.387V140.54C237.171 140.88 237.035 141.135 236.763 141.305ZM234.417 132.125C234.077 127.229 233.431 120.004 232.479 110.45L229.725 124.067C228.943 127.977 228.552 130.442 228.552 131.462C228.552 131.632 229.198 131.785 230.49 131.921C231.782 132.057 232.921 132.125 233.907 132.125H234.417ZM255.708 141.05C255.436 141.05 255.232 140.948 255.096 140.744C254.994 140.54 254.892 140.234 254.79 139.826C254.756 139.554 254.688 139.316 254.586 139.112L254.637 138.959C254.365 137.361 253.787 135.406 252.903 133.094L251.985 130.442C251.917 130.374 251.594 129.507 251.016 127.841L250.608 126.617C247.548 117.165 245.627 112.048 244.845 111.266C244.573 112.184 244.437 113.374 244.437 114.836C244.437 115.618 244.454 116.298 244.488 116.876L244.539 118.865L244.488 120.089C244.454 120.463 244.437 120.871 244.437 121.313C244.437 122.061 244.471 122.707 244.539 123.251C244.607 124.339 244.641 124.883 244.641 124.883H244.488C244.488 130.561 244.607 133.689 244.845 134.267V138.857C244.981 139.129 245.049 139.486 245.049 139.928C245.049 140.2 244.947 140.438 244.743 140.642C244.573 140.846 244.352 140.948 244.08 140.948C243.366 140.948 243.009 140.03 243.009 138.194L243.111 136.562C243.179 136.052 243.213 135.491 243.213 134.879C243.213 133.247 243.162 130.799 243.06 127.535C242.958 124.271 242.907 121.823 242.907 120.191C242.907 119.205 242.958 117.692 243.06 115.652C243.162 113.646 243.213 112.15 243.213 111.164V110.501C243.213 108.835 243.519 107.747 244.131 107.237L244.284 107.39L244.794 107.288C244.93 107.322 245.083 107.424 245.253 107.594C245.389 107.73 245.457 107.883 245.457 108.053L245.559 108.359C245.559 108.427 245.559 108.495 245.559 108.563C245.593 108.597 245.61 108.614 245.61 108.614C246.154 111.028 247.378 114.411 249.282 118.763C251.22 123.353 252.427 126.396 252.903 127.892C253.243 129.082 253.515 130.136 253.719 131.054C254.365 133.944 255.13 136.171 256.014 137.735L256.116 137.582C256.898 130.034 257.289 120.769 257.289 109.787L257.238 109.175C257.204 109.005 257.187 108.784 257.187 108.512C257.187 107.798 257.425 107.441 257.901 107.441C258.207 107.441 258.462 107.594 258.666 107.9C258.904 108.206 259.023 108.546 259.023 108.92V112.337L258.768 112.745C258.768 115.975 258.581 121.279 258.207 128.657C257.833 136.035 257.476 140.047 257.136 140.693L256.269 140.897V140.948L256.218 140.897L255.708 141.05ZM276.208 141.305C275.698 141.305 275.375 141.237 275.239 141.101C275.103 140.999 275.001 140.693 274.933 140.183C274.627 137.701 274.44 136.154 274.372 135.542L274.117 133.502C273.369 133.332 272.519 133.247 271.567 133.247L269.731 133.145C268.915 133.043 268.32 132.992 267.946 132.992C267.742 132.992 267.623 133.077 267.589 133.247C267.589 133.349 267.572 133.4 267.538 133.4L267.436 134.42C267.402 135.032 267.215 136.256 266.875 138.092C266.705 139.01 266.501 139.724 266.263 140.234C265.991 140.812 265.736 141.101 265.498 141.101C265.294 141.101 265.073 141.016 264.835 140.846C264.597 140.642 264.478 140.438 264.478 140.234L264.529 140.081L264.58 139.928C265.192 137.514 265.702 135.117 266.11 132.737L266.722 129.575L267.334 125.699C267.334 125.699 267.521 124.577 267.895 122.333C268.065 121.415 268.371 119.936 268.813 117.896C269.289 115.584 269.578 114.003 269.68 113.153C269.714 113.051 269.782 112.422 269.884 111.266C270.02 109.974 270.139 109.022 270.241 108.41C270.343 107.526 270.445 107.016 270.547 106.88H270.904C271.006 106.914 271.125 106.931 271.261 106.931C271.669 106.931 271.975 106.829 272.179 106.625C272.417 106.625 272.621 106.71 272.791 106.88C272.995 107.016 273.097 107.186 273.097 107.39C273.097 109.022 273.216 110.892 273.454 113C273.59 114.088 273.692 114.989 273.76 115.703C274.134 120.089 275.086 128.317 276.616 140.387V140.54C276.616 140.88 276.48 141.135 276.208 141.305ZM273.862 132.125C273.522 127.229 272.876 120.004 271.924 110.45L269.17 124.067C268.388 127.977 267.997 130.442 267.997 131.462C267.997 131.632 268.643 131.785 269.935 131.921C271.227 132.057 272.366 132.125 273.352 132.125H273.862ZM282.709 141.458C282.335 141.39 281.978 141.237 281.638 140.999C281.298 140.795 281.111 140.54 281.077 140.234L281.332 139.826C281.468 139.826 281.774 139.877 282.25 139.979C282.624 140.115 282.93 140.183 283.168 140.183C283.916 140.183 284.579 139.894 285.157 139.316C285.735 138.704 286.177 137.922 286.483 136.97C286.959 135.202 287.197 133.536 287.197 131.972C287.197 129.626 286.483 127.11 285.055 124.424C284.171 122.86 283.491 121.619 283.015 120.701C282.539 119.783 282.114 118.729 281.74 117.539C281.298 116.145 281.077 114.802 281.077 113.51C281.077 112.286 281.383 110.841 281.995 109.175C282.301 108.393 282.726 107.764 283.27 107.288C283.848 106.778 284.46 106.523 285.106 106.523C285.548 106.523 285.973 106.676 286.381 106.982C286.823 107.288 287.044 107.611 287.044 107.951C287.044 108.223 286.823 108.359 286.381 108.359C286.245 108.359 286.075 108.308 285.871 108.206C285.667 108.104 285.48 108.053 285.31 108.053C284.8 108.053 284.341 108.257 283.933 108.665C283.525 109.073 283.219 109.6 283.015 110.246C282.607 111.504 282.403 112.66 282.403 113.714C282.403 114.36 282.488 115.023 282.658 115.703C282.692 115.907 282.726 116.077 282.76 116.213C282.794 116.349 282.811 116.451 282.811 116.519L283.117 117.539L283.372 118.457L283.78 119.375C283.882 119.613 283.984 119.834 284.086 120.038C284.222 120.208 284.341 120.378 284.443 120.548L285.055 121.619C285.191 121.823 285.48 122.316 285.922 123.098C286.364 123.846 286.772 124.645 287.146 125.495C287.486 126.209 287.741 126.889 287.911 127.535C288.081 128.147 288.234 128.895 288.37 129.779C288.472 130.629 288.523 131.564 288.523 132.584C288.523 134.216 288.302 135.746 287.86 137.174C287.248 138.874 286.364 140.064 285.208 140.744C284.562 141.152 283.814 141.356 282.964 141.356L282.709 141.458ZM286.789 108.206C286.789 108.172 286.772 108.155 286.738 108.155V108.206H286.789ZM305.557 141.152C304.741 141.152 304.163 141.067 303.823 140.897C303.517 140.761 303.364 140.472 303.364 140.03V139.061C303.33 138.789 303.313 138.483 303.313 138.143V138.041L303.364 130.595L303.313 109.532C303.313 107.356 303.279 105.469 303.211 103.871C303.211 103.463 303.296 103.123 303.466 102.851C303.636 102.579 303.857 102.443 304.129 102.443H307.291C307.767 102.443 308.124 102.477 308.362 102.545C308.702 102.647 308.872 102.936 308.872 103.412C308.872 103.684 308.77 103.905 308.566 104.075C308.362 104.245 308.141 104.347 307.903 104.381H307.036L306.22 104.33L305.404 104.279C305.166 104.279 304.996 104.33 304.894 104.432C304.826 104.5 304.792 104.653 304.792 104.891C304.792 106.489 304.809 107.934 304.843 109.226V113.561V119.936C304.843 120.004 304.877 120.038 304.945 120.038H304.996H305.047C305.897 119.97 306.815 119.936 307.801 119.936C308.345 119.936 308.617 120.174 308.617 120.65C308.617 120.99 308.549 121.228 308.413 121.364C308.311 121.466 308.124 121.517 307.852 121.517H304.945C304.809 121.517 304.741 121.602 304.741 121.772L304.843 129.32C304.911 131.666 304.945 134.369 304.945 137.429V139.316H307.138H309.28H309.739C310.351 139.316 310.657 139.537 310.657 139.979C310.657 140.523 310.504 140.846 310.198 140.948C309.79 141.084 308.957 141.152 307.699 141.152H305.557ZM316.166 140.999C315.52 140.999 315.197 140.795 315.197 140.387C315.197 138.687 315.673 136.035 316.625 132.431C317.577 128.861 318.053 126.192 318.053 124.424C318.053 123.472 317.594 120.888 316.676 116.672C315.758 112.456 315.146 110.161 314.84 109.787V109.583C314.874 109.549 314.891 109.515 314.891 109.481C314.891 109.447 314.891 109.43 314.891 109.43C314.891 109.226 314.806 108.988 314.636 108.716C314.5 108.308 314.432 108.104 314.432 108.104C314.432 107.968 314.534 107.849 314.738 107.747C314.976 107.645 315.18 107.594 315.35 107.594C315.622 107.594 315.843 107.798 316.013 108.206C316.217 108.614 316.353 109.039 316.421 109.481L316.472 110.654C316.948 112.048 317.373 113.748 317.747 115.754C318.189 117.998 318.546 119.579 318.818 120.497C319.022 120.089 319.277 118.763 319.583 116.519C319.923 114.275 320.144 112.592 320.246 111.47C320.45 108.716 320.671 107.305 320.909 107.237C320.909 107.237 321.045 107.203 321.317 107.135L321.725 107.084L322.184 107.696C321.64 108.478 321.368 109.974 321.368 112.184V112.49L321.419 112.796L321.368 112.847C321.232 114.071 320.892 115.941 320.348 118.457C319.77 121.245 319.481 123.353 319.481 124.781C319.481 125.325 319.923 127.586 320.807 131.564C321.691 135.542 322.269 137.871 322.541 138.551C322.541 138.585 322.626 138.721 322.796 138.959C323.034 139.401 323.153 139.758 323.153 140.03C323.153 140.234 323.068 140.404 322.898 140.54C322.762 140.676 322.592 140.744 322.388 140.744C322.15 140.744 321.929 140.693 321.725 140.591L320.807 136.715C319.991 133.655 319.345 130.816 318.869 128.198C318.461 128.81 318.087 130.578 317.747 133.502C317.407 136.528 317.101 138.398 316.829 139.112C316.897 139.248 316.931 139.452 316.931 139.724C316.931 140.064 316.863 140.37 316.727 140.642C316.625 140.88 316.438 140.999 316.166 140.999ZM329.529 141.458C329.155 139.316 328.968 136.868 328.968 134.114C328.968 133.026 329.019 131.445 329.121 129.371L329.223 124.628C328.985 124.152 328.866 123.761 328.866 123.455C329.206 122.911 329.376 121.347 329.376 118.763C329.376 112.575 329.291 109.277 329.121 108.869C329.427 108.019 329.665 107.594 329.835 107.594H332.079C332.453 107.594 332.98 107.781 333.66 108.155C334.374 108.495 334.969 108.869 335.445 109.277C336.295 110.059 336.72 112.065 336.72 115.295C336.72 117.029 336.669 118.355 336.567 119.273C336.499 119.919 336.38 120.429 336.21 120.803C336.074 121.177 335.853 121.602 335.547 122.078C335.037 122.86 334.17 123.54 332.946 124.118C332.436 124.39 331.722 124.662 330.804 124.934V131.003C330.804 131.853 330.889 133.519 331.059 136.001L331.161 137.633L331.263 140.948C331.263 141.56 330.94 141.866 330.294 141.866L329.529 141.458ZM331.161 123.2C332.147 123.2 332.98 122.741 333.66 121.823C333.898 121.483 334.119 121.024 334.323 120.446C334.527 119.868 334.663 119.307 334.731 118.763C334.935 117.777 335.037 116.638 335.037 115.346V113.969C335.037 113.493 335.02 113.034 334.986 112.592C334.952 112.15 334.884 111.725 334.782 111.317C334.646 110.875 334.459 110.518 334.221 110.246C334.017 109.94 333.728 109.685 333.354 109.481C332.946 109.277 332.453 109.175 331.875 109.175C331.467 109.175 331.178 109.277 331.008 109.481C330.838 109.685 330.753 110.042 330.753 110.552C330.753 111.368 330.804 112.592 330.906 114.224L331.008 117.896C331.008 118.78 330.974 119.579 330.906 120.293L330.804 122.69L331.161 123.2ZM350.016 141.458C349.608 141.016 349.166 139.843 348.69 137.939C348.214 136.035 347.772 133.893 347.364 131.513C347.092 129.575 346.701 127.654 346.191 125.75C345.783 124.05 345.392 123.2 345.018 123.2H344.865C344.117 123.2 343.743 123.438 343.743 123.914C343.743 126.362 343.879 130.085 344.151 135.083C344.287 138.143 344.44 139.928 344.61 140.438L344.202 141.305H343.488L343.08 140.897C342.536 125.189 342.264 114.479 342.264 108.767C342.264 108.393 342.281 108.087 342.315 107.849C342.383 107.611 342.502 107.39 342.672 107.186C342.808 106.948 343.046 106.829 343.386 106.829C345.12 106.829 346.514 107.254 347.568 108.104C348.622 108.954 349.149 110.178 349.149 111.776V115.499C349.149 116.145 348.928 117.012 348.486 118.1C348.078 119.188 347.619 120.191 347.109 121.109L346.446 122.384C346.82 124.118 347.551 127.246 348.639 131.768C349.761 136.256 350.373 138.636 350.475 138.908C350.509 138.942 350.543 139.027 350.577 139.163C350.645 139.299 350.764 139.503 350.934 139.775C351.172 140.251 351.291 140.659 351.291 140.999C351.291 141.475 351.104 141.713 350.73 141.713L350.016 141.458ZM343.998 121.925C344.644 121.925 345.222 121.602 345.732 120.956C346.242 120.31 346.65 119.477 346.956 118.457C347.5 116.383 347.772 114.734 347.772 113.51C347.772 112.728 347.721 112.082 347.619 111.572C347.551 111.062 347.415 110.518 347.211 109.94C346.803 108.75 345.834 108.155 344.304 108.155C344.134 108.155 343.998 108.308 343.896 108.614C343.794 108.886 343.743 109.175 343.743 109.481C343.743 111.759 343.777 113.816 343.845 115.652C343.879 117.488 343.896 119.545 343.896 121.823L343.998 121.925ZM357.974 141.509C357.362 141.509 357.022 141.152 356.954 140.438V139.775C356.988 139.605 357.005 139.401 357.005 139.163L356.801 138.959C357.073 138.245 357.209 137.548 357.209 136.868C357.209 136.086 357.158 134.964 357.056 133.502L356.954 130.136C356.954 128.436 357.005 125.886 357.107 122.486C357.243 119.46 357.311 116.893 357.311 114.785L357.209 111.725C357.141 110.807 357.107 109.787 357.107 108.665C357.107 108.155 357.226 107.798 357.464 107.594C357.702 107.356 358.076 107.237 358.586 107.237C358.926 107.237 359.198 107.339 359.402 107.543C359.47 107.577 359.963 107.645 360.881 107.747C361.731 107.849 362.462 108.002 363.074 108.206C363.72 108.41 364.043 108.665 364.043 108.971C364.043 109.311 363.72 109.651 363.074 109.991C361.136 109.345 359.759 109.022 358.943 109.022L358.688 109.328C358.722 109.634 358.739 110.365 358.739 111.521C358.739 112.983 358.705 114.292 358.637 115.448C358.603 116.638 358.586 117.964 358.586 119.426C358.586 120.378 358.824 120.854 359.3 120.854L360.116 120.803C360.388 120.769 360.677 120.752 360.983 120.752C362.309 120.752 362.972 121.058 362.972 121.67C362.972 122.044 362.887 122.367 362.717 122.639C362.547 122.877 362.292 122.996 361.952 122.996C361.442 122.996 361.051 122.86 360.779 122.588L359.147 122.333H358.892L358.637 122.588V122.741C358.705 123.319 358.739 124.662 358.739 126.77C358.739 128.096 358.722 129.303 358.688 130.391L358.637 134.012C358.637 135.338 358.688 136.698 358.79 138.092C358.824 138.874 358.994 139.401 359.3 139.673C359.606 139.911 360.167 140.03 360.983 140.03L361.901 139.979C362.207 139.945 362.547 139.928 362.921 139.928C363.907 139.928 364.4 140.149 364.4 140.591C364.4 141.203 363.652 141.509 362.156 141.509H357.974ZM370.615 141.458C370.241 141.39 369.884 141.237 369.544 140.999C369.204 140.795 369.017 140.54 368.983 140.234L369.238 139.826C369.374 139.826 369.68 139.877 370.156 139.979C370.53 140.115 370.836 140.183 371.074 140.183C371.822 140.183 372.485 139.894 373.063 139.316C373.641 138.704 374.083 137.922 374.389 136.97C374.865 135.202 375.103 133.536 375.103 131.972C375.103 129.626 374.389 127.11 372.961 124.424C372.077 122.86 371.397 121.619 370.921 120.701C370.445 119.783 370.02 118.729 369.646 117.539C369.204 116.145 368.983 114.802 368.983 113.51C368.983 112.286 369.289 110.841 369.901 109.175C370.207 108.393 370.632 107.764 371.176 107.288C371.754 106.778 372.366 106.523 373.012 106.523C373.454 106.523 373.879 106.676 374.287 106.982C374.729 107.288 374.95 107.611 374.95 107.951C374.95 108.223 374.729 108.359 374.287 108.359C374.151 108.359 373.981 108.308 373.777 108.206C373.573 108.104 373.386 108.053 373.216 108.053C372.706 108.053 372.247 108.257 371.839 108.665C371.431 109.073 371.125 109.6 370.921 110.246C370.513 111.504 370.309 112.66 370.309 113.714C370.309 114.36 370.394 115.023 370.564 115.703C370.598 115.907 370.632 116.077 370.666 116.213C370.7 116.349 370.717 116.451 370.717 116.519L371.023 117.539L371.278 118.457L371.686 119.375C371.788 119.613 371.89 119.834 371.992 120.038C372.128 120.208 372.247 120.378 372.349 120.548L372.961 121.619C373.097 121.823 373.386 122.316 373.828 123.098C374.27 123.846 374.678 124.645 375.052 125.495C375.392 126.209 375.647 126.889 375.817 127.535C375.987 128.147 376.14 128.895 376.276 129.779C376.378 130.629 376.429 131.564 376.429 132.584C376.429 134.216 376.208 135.746 375.766 137.174C375.154 138.874 374.27 140.064 373.114 140.744C372.468 141.152 371.72 141.356 370.87 141.356L370.615 141.458ZM374.695 108.206C374.695 108.172 374.678 108.155 374.644 108.155V108.206H374.695ZM382.169 141.458C381.795 141.39 381.438 141.237 381.098 140.999C380.758 140.795 380.571 140.54 380.537 140.234L380.792 139.826C380.928 139.826 381.234 139.877 381.71 139.979C382.084 140.115 382.39 140.183 382.628 140.183C383.376 140.183 384.039 139.894 384.617 139.316C385.195 138.704 385.637 137.922 385.943 136.97C386.419 135.202 386.657 133.536 386.657 131.972C386.657 129.626 385.943 127.11 384.515 124.424C383.631 122.86 382.951 121.619 382.475 120.701C381.999 119.783 381.574 118.729 381.2 117.539C380.758 116.145 380.537 114.802 380.537 113.51C380.537 112.286 380.843 110.841 381.455 109.175C381.761 108.393 382.186 107.764 382.73 107.288C383.308 106.778 383.92 106.523 384.566 106.523C385.008 106.523 385.433 106.676 385.841 106.982C386.283 107.288 386.504 107.611 386.504 107.951C386.504 108.223 386.283 108.359 385.841 108.359C385.705 108.359 385.535 108.308 385.331 108.206C385.127 108.104 384.94 108.053 384.77 108.053C384.26 108.053 383.801 108.257 383.393 108.665C382.985 109.073 382.679 109.6 382.475 110.246C382.067 111.504 381.863 112.66 381.863 113.714C381.863 114.36 381.948 115.023 382.118 115.703C382.152 115.907 382.186 116.077 382.22 116.213C382.254 116.349 382.271 116.451 382.271 116.519L382.577 117.539L382.832 118.457L383.24 119.375C383.342 119.613 383.444 119.834 383.546 120.038C383.682 120.208 383.801 120.378 383.903 120.548L384.515 121.619C384.651 121.823 384.94 122.316 385.382 123.098C385.824 123.846 386.232 124.645 386.606 125.495C386.946 126.209 387.201 126.889 387.371 127.535C387.541 128.147 387.694 128.895 387.83 129.779C387.932 130.629 387.983 131.564 387.983 132.584C387.983 134.216 387.762 135.746 387.32 137.174C386.708 138.874 385.824 140.064 384.668 140.744C384.022 141.152 383.274 141.356 382.424 141.356L382.169 141.458ZM386.249 108.206C386.249 108.172 386.232 108.155 386.198 108.155V108.206H386.249Z" fill="black"/>
</svg>
