<svg width="421" height="183" viewBox="0 0 421 183" fill="none" xmlns="http://www.w3.org/2000/svg">
<path d="M0 10C0 4.47716 4.47715 0 10 0H411C416.523 0 421 4.47715 421 10V173C421 178.523 416.523 183 411 183H10C4.47716 183 0 178.523 0 173V10Z" fill="#0B7474"/>
<g clip-path="url(#clip0_225_332)">
<path d="M209.271 161.39L204.81 160.022C204.666 159.978 204.511 159.993 204.378 160.064C204.245 160.134 204.146 160.255 204.102 160.398L203.021 163.923C202.977 164.067 202.992 164.223 203.062 164.356C203.133 164.488 203.253 164.588 203.397 164.632L208.278 166.128C208.422 166.172 208.577 166.158 208.71 166.087C208.843 166.017 208.942 165.896 208.986 165.752L210.469 160.915L209.271 161.39ZM209.247 160.789L210.809 160.171C210.859 160.151 210.913 160.146 210.965 160.156C211.018 160.165 211.066 160.19 211.106 160.226C211.145 160.262 211.173 160.309 211.187 160.36C211.201 160.412 211.2 160.466 211.185 160.517L209.529 165.919C209.44 166.206 209.242 166.447 208.976 166.588C208.71 166.729 208.399 166.759 208.111 166.671L203.231 165.174C202.943 165.086 202.702 164.887 202.561 164.621C202.42 164.356 202.39 164.045 202.479 163.757L203.559 160.232C203.647 159.944 203.846 159.704 204.112 159.563C204.378 159.421 204.689 159.392 204.976 159.48L209.247 160.789Z" fill="#9FBAFF"/>
<path d="M206.635 162.777C206.75 162.812 206.847 162.892 206.903 162.998C206.96 163.104 206.971 163.229 206.936 163.344C206.901 163.459 206.821 163.555 206.715 163.612C206.609 163.668 206.484 163.68 206.369 163.645C206.254 163.609 206.158 163.53 206.102 163.424C206.045 163.317 206.033 163.193 206.068 163.078C206.104 162.963 206.183 162.866 206.29 162.81C206.396 162.754 206.52 162.742 206.635 162.777ZM205.008 162.278C205.123 162.314 205.22 162.393 205.276 162.499C205.333 162.606 205.345 162.73 205.309 162.845C205.274 162.96 205.194 163.057 205.088 163.113C204.982 163.169 204.857 163.181 204.742 163.146C204.627 163.111 204.531 163.031 204.475 162.925C204.418 162.819 204.406 162.694 204.442 162.579C204.477 162.464 204.556 162.368 204.663 162.311C204.769 162.255 204.893 162.243 205.008 162.278ZM208.262 163.276C208.377 163.311 208.474 163.391 208.53 163.497C208.587 163.603 208.598 163.728 208.563 163.843C208.528 163.958 208.448 164.054 208.342 164.11C208.236 164.167 208.111 164.179 207.996 164.144C207.881 164.108 207.785 164.029 207.728 163.922C207.672 163.816 207.66 163.692 207.695 163.577C207.731 163.462 207.81 163.365 207.917 163.309C208.023 163.252 208.147 163.241 208.262 163.276Z" fill="#9FBAFF"/>
</g>
<g clip-path="url(#clip1_225_332)">
<path fill-rule="evenodd" clip-rule="evenodd" d="M172.09 120.169C173.014 120.661 173.364 121.809 172.872 122.733L169.902 128.308C169.41 129.232 168.263 129.582 167.339 129.09L158.418 124.339C157.494 123.847 157.144 122.699 157.636 121.775L160.606 116.2C161.098 115.276 162.246 114.926 163.169 115.418L172.09 120.169ZM171.08 121.063L162.992 116.755L165.135 121.644C165.253 121.912 165.538 122.065 165.826 122.012L171.08 121.063ZM161.671 116.888L158.751 122.369C158.587 122.677 158.704 123.06 159.012 123.224L167.933 127.975C168.241 128.139 168.623 128.022 168.787 127.714L171.707 122.233L166.051 123.256C165.188 123.412 164.33 122.955 163.978 122.152L161.671 116.888Z" fill="#9FBAFF"/>
</g>
<g clip-path="url(#clip2_225_332)">
<path fill-rule="evenodd" clip-rule="evenodd" d="M196.276 142.422C196.882 142.025 197.695 142.195 198.092 142.801L200.487 146.46C200.884 147.066 200.714 147.879 200.108 148.276L194.253 152.108C193.647 152.505 192.834 152.335 192.437 151.728L190.042 148.069C189.646 147.463 189.815 146.65 190.422 146.253L196.276 142.422ZM196.482 143.332L191.174 146.806L194.855 147.134C195.057 147.152 195.244 147.029 195.309 146.837L196.482 143.332ZM190.815 147.652L193.169 151.249C193.301 151.452 193.572 151.508 193.774 151.376L199.629 147.544C199.831 147.412 199.888 147.141 199.755 146.939L197.401 143.342L196.138 147.115C195.945 147.69 195.383 148.059 194.778 148.005L190.815 147.652Z" fill="#9FBAFF"/>
</g>
<g clip-path="url(#clip3_225_332)">
<path d="M119 132.667C122.682 132.667 125.667 129.682 125.667 126C125.667 122.318 122.682 119.333 119 119.333C115.318 119.333 112.333 122.318 112.333 126C112.333 127.066 112.584 128.074 113.029 128.968C113.147 129.206 113.187 129.477 113.118 129.734L112.721 131.218C112.549 131.862 113.138 132.451 113.782 132.279L115.266 131.882C115.523 131.813 115.794 131.853 116.032 131.971C116.926 132.416 117.934 132.667 119 132.667Z" stroke="#9FBAFF" stroke-width="2"/>
<path d="M119 124.334L118.643 124.684C118.737 124.78 118.866 124.834 119 124.834C119.134 124.834 119.263 124.78 119.357 124.684L119 124.334ZM118.01 127.581C117.622 127.251 117.233 126.869 116.944 126.474C116.65 126.071 116.5 125.708 116.5 125.406H115.5C115.5 126.017 115.79 126.589 116.137 127.064C116.489 127.547 116.943 127.986 117.362 128.343L118.01 127.581ZM116.5 125.406C116.5 124.668 116.83 124.279 117.169 124.152C117.514 124.023 118.063 124.092 118.643 124.684L119.357 123.984C118.587 123.197 117.636 122.91 116.819 123.215C115.995 123.523 115.5 124.36 115.5 125.406H116.5ZM120.638 128.343C121.057 127.986 121.511 127.547 121.863 127.064C122.21 126.589 122.5 126.017 122.5 125.406H121.5C121.5 125.708 121.35 126.071 121.056 126.474C120.767 126.869 120.378 127.251 119.99 127.581L120.638 128.343ZM122.5 125.406C122.5 124.36 122.005 123.523 121.181 123.215C120.364 122.91 119.413 123.197 118.643 123.984L119.357 124.684C119.937 124.092 120.486 124.023 120.831 124.152C121.17 124.279 121.5 124.668 121.5 125.406H122.5ZM117.362 128.343C117.881 128.785 118.295 129.163 119 129.163V128.163C118.724 128.163 118.589 128.073 118.01 127.581L117.362 128.343ZM119.99 127.581C119.411 128.073 119.276 128.163 119 128.163V129.163C119.705 129.163 120.119 128.785 120.638 128.343L119.99 127.581Z" fill="#9FBAFF"/>
</g>
<path d="M162.167 149.51C162.167 155.487 157.263 160.333 151.214 160.333H141.083M147.564 139.302C148.705 138.903 149.934 138.686 151.214 138.686C152.469 138.686 153.674 138.895 154.797 139.279M154.797 139.279C154.188 133.871 149.547 129.667 143.913 129.667C137.864 129.667 132.96 134.513 132.96 140.49C132.96 141.812 133.2 143.079 133.639 144.25M154.797 139.279C156.106 139.726 157.303 140.412 158.333 141.284M133.639 144.25C133.124 144.15 132.592 144.098 132.048 144.098C127.511 144.098 123.833 147.732 123.833 152.216C123.833 156.699 127.511 160.333 132.048 160.333H133.417M133.639 144.25C134.721 144.46 135.727 144.88 136.611 145.465" stroke="#9FBAFF" stroke-width="3" stroke-linecap="round"/>
<g clip-path="url(#clip4_225_332)">
<path fill-rule="evenodd" clip-rule="evenodd" d="M123.971 58.5404C123.358 58.3078 122.835 58.0069 122.423 57.7247C121.52 58.0904 120.533 58.2917 119.5 58.2917C115.197 58.2917 111.708 54.8032 111.708 50.5C111.708 46.1968 115.197 42.7083 119.5 42.7083C123.803 42.7083 127.292 46.1968 127.292 50.5C127.292 52.1142 126.8 53.6155 125.959 54.8599C125.905 55.8888 126.446 56.8185 127.006 57.6411C127.498 58.3616 127.374 58.9422 126.458 58.9941C126.048 59.0174 125.16 58.9911 123.971 58.5404ZM113.125 50.5C113.125 46.9792 115.979 44.125 119.5 44.125C123.021 44.125 125.875 46.9792 125.875 50.5C125.875 51.8815 125.436 53.1585 124.691 54.2019C124.361 54.6637 124.53 55.529 124.644 56.0258C124.754 56.508 124.992 57.0203 125.227 57.4504C125.002 57.3961 124.75 57.3204 124.473 57.2157C123.838 56.9747 123.313 56.6359 122.942 56.3516C122.732 56.1902 122.449 56.1597 122.209 56.2725C121.388 56.6588 120.47 56.875 119.5 56.875C115.979 56.875 113.125 54.0209 113.125 50.5ZM116.688 52.7968C116.578 52.3556 116.926 51.9168 117.375 51.9165H121.625C122.074 51.9168 122.423 52.3539 122.312 52.795C121.946 54.0332 120.765 54.75 119.5 54.75C118.284 54.75 116.999 54.0407 116.688 52.7968ZM122.688 49.0833C122.688 49.6701 122.212 50.1458 121.625 50.1458C121.038 50.1458 120.563 49.6701 120.563 49.0833C120.563 48.4965 121.038 48.0208 121.625 48.0208C122.212 48.0208 122.688 48.4965 122.688 49.0833ZM117.375 50.1458C117.962 50.1458 118.438 49.6701 118.438 49.0833C118.438 48.4965 117.962 48.0208 117.375 48.0208C116.788 48.0208 116.313 48.4965 116.313 49.0833C116.313 49.6701 116.788 50.1458 117.375 50.1458Z" fill="#9FBAFF"/>
</g>
<g clip-path="url(#clip5_225_332)">
<path fill-rule="evenodd" clip-rule="evenodd" d="M43.765 25.6562C44.1401 25.3393 44.5271 25.1065 44.8615 24.9395C44.9504 24.2153 45.1774 23.4962 45.5527 22.8204C47.1166 20.0041 50.6675 18.9888 53.4838 20.5527C56.3001 22.1166 57.3154 25.6675 55.7515 28.4838C54.1876 31.3001 50.6367 32.3154 47.8204 30.7515C46.764 30.1649 45.9601 29.2975 45.4515 28.2945C44.7975 27.8856 43.9927 27.9014 43.2504 27.9695C42.6004 28.0291 42.2652 27.7375 42.5641 27.1191C42.6981 26.842 43.038 26.2704 43.765 25.6562ZM52.9689 21.4799C55.2732 22.7594 56.1039 25.6647 54.8243 27.969C53.5448 30.2732 50.6395 31.1039 48.3352 29.8243C47.4311 29.3223 46.7548 28.5711 46.3429 27.7039C46.1606 27.3201 45.5326 27.1167 45.1663 27.0102C44.8108 26.9069 44.3889 26.8767 44.0218 26.8745C44.1393 26.7467 44.2805 26.609 44.4494 26.4663C44.8382 26.138 45.2508 25.9173 45.5715 25.7782C45.7535 25.6993 45.8762 25.5253 45.8895 25.3274C45.9352 24.6495 46.1273 23.9702 46.4799 23.3353C47.7594 21.031 50.6647 20.2003 52.9689 21.4799ZM50.1709 22.977C50.4998 23.0651 50.6603 23.4526 50.4973 23.7466L48.9527 26.5281C48.7895 26.8215 48.3767 26.8911 48.128 26.6586C47.4509 25.9685 47.411 24.9352 47.8706 24.1076C48.3125 23.3118 49.2438 22.7284 50.1709 22.977ZM50.4208 28.2531C50.0368 28.0398 49.8983 27.5556 50.1116 27.1716C50.3249 26.7875 50.8091 26.6491 51.1931 26.8623C51.5772 27.0756 51.7156 27.5598 51.5023 27.9439C51.2891 28.3279 50.8049 28.4663 50.4208 28.2531ZM51.6562 24.3901C51.4429 24.7741 51.5814 25.2583 51.9654 25.4716C52.3494 25.6849 52.8337 25.5464 53.0469 25.1624C53.2602 24.7783 53.1217 24.2941 52.7377 24.0809C52.3537 23.8676 51.8694 24.006 51.6562 24.3901Z" fill="#9FBAFF"/>
</g>
<path d="M48.0317 43.1669C47.829 43.4441 47.8893 43.8333 48.1666 44.0361C48.4439 44.2389 48.8331 44.1785 49.0358 43.9012L48.0317 43.1669ZM51.9353 44.5026L51.3183 44.5811C51.3398 44.7506 51.4302 44.9038 51.5681 45.0046C51.706 45.1055 51.8794 45.1452 52.0474 45.1143L51.9353 44.5026ZM48.7837 46.4108C48.7011 46.0773 48.3639 45.8739 48.0304 45.9565C47.6969 46.039 47.4935 46.3762 47.5761 46.7097L48.7837 46.4108ZM49.0358 43.9012C49.3858 43.4227 49.9299 43.2361 50.3733 43.3243C50.7712 43.4035 51.2102 43.7324 51.3183 44.5811L52.5523 44.424C52.3862 43.119 51.6085 42.3018 50.6162 42.1043C49.6694 41.9158 48.6498 42.3218 48.0317 43.1669L49.0358 43.9012ZM47.8517 47.7199C47.9073 47.9258 47.9751 48.1761 48.0715 48.4019C48.1676 48.6273 48.3188 48.8946 48.5822 49.0873L49.3165 48.0832C49.3122 48.08 49.2724 48.0467 49.2156 47.9137C49.1591 47.7812 49.1121 47.6158 49.0526 47.3956L47.8517 47.7199ZM50.1066 49.3691C50.6845 49.3435 51.4804 49.3495 52.2262 49.1817C53.0035 49.0068 53.7944 48.6336 54.391 47.8178L53.3869 47.0835C53.0155 47.5913 52.5263 47.839 51.9532 47.968C51.3485 48.104 50.7235 48.0967 50.0518 48.1263L50.1066 49.3691ZM54.391 47.8178C55.0091 46.9727 55.087 45.8781 54.6205 45.0329C54.1316 44.1471 53.1171 43.6536 51.8232 43.8908L52.0474 45.1143C52.889 44.9601 53.3354 45.2789 53.5314 45.634C53.7499 46.0299 53.7369 46.6049 53.3869 47.0835L54.391 47.8178ZM50.0518 48.1263C49.8239 48.1364 49.652 48.1418 49.5086 48.128C49.3647 48.1142 49.3209 48.0864 49.3165 48.0832L48.5822 49.0873C48.8456 49.2799 49.1462 49.343 49.3901 49.3663C49.6345 49.3897 49.8936 49.3784 50.1066 49.3691L50.0518 48.1263ZM49.0526 47.3956C48.96 47.0526 48.8682 46.7524 48.7837 46.4108L47.5761 46.7097C47.6631 47.0612 47.7738 47.4314 47.8517 47.7199L49.0526 47.3956Z" fill="#9FBAFF"/>
<path d="M22.5 8.08334V10.1667" stroke="#9FBAFF" stroke-width="2" stroke-linecap="round"/>
<path d="M22.5 26.8333V28.9167" stroke="#9FBAFF" stroke-width="2" stroke-linecap="round"/>
<path d="M12.0833 18.5H14.1667" stroke="#9FBAFF" stroke-width="2" stroke-linecap="round"/>
<path d="M30.8333 18.5H32.9167" stroke="#9FBAFF" stroke-width="2" stroke-linecap="round"/>
<path d="M16.25 24.75L16.6073 24.3927" stroke="#9FBAFF" stroke-width="2" stroke-linecap="round"/>
<path d="M28.3924 12.6076L28.75 12.25" stroke="#9FBAFF" stroke-width="2" stroke-linecap="round"/>
<path d="M28.75 24.75L28.3927 24.3927" stroke="#9FBAFF" stroke-width="2" stroke-linecap="round"/>
<path d="M16.6076 12.6076L16.25 12.25" stroke="#9FBAFF" stroke-width="2" stroke-linecap="round"/>
<path d="M17.5521 17.8538C17.5521 18.2852 17.9019 18.635 18.3333 18.635C18.7648 18.635 19.1146 18.2852 19.1146 17.8538H17.5521ZM22.5 16.3135L21.9327 16.8506C22.0802 17.0065 22.2854 17.0948 22.5 17.0948C22.7146 17.0948 22.9198 17.0065 23.0673 16.8506L22.5 16.3135ZM20.7197 20.585C20.3887 20.3081 19.896 20.352 19.6191 20.6829C19.3423 21.0139 19.3861 21.5066 19.717 21.7834L20.7197 20.585ZM19.1146 17.8538C19.1146 17.1091 19.5278 16.5165 20.0428 16.2771C20.5049 16.0624 21.1939 16.0703 21.9327 16.8506L23.0673 15.7764C21.9313 14.5765 20.5369 14.3246 19.3844 14.8601C18.2847 15.3711 17.5521 16.5387 17.5521 17.8538H19.1146ZM20.7455 22.6032C20.9546 22.7707 21.2089 22.9743 21.4741 23.1318C21.7386 23.289 22.0901 23.4479 22.5 23.4479V21.8854C22.4932 21.8854 22.4281 21.8812 22.272 21.7884C22.1165 21.696 21.9462 21.5631 21.7226 21.384L20.7455 22.6032ZM24.2545 22.6032C24.8215 22.1489 25.6327 21.5648 26.2644 20.8417C26.9228 20.088 27.4479 19.1232 27.4479 17.8538H25.8854C25.8854 18.6441 25.5731 19.2579 25.0877 19.8137C24.5755 20.3999 23.9365 20.8558 23.2774 21.384L24.2545 22.6032ZM27.4479 17.8538C27.4479 16.5387 26.7153 15.3711 25.6156 14.8601C24.4631 14.3246 23.0688 14.5765 21.9327 15.7764L23.0673 16.8506C23.8062 16.0703 24.4951 16.0624 24.9572 16.2771C25.4722 16.5165 25.8854 17.1091 25.8854 17.8538H27.4479ZM23.2774 21.384C23.0539 21.5631 22.8836 21.696 22.728 21.7884C22.5719 21.8812 22.5068 21.8854 22.5 21.8854V23.4479C22.9099 23.4479 23.2615 23.289 23.5259 23.1318C23.7912 22.9743 24.0454 22.7707 24.2545 22.6032L23.2774 21.384ZM21.7226 21.384C21.3744 21.1049 21.0587 20.8687 20.7197 20.585L19.717 21.7834C20.066 22.0753 20.4526 22.3685 20.7455 22.6032L21.7226 21.384Z" fill="#9FBAFF"/>
<g clip-path="url(#clip6_225_332)">
<path d="M20.1567 41.7701C20.9423 41.4361 21.8267 41.3093 22.7315 41.4474C25.3361 41.845 27.124 44.2875 26.7248 46.9029C26.6519 47.3801 26.3763 48.4499 25.857 48.9116L26.4142 49.6728C26.8785 50.3071 26.9457 49.8666 27.4181 49.7133C27.4181 49.7133 28.2699 49.2799 28.9535 49.9477C29.3418 50.3451 29.8148 51.3639 28.6005 52.2604L28.7862 52.5141C28.7862 52.5141 29.6548 51.9706 30.3385 52.6384C30.7268 53.0357 31.031 53.9837 30.1456 54.6374C30.1766 54.6797 30.3499 54.9165 30.7957 55.5255C31.2414 56.1345 30.8357 56.7337 30.5772 56.9571L29.8182 57.5174C29.1099 58.0404 28.4994 57.5791 28.2827 57.2831L23.4537 50.6859C23.4537 50.6859 22.4922 51.1026 21.2858 50.9184C18.6811 50.5208 16.8933 48.0784 17.2925 45.4631C17.3861 44.8495 17.5919 44.2808 17.8855 43.7751" stroke="#9FBAFF" stroke-linecap="round" stroke-linejoin="round"/>
<path d="M22.2608 44.531C23.1694 44.6697 23.7931 45.5217 23.6538 46.4341C23.5145 47.3464 22.6651 47.9736 21.7565 47.8349C20.8479 47.6962 20.2242 46.8441 20.3635 45.9318C20.5028 45.0195 21.3522 44.3923 22.2608 44.531Z" stroke="#9FBAFF"/>
</g>
<g clip-path="url(#clip7_225_332)">
<path fill-rule="evenodd" clip-rule="evenodd" d="M92.6364 36C95.0464 36 97 37.9308 97 40.3125V54.6875C97 57.0693 95.0464 59 92.6364 59H69.3636C66.9537 59 65 57.0693 65 54.6875V40.3125C65 37.9308 66.9537 36 69.3636 36H92.6364ZM91.5497 38.875H70.4504L80.0988 46.4028C80.6272 46.8152 81.3728 46.8152 81.9014 46.4028L91.5497 38.875ZM67.9091 40.5552V54.6875C67.9091 55.4814 68.5603 56.125 69.3636 56.125H92.6364C93.4397 56.125 94.0909 55.4814 94.0909 54.6875V40.5552L83.7039 48.6593C82.1185 49.8963 79.8815 49.8963 78.2961 48.6593L67.9091 40.5552Z" fill="#9FBAFF"/>
</g>
<path d="M181 136.308L183.5 134L186 136.308M181 139L183.5 136.692L186 139" stroke="#9FBAFF" stroke-linecap="round" stroke-linejoin="round"/>
<path d="M148.438 116.158L145.813 116.952L144.812 114.398M149.386 114.205L146.761 114.999L145.759 112.446" stroke="#9FBAFF" stroke-linecap="round" stroke-linejoin="round"/>
<path d="M175.837 145.362C175.837 145.63 175.62 145.848 175.352 145.848C175.084 145.848 174.866 145.63 174.866 145.362H175.837ZM172.764 144.406L173.116 144.739C173.024 144.836 172.897 144.891 172.764 144.891C172.63 144.891 172.503 144.836 172.411 144.739L172.764 144.406ZM173.869 147.059C174.075 146.887 174.381 146.914 174.553 147.119C174.725 147.325 174.698 147.631 174.492 147.803L173.869 147.059ZM174.866 145.362C174.866 144.9 174.61 144.532 174.29 144.383C174.003 144.25 173.575 144.255 173.116 144.739L172.411 144.072C173.117 143.327 173.983 143.17 174.699 143.503C175.382 143.82 175.837 144.545 175.837 145.362H174.866ZM173.853 148.312C173.724 148.416 173.566 148.543 173.401 148.64C173.237 148.738 173.018 148.837 172.764 148.837V147.866C172.768 147.866 172.808 147.864 172.905 147.806C173.002 147.749 173.108 147.666 173.247 147.555L173.853 148.312ZM171.674 148.312C171.322 148.03 170.818 147.667 170.426 147.218C170.017 146.75 169.691 146.151 169.691 145.362H170.661C170.661 145.853 170.855 146.234 171.156 146.58C171.475 146.944 171.871 147.227 172.281 147.555L171.674 148.312ZM169.691 145.362C169.691 144.545 170.146 143.82 170.829 143.503C171.544 143.17 172.41 143.327 173.116 144.072L172.411 144.739C171.952 144.255 171.525 144.25 171.238 144.383C170.918 144.532 170.661 144.9 170.661 145.362H169.691ZM172.281 147.555C172.42 147.666 172.525 147.749 172.622 147.806C172.719 147.864 172.759 147.866 172.764 147.866V148.837C172.509 148.837 172.291 148.738 172.126 148.64C171.962 148.543 171.804 148.416 171.674 148.312L172.281 147.555ZM173.247 147.555C173.463 147.382 173.659 147.235 173.869 147.059L174.492 147.803C174.275 147.984 174.035 148.166 173.853 148.312L173.247 147.555Z" fill="#9FBAFF"/>
<g clip-path="url(#clip8_225_332)">
<path d="M111.068 79.9936L116.536 75.5391C116.712 75.3955 116.824 75.1877 116.847 74.9615C116.87 74.7353 116.803 74.5092 116.659 74.3329L113.139 70.0125C112.996 69.8362 112.788 69.7242 112.562 69.7011C112.335 69.678 112.109 69.7457 111.933 69.8893L105.951 74.763C105.775 74.9066 105.663 75.1143 105.64 75.3405C105.616 75.5667 105.684 75.7929 105.828 75.9691L110.658 81.8981L111.068 79.9936ZM111.843 80.4682L111.307 82.9504C111.29 83.0292 111.251 83.1016 111.195 83.1593C111.139 83.217 111.067 83.2576 110.989 83.2764C110.91 83.2953 110.828 83.2916 110.752 83.2658C110.675 83.2401 110.608 83.1933 110.557 83.1308L105.163 76.5107C104.876 76.1581 104.74 75.7059 104.787 75.2535C104.833 74.801 105.057 74.3855 105.409 74.0983L111.391 69.2247C111.744 68.9374 112.196 68.802 112.649 68.8482C113.101 68.8944 113.517 69.1184 113.804 69.471L117.324 73.7914C117.611 74.144 117.746 74.5962 117.7 75.0486C117.654 75.501 117.43 75.9165 117.077 76.2038L111.843 80.4682Z" fill="#9FBAFF"/>
<path d="M111.541 75.5166C111.4 75.6315 111.219 75.6857 111.038 75.6672C110.857 75.6487 110.691 75.5591 110.576 75.4181C110.461 75.277 110.407 75.0961 110.426 74.9152C110.444 74.7342 110.534 74.568 110.675 74.4531C110.816 74.3382 110.997 74.2841 111.178 74.3025C111.359 74.321 111.525 74.4106 111.64 74.5516C111.755 74.6927 111.809 74.8736 111.79 75.0545C111.772 75.2355 111.682 75.4017 111.541 75.5166ZM113.535 73.8921C113.394 74.007 113.213 74.0611 113.032 74.0426C112.851 74.0242 112.685 73.9346 112.57 73.7935C112.455 73.6525 112.401 73.4716 112.42 73.2906C112.438 73.1097 112.528 72.9435 112.669 72.8286C112.81 72.7137 112.991 72.6595 113.172 72.678C113.353 72.6965 113.519 72.7861 113.634 72.9271C113.749 73.0681 113.803 73.249 113.784 73.43C113.766 73.611 113.676 73.7772 113.535 73.8921ZM109.547 77.1411C109.406 77.256 109.225 77.3102 109.044 77.2917C108.863 77.2732 108.697 77.1836 108.582 77.0426C108.467 76.9016 108.413 76.7207 108.432 76.5397C108.45 76.3588 108.54 76.1925 108.681 76.0777C108.822 75.9628 109.003 75.9086 109.184 75.9271C109.365 75.9455 109.531 76.0352 109.646 76.1762C109.761 76.3172 109.815 76.4981 109.796 76.6791C109.778 76.86 109.688 77.0262 109.547 77.1411Z" fill="#9FBAFF"/>
</g>
<g clip-path="url(#clip9_225_332)">
<path d="M171.645 165.145C171.839 164.227 172.282 163.35 172.976 162.622C174.975 160.526 178.302 160.454 180.406 162.461C180.79 162.828 181.581 163.75 181.669 164.508L182.706 164.486C183.57 164.467 183.216 164.129 183.375 163.607C183.375 163.607 183.521 162.567 184.554 162.372C185.156 162.272 186.372 162.488 186.415 164.146L186.76 164.139C186.76 164.139 186.818 163.014 187.85 162.819C188.453 162.719 189.498 163.042 189.529 164.252C189.587 164.251 189.91 164.244 190.739 164.226C191.568 164.208 191.853 164.951 191.891 165.325L191.918 166.361C191.943 167.329 191.142 167.588 190.739 167.597L181.754 167.791C181.754 167.791 181.523 168.92 180.598 169.891C178.598 171.987 175.272 172.059 173.167 170.052C172.673 169.581 172.291 169.037 172.02 168.454" stroke="#9FBAFF" stroke-linecap="round" stroke-linejoin="round"/>
<path d="M175.457 164.989C176.155 164.257 177.315 164.232 178.049 164.933C178.784 165.633 178.814 166.793 178.116 167.524C177.419 168.255 176.258 168.281 175.524 167.58C174.79 166.88 174.76 165.72 175.457 164.989Z" stroke="#9FBAFF"/>
</g>
<path d="M58.4473 106H47.5312V86.7256H58.4473V89.3887H50.6953V94.6226H57.9595V97.2725H50.6953V103.324H58.4473V106ZM69.9038 91.1289C71.5474 91.1289 72.8262 91.5552 73.7402 92.4077C74.6631 93.2515 75.1245 94.6094 75.1245 96.4814V106H72.0264V97.0615C72.0264 95.9277 71.7935 95.0796 71.3276 94.5171C70.8618 93.9458 70.1411 93.6602 69.1655 93.6602C67.7505 93.6602 66.7661 94.0952 66.2124 94.9653C65.6675 95.8354 65.395 97.0967 65.395 98.749V106H62.2969V91.4058H64.7095L65.1445 93.3833H65.3159C65.6323 92.8735 66.0234 92.4561 66.4893 92.1309C66.9639 91.7969 67.4912 91.5464 68.0713 91.3794C68.6602 91.2124 69.271 91.1289 69.9038 91.1289ZM85.3418 106.264C83.9619 106.264 82.7666 105.996 81.7559 105.459C80.7451 104.923 79.9673 104.102 79.4224 102.994C78.8774 101.887 78.605 100.48 78.605 98.7754C78.605 97 78.9038 95.5498 79.5015 94.4248C80.0991 93.2998 80.9253 92.4692 81.98 91.9331C83.0435 91.397 84.2607 91.1289 85.6318 91.1289C86.502 91.1289 87.2886 91.2168 87.9917 91.3926C88.7036 91.5596 89.3057 91.7661 89.7979 92.0122L88.875 94.4907C88.3389 94.271 87.7896 94.0864 87.2271 93.937C86.6646 93.7876 86.124 93.7129 85.6055 93.7129C84.7529 93.7129 84.041 93.9019 83.4697 94.2798C82.9072 94.6577 82.4854 95.2202 82.2041 95.9673C81.9316 96.7144 81.7954 97.6416 81.7954 98.749C81.7954 99.8213 81.936 100.727 82.2173 101.465C82.4985 102.194 82.916 102.748 83.4697 103.126C84.0234 103.495 84.7046 103.68 85.5132 103.68C86.313 103.68 87.0293 103.583 87.6621 103.39C88.2949 103.196 88.8926 102.946 89.4551 102.638V105.328C88.9014 105.644 88.3081 105.877 87.6753 106.026C87.0425 106.185 86.2646 106.264 85.3418 106.264ZM100.279 91.1289C100.525 91.1289 100.793 91.1421 101.083 91.1685C101.373 91.1948 101.624 91.23 101.834 91.2739L101.544 94.1743C101.36 94.1216 101.131 94.082 100.859 94.0557C100.595 94.0293 100.358 94.0161 100.147 94.0161C99.5933 94.0161 99.0659 94.1084 98.5649 94.293C98.064 94.4688 97.6201 94.7412 97.2334 95.1104C96.8467 95.4707 96.5435 95.9233 96.3237 96.4683C96.104 97.0132 95.9941 97.646 95.9941 98.3667V106H92.8828V91.4058H95.3086L95.7305 93.9766H95.8755C96.1655 93.458 96.5259 92.9834 96.9565 92.5527C97.3872 92.1221 97.8794 91.7793 98.4331 91.5244C98.9956 91.2607 99.6108 91.1289 100.279 91.1289ZM102.335 91.4058H105.71L108.703 99.7378C108.835 100.116 108.954 100.489 109.059 100.858C109.173 101.219 109.27 101.575 109.349 101.926C109.437 102.278 109.507 102.629 109.56 102.981H109.639C109.727 102.524 109.85 102.014 110.008 101.452C110.175 100.88 110.36 100.309 110.562 99.7378L113.436 91.4058H116.771L110.509 108.004C110.149 108.953 109.705 109.762 109.178 110.43C108.659 111.106 108.044 111.616 107.332 111.959C106.62 112.311 105.807 112.486 104.893 112.486C104.454 112.486 104.071 112.46 103.746 112.407C103.421 112.363 103.144 112.315 102.916 112.262V109.784C103.1 109.828 103.333 109.867 103.614 109.902C103.896 109.938 104.186 109.955 104.484 109.955C105.038 109.955 105.517 109.845 105.921 109.625C106.326 109.406 106.668 109.094 106.95 108.689C107.231 108.294 107.464 107.841 107.648 107.332L108.163 105.96L102.335 91.4058ZM126.475 91.1289C128.206 91.1289 129.595 91.7617 130.641 93.0273C131.695 94.293 132.223 96.1738 132.223 98.6699C132.223 100.322 131.977 101.715 131.484 102.849C131.001 103.974 130.32 104.827 129.441 105.407C128.571 105.978 127.556 106.264 126.396 106.264C125.657 106.264 125.016 106.167 124.471 105.974C123.926 105.78 123.46 105.53 123.073 105.222C122.687 104.906 122.361 104.563 122.098 104.194H121.913C121.957 104.545 121.997 104.937 122.032 105.367C122.076 105.789 122.098 106.176 122.098 106.527V112.473H118.986V91.4058H121.518L121.953 93.4229H122.098C122.37 93.0098 122.7 92.6274 123.086 92.2759C123.482 91.9243 123.957 91.6475 124.51 91.4453C125.073 91.2344 125.728 91.1289 126.475 91.1289ZM125.644 93.6602C124.792 93.6602 124.106 93.8315 123.587 94.1743C123.078 94.5083 122.704 95.0137 122.467 95.6904C122.238 96.3672 122.115 97.2153 122.098 98.2349V98.6699C122.098 99.751 122.208 100.669 122.427 101.425C122.656 102.172 123.029 102.744 123.548 103.139C124.075 103.526 124.787 103.719 125.684 103.719C126.439 103.719 127.063 103.513 127.556 103.1C128.057 102.687 128.43 102.098 128.676 101.333C128.922 100.568 129.045 99.6675 129.045 98.6304C129.045 97.0571 128.764 95.8354 128.202 94.9653C127.648 94.0952 126.795 93.6602 125.644 93.6602ZM141.24 103.759C141.645 103.759 142.044 103.724 142.44 103.653C142.835 103.574 143.196 103.482 143.521 103.376V105.723C143.178 105.873 142.734 106 142.189 106.105C141.645 106.211 141.078 106.264 140.489 106.264C139.663 106.264 138.92 106.127 138.261 105.855C137.602 105.574 137.079 105.095 136.692 104.418C136.305 103.741 136.112 102.805 136.112 101.61V93.7656H134.121V92.3813L136.257 91.2871L137.272 88.1626H139.223V91.4058H143.402V93.7656H139.223V101.57C139.223 102.309 139.408 102.858 139.777 103.218C140.146 103.579 140.634 103.759 141.24 103.759ZM152.301 91.1289C153.602 91.1289 154.718 91.397 155.65 91.9331C156.582 92.4692 157.298 93.2295 157.799 94.2139C158.3 95.1982 158.55 96.376 158.55 97.7471V99.4082H148.808C148.843 100.823 149.221 101.913 149.941 102.678C150.671 103.442 151.69 103.825 153 103.825C153.932 103.825 154.767 103.737 155.505 103.561C156.252 103.376 157.021 103.108 157.812 102.757V105.275C157.083 105.618 156.34 105.868 155.584 106.026C154.828 106.185 153.923 106.264 152.868 106.264C151.436 106.264 150.174 105.987 149.084 105.433C148.003 104.871 147.155 104.036 146.54 102.928C145.934 101.821 145.63 100.445 145.63 98.8018C145.63 97.167 145.907 95.7783 146.461 94.6357C147.015 93.4932 147.792 92.623 148.794 92.0254C149.796 91.4277 150.965 91.1289 152.301 91.1289ZM152.301 93.4624C151.326 93.4624 150.535 93.7788 149.928 94.4116C149.331 95.0444 148.979 95.9717 148.874 97.1934H155.518C155.509 96.4639 155.386 95.8179 155.149 95.2554C154.92 94.6929 154.569 94.2534 154.094 93.937C153.628 93.6206 153.031 93.4624 152.301 93.4624ZM166.948 106.264C165.208 106.264 163.811 105.631 162.756 104.365C161.71 103.091 161.187 101.214 161.187 98.7358C161.187 96.231 161.719 94.3369 162.782 93.0537C163.854 91.7705 165.265 91.1289 167.014 91.1289C167.752 91.1289 168.398 91.23 168.952 91.4321C169.506 91.6255 169.98 91.8892 170.376 92.2231C170.78 92.5571 171.123 92.9307 171.404 93.3438H171.549C171.505 93.0713 171.453 92.6802 171.391 92.1704C171.338 91.6519 171.312 91.1729 171.312 90.7334V85.4863H174.423V106H171.998L171.444 104.009H171.312C171.048 104.431 170.714 104.813 170.31 105.156C169.915 105.49 169.44 105.758 168.886 105.96C168.341 106.163 167.695 106.264 166.948 106.264ZM167.818 103.746C169.146 103.746 170.082 103.363 170.626 102.599C171.171 101.834 171.453 100.687 171.47 99.1577V98.749C171.47 97.1143 171.207 95.8618 170.679 94.9917C170.152 94.1128 169.189 93.6733 167.792 93.6733C166.676 93.6733 165.823 94.126 165.234 95.0312C164.654 95.9277 164.364 97.1802 164.364 98.7886C164.364 100.397 164.654 101.627 165.234 102.48C165.823 103.324 166.685 103.746 167.818 103.746ZM191.76 106.264C190.38 106.264 189.185 105.996 188.174 105.459C187.163 104.923 186.385 104.102 185.84 102.994C185.295 101.887 185.023 100.48 185.023 98.7754C185.023 97 185.322 95.5498 185.919 94.4248C186.517 93.2998 187.343 92.4692 188.398 91.9331C189.461 91.397 190.679 91.1289 192.05 91.1289C192.92 91.1289 193.707 91.2168 194.41 91.3926C195.122 91.5596 195.724 91.7661 196.216 92.0122L195.293 94.4907C194.757 94.271 194.208 94.0864 193.645 93.937C193.083 93.7876 192.542 93.7129 192.023 93.7129C191.171 93.7129 190.459 93.9019 189.888 94.2798C189.325 94.6577 188.903 95.2202 188.622 95.9673C188.35 96.7144 188.213 97.6416 188.213 98.749C188.213 99.8213 188.354 100.727 188.635 101.465C188.917 102.194 189.334 102.748 189.888 103.126C190.441 103.495 191.123 103.68 191.931 103.68C192.731 103.68 193.447 103.583 194.08 103.39C194.713 103.196 195.311 102.946 195.873 102.638V105.328C195.319 105.644 194.726 105.877 194.093 106.026C193.46 106.185 192.683 106.264 191.76 106.264ZM202.399 85.4863V90.6411C202.399 91.1772 202.381 91.7002 202.346 92.21C202.32 92.7197 202.289 93.1152 202.254 93.3965H202.425C202.733 92.8867 203.111 92.4692 203.559 92.144C204.007 91.8101 204.508 91.5596 205.062 91.3926C205.625 91.2256 206.222 91.1421 206.855 91.1421C207.971 91.1421 208.92 91.3311 209.703 91.709C210.485 92.0781 211.083 92.6538 211.496 93.436C211.917 94.2183 212.128 95.2334 212.128 96.4814V106H209.03V97.0615C209.03 95.9277 208.797 95.0796 208.332 94.5171C207.866 93.9458 207.145 93.6602 206.169 93.6602C205.229 93.6602 204.482 93.8579 203.928 94.2534C203.383 94.6401 202.992 95.2158 202.755 95.9805C202.518 96.7363 202.399 97.6592 202.399 98.749V106H199.301V85.4863H202.399ZM222.188 91.1289C224.033 91.1289 225.426 91.5376 226.367 92.355C227.316 93.1724 227.791 94.4468 227.791 96.1782V106H225.589L224.996 103.93H224.89C224.477 104.458 224.051 104.893 223.611 105.235C223.172 105.578 222.662 105.833 222.082 106C221.511 106.176 220.812 106.264 219.986 106.264C219.116 106.264 218.338 106.105 217.652 105.789C216.967 105.464 216.426 104.972 216.031 104.312C215.635 103.653 215.438 102.818 215.438 101.808C215.438 100.305 215.996 99.1753 217.112 98.4194C218.237 97.6636 219.933 97.2461 222.201 97.167L224.732 97.0747V96.3101C224.732 95.2993 224.495 94.5786 224.02 94.1479C223.554 93.7173 222.895 93.502 222.042 93.502C221.313 93.502 220.605 93.6074 219.92 93.8184C219.234 94.0293 218.566 94.2886 217.916 94.5962L216.914 92.4077C217.626 92.0298 218.435 91.7222 219.34 91.4849C220.254 91.2476 221.203 91.1289 222.188 91.1289ZM224.719 99.0259L222.833 99.0918C221.287 99.1445 220.201 99.4082 219.577 99.8828C218.953 100.357 218.641 101.008 218.641 101.834C218.641 102.555 218.856 103.082 219.287 103.416C219.718 103.741 220.285 103.904 220.988 103.904C222.06 103.904 222.948 103.601 223.651 102.994C224.363 102.379 224.719 101.478 224.719 100.292V99.0259ZM237.56 103.759C237.964 103.759 238.364 103.724 238.759 103.653C239.155 103.574 239.515 103.482 239.84 103.376V105.723C239.498 105.873 239.054 106 238.509 106.105C237.964 106.211 237.397 106.264 236.808 106.264C235.982 106.264 235.239 106.127 234.58 105.855C233.921 105.574 233.398 105.095 233.011 104.418C232.625 103.741 232.431 102.805 232.431 101.61V93.7656H230.44V92.3813L232.576 91.2871L233.591 88.1626H235.542V91.4058H239.722V93.7656H235.542V101.57C235.542 102.309 235.727 102.858 236.096 103.218C236.465 103.579 236.953 103.759 237.56 103.759Z" fill="white"/>
<defs>
<clipPath id="clip0_225_332">
<rect width="9.07561" height="9.07561" fill="white" transform="translate(209.677 168.337) rotate(-162.956)"/>
</clipPath>
<clipPath id="clip1_225_332">
<rect width="15.1607" height="15.1607" fill="white" transform="translate(162.127 112) rotate(28.0405)"/>
</clipPath>
<clipPath id="clip2_225_332">
<rect width="10.4954" height="10.4954" fill="white" transform="translate(188 145.747) rotate(-33.204)"/>
</clipPath>
<clipPath id="clip3_225_332">
<rect width="16" height="16" fill="white" transform="translate(111 118)"/>
</clipPath>
<clipPath id="clip4_225_332">
<rect width="17" height="17" fill="white" transform="translate(111 42)"/>
</clipPath>
<clipPath id="clip5_225_332">
<rect width="12.7263" height="12.7263" fill="white" transform="translate(59.3042 23.1783) rotate(119.044)"/>
</clipPath>
<clipPath id="clip6_225_332">
<rect width="18.1933" height="18.1933" fill="white" transform="translate(14 56.985) rotate(-81.3209)"/>
</clipPath>
<clipPath id="clip7_225_332">
<rect width="32" height="23" fill="white" transform="translate(65 36)"/>
</clipPath>
<clipPath id="clip8_225_332">
<rect width="13.7174" height="13.7174" fill="white" transform="translate(102 74.6642) rotate(-39.1697)"/>
</clipPath>
<clipPath id="clip9_225_332">
<rect width="20" height="20" fill="white" transform="translate(181.473 180.276) rotate(-136.357)"/>
</clipPath>
</defs>
</svg>
