<svg width="457" height="213" viewBox="0 0 457 213" fill="none" xmlns="http://www.w3.org/2000/svg">
<rect width="457" height="213" rx="10" fill="#0B7474"/>
<g clip-path="url(#clip0_424_85)">
<path d="M261.079 151.065L251.867 148.241C251.57 148.15 251.249 148.18 250.975 148.326C250.701 148.472 250.495 148.72 250.404 149.017L248.173 156.296C248.082 156.593 248.112 156.914 248.258 157.188C248.404 157.463 248.652 157.668 248.949 157.759L259.028 160.849C259.325 160.94 259.646 160.909 259.92 160.764C260.194 160.618 260.4 160.369 260.491 160.072L263.553 150.084L261.079 151.065ZM261.029 149.825L264.255 148.547C264.357 148.506 264.469 148.496 264.577 148.516C264.686 148.536 264.786 148.586 264.867 148.661C264.948 148.736 265.006 148.832 265.035 148.938C265.064 149.045 265.062 149.157 265.03 149.262L261.611 160.416C261.428 161.01 261.018 161.507 260.469 161.798C259.92 162.09 259.278 162.151 258.684 161.969L248.606 158.879C248.012 158.697 247.515 158.286 247.223 157.737C246.932 157.189 246.871 156.547 247.053 155.953L249.285 148.674C249.467 148.08 249.877 147.583 250.426 147.291C250.975 147 251.617 146.939 252.211 147.121L261.029 149.825Z" fill="#9FBAFF"/>
<path d="M255.636 153.929C255.874 154.002 256.073 154.166 256.189 154.386C256.306 154.605 256.33 154.862 256.257 155.099C256.185 155.337 256.02 155.536 255.801 155.652C255.581 155.769 255.325 155.793 255.087 155.721C254.849 155.648 254.65 155.484 254.534 155.264C254.417 155.045 254.393 154.788 254.466 154.55C254.539 154.313 254.703 154.114 254.922 153.997C255.142 153.881 255.399 153.856 255.636 153.929ZM252.277 152.899C252.514 152.972 252.713 153.136 252.83 153.356C252.946 153.575 252.971 153.832 252.898 154.07C252.825 154.307 252.661 154.506 252.441 154.623C252.222 154.739 251.965 154.764 251.728 154.691C251.49 154.618 251.291 154.454 251.175 154.234C251.058 154.015 251.034 153.758 251.106 153.52C251.179 153.283 251.343 153.084 251.563 152.967C251.782 152.851 252.039 152.826 252.277 152.899ZM258.996 154.959C259.233 155.032 259.432 155.196 259.549 155.415C259.665 155.635 259.69 155.892 259.617 156.129C259.544 156.367 259.38 156.566 259.16 156.682C258.941 156.799 258.684 156.823 258.446 156.751C258.209 156.678 258.01 156.514 257.893 156.294C257.777 156.074 257.752 155.818 257.825 155.58C257.898 155.342 258.062 155.144 258.282 155.027C258.501 154.911 258.758 154.886 258.996 154.959Z" fill="#9FBAFF"/>
</g>
<g clip-path="url(#clip1_424_85)">
<path fill-rule="evenodd" clip-rule="evenodd" d="M339.09 138.169C340.014 138.661 340.364 139.809 339.872 140.733L336.902 146.308C336.41 147.232 335.263 147.582 334.339 147.09L325.418 142.339C324.494 141.847 324.144 140.699 324.636 139.775L327.606 134.2C328.098 133.276 329.246 132.926 330.169 133.418L339.09 138.169ZM338.08 139.063L329.992 134.755L332.135 139.644C332.253 139.912 332.539 140.065 332.826 140.012L338.08 139.063ZM328.671 134.888L325.751 140.369C325.587 140.677 325.704 141.06 326.012 141.224L334.933 145.975C335.241 146.139 335.623 146.022 335.787 145.714L338.707 140.233L333.051 141.256C332.188 141.412 331.33 140.955 330.978 140.152L328.671 134.888Z" fill="#9FBAFF"/>
</g>
<g clip-path="url(#clip2_424_85)">
<path fill-rule="evenodd" clip-rule="evenodd" d="M286.276 181.422C286.882 181.025 287.696 181.195 288.092 181.801L290.487 185.46C290.884 186.066 290.714 186.879 290.108 187.276L284.253 191.108C283.647 191.505 282.834 191.335 282.437 190.728L280.042 187.069C279.646 186.463 279.815 185.65 280.422 185.253L286.276 181.422ZM286.482 182.332L281.174 185.806L284.855 186.134C285.057 186.152 285.244 186.029 285.309 185.837L286.482 182.332ZM280.815 186.652L283.169 190.249C283.301 190.452 283.572 190.508 283.774 190.376L289.629 186.544C289.831 186.412 289.888 186.141 289.755 185.939L287.401 182.342L286.138 186.115C285.945 186.69 285.383 187.059 284.778 187.005L280.815 186.652Z" fill="#9FBAFF"/>
</g>
<g clip-path="url(#clip3_424_85)">
<path d="M361.5 164.083C366.793 164.083 371.083 159.793 371.083 154.5C371.083 149.207 366.793 144.917 361.5 144.917C356.207 144.917 351.917 149.207 351.917 154.5C351.917 156.033 352.277 157.482 352.917 158.767C353.087 159.108 353.143 159.499 353.045 159.867L352.474 162.001C352.226 162.927 353.073 163.774 354 163.526L356.133 162.955C356.501 162.857 356.892 162.913 357.233 163.083C358.518 163.723 359.967 164.083 361.5 164.083Z" stroke="#9FBAFF" stroke-width="2"/>
<path d="M361.5 152.105L360.987 152.608C361.122 152.746 361.307 152.824 361.5 152.824C361.693 152.824 361.878 152.746 362.014 152.608L361.5 152.105ZM360.077 156.773C359.519 156.298 358.96 155.749 358.545 155.181C358.122 154.602 357.906 154.08 357.906 153.646H356.469C356.469 154.524 356.885 155.346 357.384 156.029C357.891 156.723 358.543 157.355 359.145 157.868L360.077 156.773ZM357.906 153.646C357.906 152.585 358.38 152.026 358.868 151.844C359.364 151.658 360.154 151.757 360.987 152.608L362.014 151.602C360.906 150.471 359.54 150.058 358.364 150.497C357.181 150.94 356.469 152.142 356.469 153.646H357.906ZM363.855 157.868C364.457 157.355 365.109 156.723 365.616 156.029C366.115 155.346 366.531 154.524 366.531 153.646H365.094C365.094 154.08 364.878 154.602 364.455 155.181C364.041 155.749 363.481 156.298 362.924 156.773L363.855 157.868ZM366.531 153.646C366.531 152.142 365.819 150.94 364.636 150.497C363.46 150.058 362.094 150.471 360.987 151.602L362.014 152.608C362.846 151.757 363.637 151.658 364.132 151.844C364.62 152.026 365.094 152.585 365.094 153.646H366.531ZM359.145 157.868C359.892 158.503 360.487 159.046 361.5 159.046V157.609C361.103 157.609 360.909 157.48 360.077 156.773L359.145 157.868ZM362.924 156.773C362.092 157.48 361.897 157.609 361.5 157.609V159.046C362.513 159.046 363.108 158.503 363.855 157.868L362.924 156.773Z" fill="#9FBAFF"/>
</g>
<path d="M320.167 163.51C320.167 169.487 315.263 174.333 309.214 174.333H299.083M305.564 153.302C306.706 152.903 307.934 152.686 309.214 152.686C310.469 152.686 311.675 152.895 312.797 153.279M312.797 153.279C312.188 147.871 307.547 143.667 301.913 143.667C295.864 143.667 290.96 148.513 290.96 154.49C290.96 155.812 291.2 157.079 291.639 158.25M312.797 153.279C314.107 153.726 315.303 154.412 316.333 155.284M291.639 158.25C291.125 158.15 290.592 158.098 290.048 158.098C285.511 158.098 281.833 161.732 281.833 166.216C281.833 170.699 285.511 174.333 290.048 174.333H291.417M291.639 158.25C292.721 158.46 293.727 158.88 294.611 159.465" stroke="#9FBAFF" stroke-width="3" stroke-linecap="round"/>
<g clip-path="url(#clip4_424_85)">
<path fill-rule="evenodd" clip-rule="evenodd" d="M359.549 93.3781C358.719 93.0635 358.012 92.6563 357.455 92.2745C356.233 92.7694 354.897 93.0417 353.5 93.0417C347.678 93.0417 342.958 88.322 342.958 82.5C342.958 76.678 347.678 71.9583 353.5 71.9583C359.322 71.9583 364.042 76.678 364.042 82.5C364.042 84.6839 363.377 86.715 362.238 88.3986C362.166 89.7907 362.897 91.0485 363.656 92.1615C364.32 93.1363 364.154 93.9218 362.914 93.9921C362.359 94.0235 361.157 93.9879 359.549 93.3781ZM344.875 82.5C344.875 77.7366 348.737 73.875 353.5 73.875C358.264 73.875 362.125 77.7366 362.125 82.5C362.125 84.369 361.532 86.0967 360.523 87.5085C360.076 88.1333 360.306 89.304 360.459 89.9761C360.608 90.6284 360.93 91.3216 361.249 91.9035C360.944 91.83 360.602 91.7276 360.229 91.586C359.369 91.2598 358.658 90.8015 358.157 90.4168C357.873 90.1985 357.49 90.1573 357.166 90.3099C356.054 90.8324 354.813 91.125 353.5 91.125C348.737 91.125 344.875 87.2635 344.875 82.5ZM349.695 85.6074C349.546 85.0105 350.018 84.4169 350.625 84.4165H356.375C356.982 84.4169 357.454 85.0082 357.305 85.605C356.809 87.2803 355.211 88.25 353.5 88.25C351.855 88.25 350.116 87.2903 349.695 85.6074ZM357.813 80.5833C357.813 81.3772 357.169 82.0208 356.375 82.0208C355.581 82.0208 354.938 81.3772 354.938 80.5833C354.938 79.7894 355.581 79.1458 356.375 79.1458C357.169 79.1458 357.813 79.7894 357.813 80.5833ZM350.625 82.0208C351.419 82.0208 352.063 81.3772 352.063 80.5833C352.063 79.7894 351.419 79.1458 350.625 79.1458C349.831 79.1458 349.188 79.7894 349.188 80.5833C349.188 81.3772 349.831 82.0208 350.625 82.0208Z" fill="#9FBAFF"/>
</g>
<g clip-path="url(#clip5_424_85)">
<path fill-rule="evenodd" clip-rule="evenodd" d="M405.765 28.6562C406.14 28.3393 406.527 28.1065 406.862 27.9395C406.95 27.2153 407.177 26.4962 407.553 25.8204C409.117 23.0041 412.668 21.9888 415.484 23.5527C418.3 25.1166 419.315 28.6675 417.752 31.4838C416.188 34.3001 412.637 35.3154 409.82 33.7515C408.764 33.1649 407.96 32.2975 407.452 31.2945C406.798 30.8856 405.993 30.9014 405.251 30.9695C404.6 31.0291 404.265 30.7375 404.564 30.1191C404.698 29.842 405.038 29.2704 405.765 28.6562ZM414.969 24.4799C417.273 25.7594 418.104 28.6647 416.824 30.9689C415.545 33.2732 412.64 34.1039 410.335 32.8243C409.431 32.3223 408.755 31.5711 408.343 30.7038C408.161 30.3201 407.533 30.1167 407.166 30.0102C406.811 29.9069 406.389 29.8767 406.022 29.8745C406.139 29.7467 406.281 29.609 406.449 29.4663C406.838 29.1379 407.251 28.9173 407.572 28.7782C407.754 28.6993 407.876 28.5253 407.89 28.3274C407.935 27.6495 408.127 26.9702 408.48 26.3352C409.759 24.031 412.665 23.2003 414.969 24.4799ZM412.171 25.977C412.5 26.0651 412.66 26.4526 412.497 26.7466L410.953 29.5281C410.79 29.8215 410.377 29.8911 410.128 29.6586C409.451 28.9685 409.411 27.9352 409.871 27.1076C410.313 26.3117 411.244 25.7284 412.171 25.977ZM412.421 31.2531C412.037 31.0398 411.898 30.5556 412.112 30.1716C412.325 29.7875 412.809 29.6491 413.193 29.8623C413.577 30.0756 413.716 30.5598 413.502 30.9438C413.289 31.3279 412.805 31.4663 412.421 31.2531ZM413.656 27.3901C413.443 27.7741 413.581 28.2583 413.965 28.4716C414.35 28.6848 414.834 28.5464 415.047 28.1624C415.26 27.7783 415.122 27.2941 414.738 27.0808C414.354 26.8676 413.869 27.006 413.656 27.3901Z" fill="#9FBAFF"/>
</g>
<path d="M418.032 59.1669C417.829 59.4441 417.89 59.8333 418.167 60.0361C418.444 60.2389 418.833 60.1785 419.036 59.9012L418.032 59.1669ZM421.935 60.5026L421.318 60.5811C421.34 60.7506 421.43 60.9038 421.568 61.0046C421.706 61.1055 421.88 61.1452 422.048 61.1143L421.935 60.5026ZM418.784 62.4108C418.701 62.0773 418.364 61.8739 418.031 61.9565C417.697 62.039 417.494 62.3762 417.576 62.7097L418.784 62.4108ZM419.036 59.9012C419.386 59.4227 419.93 59.2361 420.373 59.3243C420.771 59.4035 421.21 59.7324 421.318 60.5811L422.552 60.424C422.386 59.119 421.609 58.3018 420.616 58.1043C419.67 57.9158 418.65 58.3218 418.032 59.1669L419.036 59.9012ZM417.852 63.7199C417.908 63.9258 417.975 64.1761 418.072 64.4019C418.168 64.6273 418.319 64.8946 418.582 65.0873L419.317 64.0832C419.312 64.08 419.273 64.0467 419.216 63.9137C419.159 63.7812 419.112 63.6158 419.053 63.3956L417.852 63.7199ZM420.107 65.3691C420.685 65.3435 421.481 65.3495 422.226 65.1817C423.004 65.0068 423.795 64.6336 424.391 63.8178L423.387 63.0835C423.016 63.5913 422.526 63.839 421.953 63.968C421.349 64.104 420.724 64.0967 420.052 64.1263L420.107 65.3691ZM424.391 63.8178C425.009 62.9727 425.087 61.8781 424.621 61.0329C424.132 60.1471 423.117 59.6536 421.823 59.8908L422.048 61.1143C422.889 60.9601 423.336 61.2789 423.532 61.634C423.75 62.0299 423.737 62.6049 423.387 63.0835L424.391 63.8178ZM420.052 64.1263C419.824 64.1364 419.652 64.1418 419.509 64.128C419.365 64.1142 419.321 64.0864 419.317 64.0832L418.582 65.0873C418.846 65.2799 419.146 65.343 419.39 65.3663C419.635 65.3897 419.894 65.3784 420.107 65.3691L420.052 64.1263ZM419.053 63.3956C418.96 63.0526 418.868 62.7524 418.784 62.4108L417.576 62.7097C417.663 63.0612 417.774 63.4314 417.852 63.7199L419.053 63.3956Z" fill="#9FBAFF"/>
<path d="M443.5 7.08333V9.16666" stroke="#9FBAFF" stroke-width="2" stroke-linecap="round"/>
<path d="M443.5 25.8333V27.9167" stroke="#9FBAFF" stroke-width="2" stroke-linecap="round"/>
<path d="M433.083 17.5H435.167" stroke="#9FBAFF" stroke-width="2" stroke-linecap="round"/>
<path d="M451.833 17.5H453.917" stroke="#9FBAFF" stroke-width="2" stroke-linecap="round"/>
<path d="M437.25 23.75L437.607 23.3927" stroke="#9FBAFF" stroke-width="2" stroke-linecap="round"/>
<path d="M449.393 11.6076L449.75 11.25" stroke="#9FBAFF" stroke-width="2" stroke-linecap="round"/>
<path d="M449.75 23.75L449.393 23.3927" stroke="#9FBAFF" stroke-width="2" stroke-linecap="round"/>
<path d="M437.608 11.6076L437.25 11.25" stroke="#9FBAFF" stroke-width="2" stroke-linecap="round"/>
<path d="M438.552 16.8538C438.552 17.2852 438.902 17.635 439.333 17.635C439.765 17.635 440.115 17.2852 440.115 16.8538H438.552ZM443.5 15.3135L442.933 15.8506C443.08 16.0065 443.286 16.0948 443.5 16.0948C443.715 16.0948 443.92 16.0065 444.067 15.8506L443.5 15.3135ZM441.72 19.585C441.389 19.3081 440.896 19.352 440.619 19.6829C440.342 20.0139 440.386 20.5066 440.717 20.7834L441.72 19.585ZM440.115 16.8538C440.115 16.1091 440.528 15.5165 441.043 15.2771C441.505 15.0624 442.194 15.0703 442.933 15.8506L444.067 14.7764C442.931 13.5765 441.537 13.3246 440.385 13.8601C439.285 14.3711 438.552 15.5387 438.552 16.8538H440.115ZM441.746 21.6032C441.955 21.7707 442.209 21.9743 442.474 22.1318C442.739 22.289 443.09 22.4479 443.5 22.4479V20.8854C443.493 20.8854 443.428 20.8812 443.272 20.7884C443.117 20.696 442.946 20.5631 442.723 20.384L441.746 21.6032ZM445.255 21.6032C445.822 21.1489 446.633 20.5648 447.265 19.8417C447.923 19.088 448.448 18.1232 448.448 16.8538H446.886C446.886 17.6441 446.573 18.2579 446.088 18.8137C445.576 19.3999 444.937 19.8558 444.278 20.384L445.255 21.6032ZM448.448 16.8538C448.448 15.5387 447.715 14.3711 446.616 13.8601C445.463 13.3246 444.069 13.5765 442.933 14.7764L444.067 15.8506C444.806 15.0703 445.495 15.0624 445.957 15.2771C446.472 15.5165 446.886 16.1091 446.886 16.8538H448.448ZM444.278 20.384C444.054 20.5631 443.884 20.696 443.728 20.7884C443.572 20.8812 443.507 20.8854 443.5 20.8854V22.4479C443.91 22.4479 444.262 22.289 444.526 22.1318C444.791 21.9743 445.046 21.7707 445.255 21.6032L444.278 20.384ZM442.723 20.384C442.375 20.1049 442.059 19.8687 441.72 19.585L440.717 20.7834C441.066 21.0753 441.453 21.3685 441.746 21.6032L442.723 20.384Z" fill="#9FBAFF"/>
<g clip-path="url(#clip6_424_85)">
<path d="M427.157 32.7701C427.942 32.4361 428.827 32.3093 429.732 32.4474C432.336 32.845 434.124 35.2875 433.725 37.9029C433.652 38.3801 433.376 39.4499 432.857 39.9116L433.414 40.6728C433.879 41.3071 433.946 40.8666 434.418 40.7133C434.418 40.7133 435.27 40.2799 435.954 40.9477C436.342 41.3451 436.815 42.3639 435.601 43.2604L435.786 43.5141C435.786 43.5141 436.655 42.9706 437.339 43.6384C437.727 44.0357 438.031 44.9837 437.146 45.6374C437.177 45.6797 437.35 45.9165 437.796 46.5255C438.242 47.1345 437.836 47.7337 437.577 47.9571L436.818 48.5174C436.11 49.0404 435.5 48.5791 435.283 48.2831L430.454 41.6859C430.454 41.6859 429.492 42.1026 428.286 41.9184C425.681 41.5208 423.893 39.0784 424.293 36.4631C424.386 35.8495 424.592 35.2808 424.886 34.7751" stroke="#9FBAFF" stroke-linecap="round" stroke-linejoin="round"/>
<path d="M429.261 35.531C430.17 35.6697 430.793 36.5217 430.654 37.4341C430.515 38.3464 429.665 38.9736 428.757 38.8349C427.848 38.6962 427.224 37.8441 427.364 36.9318C427.503 36.0195 428.352 35.3923 429.261 35.531Z" stroke="#9FBAFF"/>
</g>
<g clip-path="url(#clip7_424_85)">
<path fill-rule="evenodd" clip-rule="evenodd" d="M397.227 42C399.863 42 402 44.0987 402 46.6875V62.3125C402 64.9014 399.863 67 397.227 67H371.773C369.137 67 367 64.9014 367 62.3125V46.6875C367 44.0987 369.137 42 371.773 42H397.227ZM396.039 45.125H372.961L383.514 53.3073C384.092 53.7556 384.908 53.7556 385.486 53.3073L396.039 45.125ZM370.182 46.9512V62.3125C370.182 63.1755 370.894 63.875 371.773 63.875H397.227C398.106 63.875 398.818 63.1755 398.818 62.3125V46.9513L387.457 55.7602C385.723 57.1047 383.277 57.1047 381.543 55.7602L370.182 46.9512Z" fill="#9FBAFF"/>
</g>
<path d="M274 141.308L276.5 139L279 141.308M274 144L276.5 141.692L279 144" stroke="#9FBAFF" stroke-linecap="round" stroke-linejoin="round"/>
<path d="M381.432 139.216L377.036 140.545L375.36 136.269M383.018 135.946L378.622 137.275L376.946 133" stroke="#9FBAFF" stroke-linecap="round" stroke-linejoin="round"/>
<path d="M272.837 206.362C272.837 206.63 272.62 206.848 272.352 206.848C272.084 206.848 271.866 206.63 271.866 206.362H272.837ZM269.764 205.406L270.116 205.739C270.024 205.836 269.897 205.891 269.764 205.891C269.63 205.891 269.503 205.836 269.411 205.739L269.764 205.406ZM270.869 208.059C271.075 207.887 271.381 207.914 271.553 208.119C271.725 208.325 271.698 208.631 271.492 208.803L270.869 208.059ZM271.866 206.362C271.866 205.9 271.61 205.532 271.29 205.383C271.003 205.25 270.575 205.255 270.116 205.739L269.411 205.072C270.117 204.327 270.983 204.17 271.699 204.503C272.382 204.82 272.837 205.545 272.837 206.362H271.866ZM270.853 209.312C270.724 209.416 270.566 209.543 270.401 209.64C270.237 209.738 270.018 209.837 269.764 209.837V208.866C269.768 208.866 269.808 208.864 269.905 208.806C270.002 208.749 270.108 208.666 270.247 208.555L270.853 209.312ZM268.674 209.312C268.322 209.03 267.818 208.667 267.426 208.218C267.017 207.75 266.691 207.151 266.691 206.362H267.661C267.661 206.853 267.855 207.234 268.156 207.58C268.475 207.944 268.871 208.227 269.281 208.555L268.674 209.312ZM266.691 206.362C266.691 205.545 267.146 204.82 267.829 204.503C268.544 204.17 269.41 204.327 270.116 205.072L269.411 205.739C268.952 205.255 268.525 205.25 268.238 205.383C267.918 205.532 267.661 205.9 267.661 206.362H266.691ZM269.281 208.555C269.42 208.666 269.525 208.749 269.622 208.806C269.719 208.864 269.759 208.866 269.764 208.866V209.837C269.509 209.837 269.291 209.738 269.126 209.64C268.962 209.543 268.804 209.416 268.674 209.312L269.281 208.555ZM270.247 208.555C270.463 208.382 270.659 208.235 270.869 208.059L271.492 208.803C271.275 208.984 271.035 209.166 270.853 209.312L270.247 208.555Z" fill="#9FBAFF"/>
<g clip-path="url(#clip8_424_85)">
<path d="M331.881 60.7913L338.442 55.4462C338.653 55.2739 338.788 55.0246 338.816 54.7531C338.843 54.4817 338.762 54.2104 338.59 53.9989L334.366 48.8147C334.194 48.6032 333.945 48.4688 333.673 48.441C333.402 48.4133 333.13 48.4946 332.919 48.6669L325.741 54.5149C325.529 54.6872 325.395 54.9365 325.367 55.208C325.339 55.4794 325.421 55.7507 325.593 55.9622L331.389 63.0765L331.881 60.7913ZM332.811 61.3607L332.168 64.3392C332.148 64.4338 332.101 64.5207 332.033 64.5899C331.966 64.6591 331.88 64.7078 331.786 64.7304C331.692 64.753 331.593 64.7486 331.501 64.7177C331.41 64.6868 331.328 64.6307 331.267 64.5557L324.795 56.612C324.451 56.1889 324.288 55.6463 324.344 55.1034C324.399 54.5606 324.668 54.062 325.091 53.7173L332.269 47.8693C332.692 47.5247 333.235 47.3622 333.778 47.4176C334.32 47.4731 334.819 47.7419 335.164 48.1649L339.387 53.3491C339.732 53.7721 339.894 54.3148 339.839 54.8576C339.784 55.4005 339.515 55.8991 339.092 56.2438L332.811 61.3607Z" fill="#9FBAFF"/>
<path d="M332.449 55.4192C332.28 55.5571 332.063 55.6221 331.845 55.5999C331.628 55.5777 331.429 55.4702 331.291 55.301C331.153 55.1318 331.088 54.9147 331.11 54.6976C331.132 54.4804 331.24 54.281 331.409 54.1431C331.578 54.0053 331.795 53.9403 332.013 53.9624C332.23 53.9846 332.429 54.0921 332.567 54.2614C332.705 54.4306 332.77 54.6476 332.748 54.8648C332.726 55.0819 332.618 55.2814 332.449 55.4192ZM334.841 53.4699C334.672 53.6078 334.455 53.6728 334.238 53.6506C334.021 53.6284 333.821 53.5209 333.684 53.3517C333.546 53.1824 333.481 52.9654 333.503 52.7482C333.525 52.5311 333.633 52.3317 333.802 52.1938C333.971 52.0559 334.188 51.9909 334.405 52.0131C334.622 52.0353 334.822 52.1428 334.96 52.312C335.098 52.4812 335.163 52.6983 335.14 52.9155C335.118 53.1326 335.011 53.332 334.841 53.4699ZM330.056 57.3686C329.887 57.5064 329.67 57.5714 329.453 57.5492C329.236 57.5271 329.036 57.4195 328.898 57.2503C328.76 57.0811 328.695 56.864 328.718 56.6469C328.74 56.4298 328.847 56.2303 329.016 56.0925C329.186 55.9546 329.403 55.8896 329.62 55.9118C329.837 55.9339 330.036 56.0415 330.174 56.2107C330.312 56.3799 330.377 56.597 330.355 56.8141C330.333 57.0312 330.225 57.2307 330.056 57.3686Z" fill="#9FBAFF"/>
</g>
<path d="M334.516 89.8285L334.069 84.4442L328.684 84.8918M331.637 93.2304L331.189 87.8461L325.805 88.2937" stroke="#9FBAFF" stroke-linecap="round" stroke-linejoin="round"/>
<g clip-path="url(#clip9_424_85)">
<path d="M234.645 192.145C234.839 191.227 235.282 190.35 235.976 189.622C237.975 187.526 241.302 187.454 243.406 189.461C243.79 189.828 244.581 190.75 244.669 191.508L245.706 191.486C246.57 191.467 246.216 191.129 246.375 190.607C246.375 190.607 246.521 189.567 247.554 189.372C248.156 189.272 249.372 189.488 249.415 191.146L249.76 191.139C249.76 191.139 249.818 190.014 250.85 189.819C251.453 189.719 252.498 190.042 252.53 191.252C252.587 191.251 252.91 191.244 253.739 191.226C254.569 191.208 254.853 191.951 254.891 192.325L254.918 193.361C254.943 194.329 254.143 194.588 253.739 194.597L244.754 194.791C244.754 194.791 244.524 195.92 243.598 196.891C241.599 198.987 238.272 199.059 236.167 197.052C235.674 196.581 235.291 196.037 235.02 195.454" stroke="#9FBAFF" stroke-linecap="round" stroke-linejoin="round"/>
<path d="M238.458 191.989C239.155 191.257 240.315 191.232 241.05 191.933C241.784 192.633 241.814 193.793 241.116 194.524C240.419 195.255 239.258 195.281 238.524 194.58C237.79 193.88 237.76 192.72 238.458 191.989Z" stroke="#9FBAFF"/>
</g>
<path d="M225.447 124H214.531V104.726H225.447V107.389H217.695V112.623H224.959V115.272H217.695V121.324H225.447V124ZM236.904 109.129C238.547 109.129 239.826 109.555 240.74 110.408C241.663 111.251 242.125 112.609 242.125 114.481V124H239.026V115.062C239.026 113.928 238.793 113.08 238.328 112.517C237.862 111.946 237.141 111.66 236.166 111.66C234.75 111.66 233.766 112.095 233.212 112.965C232.667 113.835 232.395 115.097 232.395 116.749V124H229.297V109.406H231.709L232.145 111.383H232.316C232.632 110.874 233.023 110.456 233.489 110.131C233.964 109.797 234.491 109.546 235.071 109.379C235.66 109.212 236.271 109.129 236.904 109.129ZM252.342 124.264C250.962 124.264 249.767 123.996 248.756 123.459C247.745 122.923 246.967 122.102 246.422 120.994C245.877 119.887 245.605 118.48 245.605 116.775C245.605 115 245.904 113.55 246.501 112.425C247.099 111.3 247.925 110.469 248.98 109.933C250.043 109.397 251.261 109.129 252.632 109.129C253.502 109.129 254.289 109.217 254.992 109.393C255.704 109.56 256.306 109.766 256.798 110.012L255.875 112.491C255.339 112.271 254.79 112.086 254.227 111.937C253.665 111.788 253.124 111.713 252.605 111.713C251.753 111.713 251.041 111.902 250.47 112.28C249.907 112.658 249.485 113.22 249.204 113.967C248.932 114.714 248.795 115.642 248.795 116.749C248.795 117.821 248.936 118.727 249.217 119.465C249.499 120.194 249.916 120.748 250.47 121.126C251.023 121.495 251.705 121.68 252.513 121.68C253.313 121.68 254.029 121.583 254.662 121.39C255.295 121.196 255.893 120.946 256.455 120.638V123.328C255.901 123.644 255.308 123.877 254.675 124.026C254.042 124.185 253.265 124.264 252.342 124.264ZM267.279 109.129C267.525 109.129 267.793 109.142 268.083 109.168C268.373 109.195 268.624 109.23 268.834 109.274L268.544 112.174C268.36 112.122 268.131 112.082 267.859 112.056C267.595 112.029 267.358 112.016 267.147 112.016C266.593 112.016 266.066 112.108 265.565 112.293C265.064 112.469 264.62 112.741 264.233 113.11C263.847 113.471 263.543 113.923 263.324 114.468C263.104 115.013 262.994 115.646 262.994 116.367V124H259.883V109.406H262.309L262.73 111.977H262.875C263.166 111.458 263.526 110.983 263.957 110.553C264.387 110.122 264.879 109.779 265.433 109.524C265.996 109.261 266.611 109.129 267.279 109.129ZM269.335 109.406H272.71L275.703 117.738C275.835 118.116 275.954 118.489 276.059 118.858C276.173 119.219 276.27 119.575 276.349 119.926C276.437 120.278 276.507 120.629 276.56 120.981H276.639C276.727 120.524 276.85 120.014 277.008 119.452C277.175 118.88 277.36 118.309 277.562 117.738L280.436 109.406H283.771L277.509 126.004C277.149 126.953 276.705 127.762 276.178 128.43C275.659 129.106 275.044 129.616 274.332 129.959C273.62 130.311 272.807 130.486 271.893 130.486C271.454 130.486 271.071 130.46 270.746 130.407C270.421 130.363 270.144 130.315 269.916 130.262V127.784C270.1 127.828 270.333 127.867 270.614 127.902C270.896 127.938 271.186 127.955 271.484 127.955C272.038 127.955 272.517 127.845 272.921 127.625C273.326 127.406 273.668 127.094 273.95 126.689C274.231 126.294 274.464 125.841 274.648 125.332L275.163 123.96L269.335 109.406ZM293.475 109.129C295.206 109.129 296.595 109.762 297.641 111.027C298.695 112.293 299.223 114.174 299.223 116.67C299.223 118.322 298.977 119.715 298.484 120.849C298.001 121.974 297.32 122.827 296.441 123.407C295.571 123.978 294.556 124.264 293.396 124.264C292.657 124.264 292.016 124.167 291.471 123.974C290.926 123.78 290.46 123.53 290.073 123.222C289.687 122.906 289.361 122.563 289.098 122.194H288.913C288.957 122.545 288.997 122.937 289.032 123.367C289.076 123.789 289.098 124.176 289.098 124.527V130.473H285.986V109.406H288.518L288.953 111.423H289.098C289.37 111.01 289.7 110.627 290.086 110.276C290.482 109.924 290.957 109.647 291.51 109.445C292.073 109.234 292.728 109.129 293.475 109.129ZM292.644 111.66C291.792 111.66 291.106 111.832 290.587 112.174C290.078 112.508 289.704 113.014 289.467 113.69C289.238 114.367 289.115 115.215 289.098 116.235V116.67C289.098 117.751 289.208 118.669 289.427 119.425C289.656 120.172 290.029 120.744 290.548 121.139C291.075 121.526 291.787 121.719 292.684 121.719C293.439 121.719 294.063 121.513 294.556 121.1C295.057 120.687 295.43 120.098 295.676 119.333C295.922 118.568 296.045 117.667 296.045 116.63C296.045 115.057 295.764 113.835 295.202 112.965C294.648 112.095 293.795 111.66 292.644 111.66ZM308.24 121.759C308.645 121.759 309.044 121.724 309.44 121.653C309.835 121.574 310.196 121.482 310.521 121.376V123.723C310.178 123.873 309.734 124 309.189 124.105C308.645 124.211 308.078 124.264 307.489 124.264C306.663 124.264 305.92 124.127 305.261 123.855C304.602 123.574 304.079 123.095 303.692 122.418C303.305 121.741 303.112 120.805 303.112 119.61V111.766H301.121V110.381L303.257 109.287L304.272 106.163H306.223V109.406H310.402V111.766H306.223V119.57C306.223 120.309 306.408 120.858 306.777 121.218C307.146 121.579 307.634 121.759 308.24 121.759ZM319.301 109.129C320.602 109.129 321.718 109.397 322.65 109.933C323.582 110.469 324.298 111.229 324.799 112.214C325.3 113.198 325.55 114.376 325.55 115.747V117.408H315.808C315.843 118.823 316.221 119.913 316.941 120.678C317.671 121.442 318.69 121.825 320 121.825C320.932 121.825 321.767 121.737 322.505 121.561C323.252 121.376 324.021 121.108 324.812 120.757V123.275C324.083 123.618 323.34 123.868 322.584 124.026C321.828 124.185 320.923 124.264 319.868 124.264C318.436 124.264 317.174 123.987 316.084 123.433C315.003 122.871 314.155 122.036 313.54 120.928C312.934 119.821 312.63 118.445 312.63 116.802C312.63 115.167 312.907 113.778 313.461 112.636C314.015 111.493 314.792 110.623 315.794 110.025C316.796 109.428 317.965 109.129 319.301 109.129ZM319.301 111.462C318.326 111.462 317.535 111.779 316.928 112.412C316.331 113.044 315.979 113.972 315.874 115.193H322.518C322.509 114.464 322.386 113.818 322.149 113.255C321.92 112.693 321.569 112.253 321.094 111.937C320.628 111.621 320.031 111.462 319.301 111.462ZM333.948 124.264C332.208 124.264 330.811 123.631 329.756 122.365C328.71 121.091 328.187 119.214 328.187 116.736C328.187 114.231 328.719 112.337 329.782 111.054C330.854 109.771 332.265 109.129 334.014 109.129C334.752 109.129 335.398 109.23 335.952 109.432C336.506 109.625 336.98 109.889 337.376 110.223C337.78 110.557 338.123 110.931 338.404 111.344H338.549C338.505 111.071 338.453 110.68 338.391 110.17C338.338 109.652 338.312 109.173 338.312 108.733V103.486H341.423V124H338.998L338.444 122.009H338.312C338.048 122.431 337.714 122.813 337.31 123.156C336.915 123.49 336.44 123.758 335.886 123.96C335.341 124.163 334.695 124.264 333.948 124.264ZM334.818 121.746C336.146 121.746 337.082 121.363 337.626 120.599C338.171 119.834 338.453 118.687 338.47 117.158V116.749C338.47 115.114 338.207 113.862 337.679 112.992C337.152 112.113 336.189 111.673 334.792 111.673C333.676 111.673 332.823 112.126 332.234 113.031C331.654 113.928 331.364 115.18 331.364 116.789C331.364 118.397 331.654 119.627 332.234 120.48C332.823 121.324 333.685 121.746 334.818 121.746ZM358.76 124.264C357.38 124.264 356.185 123.996 355.174 123.459C354.163 122.923 353.385 122.102 352.84 120.994C352.295 119.887 352.023 118.48 352.023 116.775C352.023 115 352.322 113.55 352.919 112.425C353.517 111.3 354.343 110.469 355.398 109.933C356.461 109.397 357.679 109.129 359.05 109.129C359.92 109.129 360.707 109.217 361.41 109.393C362.122 109.56 362.724 109.766 363.216 110.012L362.293 112.491C361.757 112.271 361.208 112.086 360.645 111.937C360.083 111.788 359.542 111.713 359.023 111.713C358.171 111.713 357.459 111.902 356.888 112.28C356.325 112.658 355.903 113.22 355.622 113.967C355.35 114.714 355.213 115.642 355.213 116.749C355.213 117.821 355.354 118.727 355.635 119.465C355.917 120.194 356.334 120.748 356.888 121.126C357.441 121.495 358.123 121.68 358.931 121.68C359.731 121.68 360.447 121.583 361.08 121.39C361.713 121.196 362.311 120.946 362.873 120.638V123.328C362.319 123.644 361.726 123.877 361.093 124.026C360.46 124.185 359.683 124.264 358.76 124.264ZM369.399 103.486V108.641C369.399 109.177 369.381 109.7 369.346 110.21C369.32 110.72 369.289 111.115 369.254 111.396H369.425C369.733 110.887 370.111 110.469 370.559 110.144C371.007 109.81 371.508 109.56 372.062 109.393C372.625 109.226 373.222 109.142 373.855 109.142C374.971 109.142 375.92 109.331 376.703 109.709C377.485 110.078 378.083 110.654 378.496 111.436C378.917 112.218 379.128 113.233 379.128 114.481V124H376.03V115.062C376.03 113.928 375.797 113.08 375.332 112.517C374.866 111.946 374.145 111.66 373.169 111.66C372.229 111.66 371.482 111.858 370.928 112.253C370.383 112.64 369.992 113.216 369.755 113.98C369.518 114.736 369.399 115.659 369.399 116.749V124H366.301V103.486H369.399ZM389.188 109.129C391.033 109.129 392.426 109.538 393.367 110.355C394.316 111.172 394.791 112.447 394.791 114.178V124H392.589L391.996 121.93H391.89C391.477 122.458 391.051 122.893 390.611 123.235C390.172 123.578 389.662 123.833 389.082 124C388.511 124.176 387.812 124.264 386.986 124.264C386.116 124.264 385.338 124.105 384.652 123.789C383.967 123.464 383.426 122.972 383.031 122.312C382.635 121.653 382.438 120.818 382.438 119.808C382.438 118.305 382.996 117.175 384.112 116.419C385.237 115.664 386.933 115.246 389.201 115.167L391.732 115.075V114.31C391.732 113.299 391.495 112.579 391.02 112.148C390.554 111.717 389.895 111.502 389.042 111.502C388.313 111.502 387.605 111.607 386.92 111.818C386.234 112.029 385.566 112.289 384.916 112.596L383.914 110.408C384.626 110.03 385.435 109.722 386.34 109.485C387.254 109.248 388.203 109.129 389.188 109.129ZM391.719 117.026L389.833 117.092C388.287 117.145 387.201 117.408 386.577 117.883C385.953 118.357 385.641 119.008 385.641 119.834C385.641 120.555 385.856 121.082 386.287 121.416C386.718 121.741 387.285 121.904 387.988 121.904C389.06 121.904 389.948 121.601 390.651 120.994C391.363 120.379 391.719 119.478 391.719 118.292V117.026ZM404.56 121.759C404.964 121.759 405.364 121.724 405.759 121.653C406.155 121.574 406.515 121.482 406.84 121.376V123.723C406.498 123.873 406.054 124 405.509 124.105C404.964 124.211 404.397 124.264 403.808 124.264C402.982 124.264 402.239 124.127 401.58 123.855C400.921 123.574 400.398 123.095 400.011 122.418C399.625 121.741 399.431 120.805 399.431 119.61V111.766H397.44V110.381L399.576 109.287L400.591 106.163H402.542V109.406H406.722V111.766H402.542V119.57C402.542 120.309 402.727 120.858 403.096 121.218C403.465 121.579 403.953 121.759 404.56 121.759Z" fill="white"/>
<defs>
<clipPath id="clip0_424_85">
<rect width="18.7401" height="18.7401" fill="white" transform="translate(261.917 165.41) rotate(-162.956)"/>
</clipPath>
<clipPath id="clip1_424_85">
<rect width="15.1607" height="15.1607" fill="white" transform="translate(329.127 130) rotate(28.0405)"/>
</clipPath>
<clipPath id="clip2_424_85">
<rect width="10.4954" height="10.4954" fill="white" transform="translate(278 184.747) rotate(-33.204)"/>
</clipPath>
<clipPath id="clip3_424_85">
<rect width="23" height="23" fill="white" transform="translate(350 143)"/>
</clipPath>
<clipPath id="clip4_424_85">
<rect width="23" height="23" fill="white" transform="translate(342 71)"/>
</clipPath>
<clipPath id="clip5_424_85">
<rect width="12.7263" height="12.7263" fill="white" transform="translate(421.304 26.1783) rotate(119.044)"/>
</clipPath>
<clipPath id="clip6_424_85">
<rect width="18.1933" height="18.1933" fill="white" transform="translate(421 47.985) rotate(-81.3209)"/>
</clipPath>
<clipPath id="clip7_424_85">
<rect width="35" height="25" fill="white" transform="translate(367 42)"/>
</clipPath>
<clipPath id="clip8_424_85">
<rect width="16.4599" height="16.4599" fill="white" transform="translate(321 54.3964) rotate(-39.1697)"/>
</clipPath>
<clipPath id="clip9_424_85">
<rect width="20" height="20" fill="white" transform="translate(244.473 207.276) rotate(-136.357)"/>
</clipPath>
</defs>
</svg>
